<svg width="142" height="30" viewBox="0 0 142 30" fill="none" xmlns="http://www.w3.org/2000/svg">
<g clip-path="url(#clip0_1811_483)">
<path d="M53.456 4.82812H51.0226C50.8783 4.82812 50.7515 4.87489 50.6541 4.97591C50.5585 5.06757 50.5098 5.18729 50.5098 5.33508V7.5724C50.5098 7.87732 50.773 8.12799 51.0928 8.12799C51.4126 8.12799 51.6758 7.87732 51.6758 7.5724C51.6758 7.87732 51.939 8.12799 52.2588 8.12799C52.5786 8.12799 52.8418 7.87732 52.8418 7.5724C52.8418 7.87732 53.1051 8.12799 53.4248 8.12799C53.7446 8.12799 54.0079 7.87732 54.0079 7.5724V5.33508C54.0079 5.19665 53.9591 5.07692 53.8519 4.97591C53.7446 4.88425 53.6198 4.82812 53.4638 4.82812H53.4599H53.456Z" fill="white"/>
<path d="M29.8335 27.2334C29.7457 26.6891 29.5898 26.1522 29.4357 25.634C29.2037 24.8483 28.9892 24.1094 29.0009 23.3424C29.0106 22.6858 29.1842 22.0573 29.3597 21.3838C29.504 20.8563 29.6502 20.3213 29.7106 19.7676C29.9056 18.0016 29.1881 16.1628 27.831 14.9524C27.5112 14.6662 27.1621 14.4156 26.8209 14.1668C26.4056 13.8712 26.0156 13.585 25.6861 13.252C25.8889 12.7245 26.0059 12.152 26.0059 11.5609V10.9417C25.9961 10.895 25.9766 10.8501 25.9376 10.822C25.8986 10.7939 25.8499 10.7752 25.8011 10.7846L25.6841 10.7939C25.3741 10.8295 25.0621 10.895 24.7735 10.9791C24.7638 10.8314 24.754 10.6836 24.7443 10.5433C24.7053 9.90724 24.6566 9.24876 24.4148 8.63144C24.134 7.91871 23.6192 7.32758 23.1142 6.7645C22.5117 6.08171 21.9501 5.44194 21.8253 4.64877V4.602C22.3011 2.41145 20.8757 1.52475 20.1094 1.04398C19.0994 0.415436 17.7228 0.378022 16.6776 0.959802C16.2994 1.17119 15.9698 1.44992 15.6598 1.71742C15.301 2.0317 14.9618 2.31791 14.5542 2.50311C13.8269 2.82673 12.9261 2.76126 12.0525 2.70701C10.908 2.62283 9.71462 2.54052 8.82353 3.3075C8.5603 3.53011 8.36726 3.79761 8.18397 4.05577C8.00068 4.31392 7.81544 4.56459 7.58146 4.74979C7.09789 5.12766 6.43688 5.18566 5.73882 5.2399C5.3118 5.27545 4.86527 5.31286 4.43825 5.4251C3.91568 5.56353 3.5842 5.82168 3.22542 6.08919C3.10843 6.18085 2.98169 6.27439 2.84715 6.36605C2.62486 6.51383 2.41232 6.6242 2.17834 6.73644C1.9658 6.83746 1.74352 6.94783 1.50953 7.09561C0.86022 7.52026 0.548239 8.04779 0.587237 8.67633C0.674981 10.0531 2.51762 11.4113 3.16693 11.8546V11.864L3.22542 11.9014C3.24492 11.9107 3.25467 11.9201 3.27417 11.9294H3.28392C3.59395 12.1333 3.90593 12.3185 4.13797 12.4196C4.3895 12.5393 4.64104 12.6403 4.90427 12.7525C5.52628 13.0107 6.1054 13.2614 6.62016 13.6317C7.03549 13.9273 7.41572 14.3145 7.77449 14.6849C8.29706 15.2293 8.85083 15.7849 9.57033 16.1347C10.1806 16.4303 10.8397 16.5406 11.4812 16.651C12.0915 16.752 12.6628 16.8549 13.1776 17.0944C13.5286 17.2609 13.8464 17.4835 14.1759 17.7229C14.5542 17.9923 14.9501 18.2673 15.4083 18.4618C15.8158 18.6283 16.2818 18.7387 16.7283 18.8509C17.4459 19.0268 18.1927 19.2026 18.6587 19.5898C18.9103 19.8761 19.193 20.0332 19.4933 20.0613C19.7253 20.08 19.9281 20.0145 20.1153 19.9696C20.1543 19.9602 20.1835 19.9509 20.2225 19.9415C20.8718 19.7657 21.6186 19.8761 22.2699 20.2558C22.9192 20.6337 23.356 21.2173 23.4905 21.8552C23.5783 22.2986 23.549 22.7887 23.5295 23.2788C23.4808 24.2029 23.434 25.1645 24.1515 25.8585C24.5201 26.2176 25.1811 26.4215 25.6549 26.0979C26.0332 25.8398 26.0897 25.4151 26.1502 25.0354C26.1599 24.9811 26.1697 24.9231 26.1697 24.8782C26.1989 24.6743 26.314 24.4817 26.4212 24.3975C26.4602 24.3694 26.4972 24.3601 26.5382 24.3694C26.6142 24.3788 26.702 24.4704 26.7819 24.6014C27.053 25.099 27.0042 25.7275 26.9262 26.3299L26.9165 26.3841C26.8287 27.0501 26.741 27.7329 27.012 28.3801C27.1875 28.8048 27.5658 29.1658 28.0006 29.3417C28.1761 29.4071 28.3516 29.4427 28.5232 29.4427C28.6948 29.4427 28.8624 29.4071 29.0184 29.3417C29.814 28.99 29.968 28.0303 29.8432 27.2353L29.8393 27.2278L29.8335 27.2334Z" fill="white"/>
<path d="M28.2095 28.8295C28.4279 28.9081 28.5897 28.9137 28.7711 28.837C29.2722 28.6107 29.3482 27.8792 29.2605 27.3199C29.1786 26.8111 29.0343 26.306 28.8783 25.7897C28.6482 25.0077 28.4084 24.2052 28.4201 23.3391C28.4298 22.6619 28.5917 22.0408 28.7613 21.3842L28.7964 21.2533C28.929 20.7725 29.0752 20.2394 29.1318 19.7137C29.3073 18.1162 28.656 16.4513 27.4334 15.3588C27.1683 15.1212 26.868 14.9005 26.5774 14.6891L26.4702 14.6105C26.0627 14.3224 25.6337 14.0082 25.2652 13.634L25.0175 13.3834L25.1404 13.0597C25.3276 12.5715 25.4251 12.0664 25.4251 11.5613V11.3967C25.2652 11.4266 25.1033 11.4659 24.9434 11.5108L24.2415 11.7129L24.1947 10.9852C24.1869 10.8486 24.1771 10.7102 24.1674 10.583C24.1264 9.9301 24.0777 9.35019 23.873 8.82827C23.6351 8.22779 23.1905 7.704 22.6757 7.12783L22.6679 7.11848C22.0459 6.41323 21.4044 5.6818 21.2543 4.73524L21.2484 4.69408V4.55004L21.2621 4.49579C21.6579 2.67937 20.5406 1.97973 19.8016 1.51768C18.9671 0.99763 17.8342 0.96957 16.9762 1.44659C16.6545 1.62805 16.3581 1.87498 16.0559 2.13687C15.6542 2.48669 15.2837 2.79722 14.8099 3.01235C13.9559 3.39209 12.9985 3.33036 12.0684 3.2705L12.0177 3.26676C10.9394 3.18819 9.92742 3.11336 9.21767 3.72694C8.99928 3.91214 8.82574 4.15907 8.66975 4.37607C8.45916 4.67163 8.24663 4.95598 7.95804 5.1842C7.32433 5.67806 6.51123 5.74353 5.79173 5.79965H5.76833C5.3725 5.83519 4.96498 5.87074 4.59645 5.96614C4.21037 6.06716 3.95884 6.2561 3.63711 6.49741L3.59421 6.52734C3.46747 6.62649 3.33098 6.72563 3.18864 6.82478C2.91175 7.00811 2.65632 7.13531 2.44183 7.24007C2.26049 7.32799 2.04991 7.42901 1.83542 7.56557C1.20756 7.97712 1.15686 8.38305 1.17246 8.65243C1.22121 9.41566 2.09475 10.4464 3.51037 11.4135L3.61761 11.4809C3.93544 11.6904 4.20842 11.8475 4.38391 11.9242L4.40146 11.9317C4.58475 12.0196 4.77194 12.0982 4.97278 12.1824L5.14437 12.2535C5.84437 12.5472 6.42739 12.7997 6.9753 13.1944C7.43548 13.5218 7.8469 13.9427 8.20763 14.3131C8.73995 14.8668 9.22742 15.3457 9.83968 15.6469C10.3622 15.8994 10.9433 16.0004 11.5556 16.1071L11.5868 16.1127C12.2868 16.2287 12.8717 16.3409 13.4353 16.6047C13.8486 16.8011 14.2191 17.063 14.533 17.2893C14.9289 17.5699 15.2642 17.8 15.6503 17.9628C15.9838 18.0993 16.3952 18.2003 16.7929 18.2976L16.9294 18.3313C17.6957 18.5184 18.4874 18.711 19.0451 19.1768L19.0802 19.2049L19.1094 19.2367C19.2595 19.4051 19.4077 19.4986 19.554 19.5136C19.6456 19.521 19.7607 19.4911 19.8933 19.4556L19.9693 19.435C19.9888 19.4313 19.9986 19.4275 20.0103 19.4256C20.0298 19.42 20.0512 19.4163 20.0726 19.4088C20.8818 19.1937 21.7905 19.3302 22.5724 19.7848C23.3484 20.2375 23.8925 20.9521 24.0602 21.7453C24.1537 22.2242 24.1342 22.7143 24.1147 23.1857L24.1108 23.2998C24.066 24.1491 24.0251 24.9479 24.5632 25.4679C24.7621 25.6606 25.117 25.7803 25.3139 25.6475C25.4719 25.539 25.5148 25.322 25.5674 24.9778L25.5733 24.9441C25.5772 24.9179 25.583 24.8936 25.583 24.8693V24.83L25.5869 24.802C25.6337 24.4765 25.8131 24.1491 26.0471 23.9676L26.0666 23.9527C26.2382 23.8311 26.441 23.7843 26.6398 23.8217C26.8894 23.8648 27.1059 24.0312 27.2794 24.3231L27.2892 24.3436C27.6421 24.9909 27.5797 25.741 27.4958 26.3939L27.4861 26.4612C27.4042 27.0748 27.3301 27.6547 27.5485 28.171C27.6655 28.4535 27.919 28.7023 28.2173 28.8239V28.8295H28.2095ZM28.5117 29.9987C28.2738 29.9987 28.0282 29.9519 27.7766 29.8603L27.761 29.8547C27.1741 29.6189 26.6847 29.1419 26.4566 28.5863C26.1309 27.8044 26.2323 27.0168 26.324 26.3209L26.3337 26.2555C26.3337 26.2386 26.3376 26.2255 26.3396 26.2087C26.2479 26.3322 26.1309 26.45 25.9788 26.5548C25.232 27.0636 24.259 26.7793 23.7209 26.2517C22.8239 25.3856 22.8863 24.2052 22.9351 23.2605L22.939 23.152C22.9565 22.7199 22.9741 22.314 22.9039 21.966C22.8005 21.4815 22.4515 21.0307 21.9504 20.737C21.4415 20.4414 20.8662 20.3479 20.3671 20.4826L20.3495 20.4863C20.3359 20.4882 20.3261 20.4919 20.3144 20.4938C20.291 20.4994 20.2676 20.505 20.2423 20.5125L20.1818 20.5293C19.9947 20.578 19.7373 20.6453 19.4331 20.621C19.1172 20.5929 18.6648 20.4583 18.2359 19.9906C17.879 19.7137 17.2434 19.5566 16.6272 19.4069L16.4868 19.3733C16.0461 19.2629 15.5918 19.1525 15.1726 18.9785C14.6344 18.7485 14.184 18.4323 13.8233 18.176C13.4704 17.9197 13.1993 17.7346 12.9127 17.598C12.4876 17.4016 12.0079 17.3099 11.3762 17.2052L11.3391 17.1995C10.6684 17.0836 9.97812 16.9638 9.30151 16.6365C8.51571 16.253 7.92685 15.6749 7.34188 15.067C7.0182 14.734 6.64772 14.3524 6.26945 14.0849C5.81903 13.7612 5.30036 13.533 4.66665 13.2693L4.49506 13.1982C4.29422 13.114 4.08753 13.0279 3.88084 12.9288C3.65466 12.8296 3.36218 12.6632 3.00925 12.4349C2.98195 12.4237 2.9605 12.4106 2.93905 12.3956L2.89811 12.3713L2.58027 12.1693V12.145C1.56049 11.4061 0.0941781 10.1153 0.00448366 8.71416C-0.0325641 8.14174 0.142925 7.31864 1.17636 6.64332C1.4396 6.47683 1.68723 6.35337 1.91537 6.24487C2.1006 6.15508 2.30339 6.05593 2.51398 5.91563C2.63097 5.83706 2.74601 5.75101 2.85131 5.66683L2.9137 5.62007C3.26858 5.3563 3.67026 5.05512 4.28252 4.89237C4.75244 4.77078 5.23211 4.72962 5.65719 4.69408H5.68448C6.29285 4.64357 6.86026 4.59868 7.21124 4.32556C7.37698 4.19274 7.53102 3.9851 7.70066 3.74939C7.88395 3.49311 8.11208 3.17135 8.43576 2.89636C9.51405 1.96851 10.8868 2.06953 12.0957 2.15745H12.1405C12.9224 2.20983 13.7277 2.26033 14.3069 2.00405C14.6305 1.85814 14.9191 1.61308 15.2662 1.3119C15.6172 1.00885 15.9643 0.72077 16.3835 0.483194C17.6158 -0.199602 19.24 -0.162188 20.4295 0.580469C21.2445 1.09116 22.9136 2.13874 22.4145 4.63235C22.5373 5.24219 23.0131 5.78094 23.5571 6.40388C24.1459 7.06236 24.6568 7.66658 24.961 8.4373C25.195 9.03966 25.2691 9.6364 25.3139 10.2874C25.4134 10.2706 25.5167 10.2556 25.6162 10.2444L25.7351 10.235C25.9281 10.2107 26.1231 10.2612 26.2889 10.3791C26.3942 10.4539 26.5287 10.5923 26.5794 10.8355L26.5891 10.8879V11.5613C26.5891 12.0795 26.5092 12.5958 26.3552 13.099C26.6086 13.3216 26.8953 13.5274 27.1702 13.7238L27.2872 13.8099C27.5992 14.04 27.9229 14.2757 28.229 14.5507C29.7129 15.8732 30.5026 17.8973 30.29 19.8278C30.2257 20.4377 30.0658 21.0176 29.9254 21.5283L29.8942 21.6499C29.7402 22.2447 29.5959 22.8022 29.5861 23.3522C29.5783 24.0556 29.7928 24.7814 29.9995 25.4866C30.1633 26.0385 30.3193 26.581 30.4109 27.1534C30.5669 28.1392 30.3466 29.3664 29.2566 29.8472L29.2429 29.8509C29.0089 29.9482 28.7633 29.9987 28.5156 29.9987H28.5176H28.5117Z" fill="white"/>
<path d="M21.6205 4.53124C22.0768 2.57265 20.9517 1.74955 20.0294 1.16777C19.1071 0.58599 17.8378 0.55793 16.8765 1.09481C16.0907 1.53068 15.5271 2.30514 14.7043 2.66431C12.9202 3.45935 10.4575 2.17419 8.9931 3.4238C8.49783 3.84845 8.2463 4.48635 7.72373 4.89228C6.84238 5.57508 5.53206 5.33563 4.43623 5.6312C3.78692 5.80704 3.44764 6.18679 2.92312 6.5366C2.4766 6.84901 2.04178 6.98931 1.55431 7.2961C-0.851843 8.79264 2.80418 11.5182 4.173 12.1468C5.03484 12.5546 5.95714 12.8483 6.72344 13.3926C7.78028 14.1409 8.47833 15.325 9.65216 15.8975C10.7772 16.4418 12.1636 16.3408 13.2984 16.8683C14.094 17.2387 14.7238 17.9028 15.5388 18.2452C16.5762 18.681 18.0795 18.7353 18.9238 19.4555" fill="#FF931E"/>
<path d="M15.7136 7.01631C15.2476 7.62615 14.2395 7.56068 13.1729 7.48772C12.0595 7.41476 10.7862 7.33058 9.98093 7.98532C9.7099 8.20606 9.57341 8.54839 9.42716 8.90943C9.24388 9.35278 9.05864 9.81484 8.61211 10.0936C8.25334 10.305 7.77757 10.2975 7.31155 10.2862C6.55499 10.2675 6.07922 10.2862 5.94273 10.8418C5.81599 11.3694 5.85498 11.7828 6.07922 12.1064C6.53549 12.7705 7.73857 12.9931 8.79345 13.1877C9.6085 13.3354 10.3748 13.4739 10.8291 13.8069C11.1684 14.0575 11.4589 14.3699 11.7397 14.6674C12.0108 14.9536 12.274 15.2304 12.5743 15.4624C13.4849 16.1377 14.6879 16.3959 15.852 16.654H15.8618C17.3651 16.9776 18.6345 18.8072 18.6949 18.8895L18.7047 18.8988C18.9075 19.258 19.1512 19.5816 19.471 19.6116C19.5977 19.6209 19.742 19.5835 19.898 19.5386C19.937 19.5292 19.9741 19.5199 20.015 19.5012C20.8203 19.2898 21.7231 19.417 22.4972 19.8716C23.2713 20.3262 23.8173 21.0277 23.9713 21.804C24.0669 22.3016 24.0474 22.8291 24.0201 23.3473C23.9811 24.2078 23.9323 25.0197 24.4958 25.5566C24.7181 25.7679 25.0984 25.8989 25.3206 25.7418C25.5156 25.6033 25.5644 25.3265 25.6034 25.0215C25.6131 24.9673 25.6229 24.9093 25.6326 24.8457C25.6814 24.5763 25.8276 24.2265 26.1084 24.032C26.2644 23.9309 26.4477 23.8842 26.631 23.9197C26.8747 23.9665 27.097 24.1311 27.253 24.4173C27.6039 25.0459 27.5435 25.7661 27.4558 26.4507L27.446 26.505C27.37 27.1055 27.2822 27.734 27.5045 28.2597C27.6312 28.5553 27.9023 28.8228 28.2123 28.9425C28.3683 28.9967 28.5906 29.0547 28.8226 28.9518C29.3569 28.7311 29.4446 27.9903 29.3452 27.3823C29.2574 26.866 29.1132 26.3479 28.9572 25.839C28.7251 25.0534 28.4814 24.2396 28.5009 23.3997C28.5106 22.6795 28.6959 21.9854 28.8792 21.3214C29.0157 20.8125 29.16 20.2869 29.2184 19.7687C29.4017 18.1524 28.7349 16.4595 27.4909 15.3502C27.1906 15.0808 26.8415 14.8339 26.512 14.6019C25.7945 14.0931 25.0594 13.5674 24.6499 12.7817C24.2911 12.0989 24.2424 11.3507 24.1936 10.6099C24.1546 9.98133 24.1176 9.38084 23.8933 8.83648C23.6418 8.20793 23.1465 7.64486 22.6727 7.10797C22.1092 6.47943 21.5281 5.81347 21.3156 5.00159C18.8899 4.84446 17.3008 4.91741 15.7097 7.01444V7.0107L15.7136 7.01631Z" fill="#FCECD4"/>
<path d="M21.4066 16.2936C21.3481 13.2631 18.2946 10.8499 14.5898 10.9154C14.6386 13.9571 17.6941 16.359 21.4066 16.2936Z" fill="#4DC359"/>
<path d="M22.463 12.6904C23.6076 11.3136 25.4678 11.2294 25.5672 11.3043C25.6745 11.3772 25.9455 13.0234 24.8009 14.4002C23.6563 15.7771 21.5329 16.3682 21.4354 16.2934C21.3399 16.2092 21.3184 14.0654 22.465 12.6886L22.463 12.6904Z" fill="#4DC359"/>
<path d="M11.5048 12.6445C12.5063 12.6445 13.3182 11.8706 13.3182 10.916C13.3182 9.96138 12.5063 9.1875 11.5048 9.1875C10.5033 9.1875 9.69141 9.96138 9.69141 10.916C9.69141 11.8706 10.5033 12.6445 11.5048 12.6445Z" fill="#F34337"/>
<path d="M20.4345 11.0117C21.436 11.0117 22.2479 10.2378 22.2479 9.28319C22.2479 8.32856 21.436 7.55469 20.4345 7.55469C19.433 7.55469 18.6211 8.32856 18.6211 9.28319C18.6211 10.2378 19.433 11.0117 20.4345 11.0117Z" fill="#F34337"/>
<path d="M25.5067 20.1875C26.509 20.1875 27.3201 19.413 27.3201 18.459C27.3201 17.5049 26.507 16.7305 25.5067 16.7305C24.5065 16.7305 23.6934 17.5049 23.6934 18.459C23.6934 19.413 24.5065 20.1875 25.5067 20.1875Z" fill="#F34337"/>
<path d="M105.784 9.57776C105.814 9.5048 105.823 9.43933 105.823 9.38508C105.823 9.3009 105.794 9.22794 105.728 9.17369C105.659 9.10822 105.591 9.08203 105.505 9.08203H105.108C104.991 9.08203 104.905 9.11009 104.844 9.16621C104.757 9.25039 104.737 9.29529 104.727 9.31399L102.04 17.9827L99.18 9.42624C99.1605 9.35328 99.1215 9.27845 99.0435 9.2055C98.9675 9.13254 98.8602 9.09325 98.7042 9.09325H98.2889C98.1329 9.09325 98.0257 9.13067 97.9594 9.2055C97.8833 9.28968 97.8326 9.37199 97.8151 9.43746L94.9449 17.9864L92.2579 9.32709C92.2482 9.29903 92.2287 9.25413 92.1409 9.17931C92.0825 9.12506 91.9967 9.09513 91.8777 9.09513H91.4799C91.3922 9.09513 91.3161 9.12319 91.2577 9.18679C91.1992 9.25039 91.1621 9.31774 91.1621 9.39817C91.1621 9.45242 91.1719 9.5179 91.2011 9.59085L94.1688 18.9255C94.2273 19.0733 94.3053 19.1949 94.3911 19.2679C94.4672 19.3333 94.5939 19.3689 94.7499 19.3689H95.1087C95.2842 19.3689 95.4187 19.3315 95.5162 19.2679C95.6117 19.2024 95.68 19.092 95.7287 18.9349L98.482 10.7301L101.235 18.9349C101.284 19.092 101.362 19.2042 101.457 19.2679C101.565 19.3333 101.69 19.3689 101.855 19.3689H102.214C102.39 19.3689 102.514 19.3315 102.592 19.2679C102.68 19.2024 102.748 19.0827 102.795 18.9255L105.78 9.58337L105.786 9.57963L105.784 9.57776Z" fill="white"/>
<path d="M114.349 14.7394C114.349 15.5999 114.185 16.3201 113.865 16.8832C113.545 17.4575 113.099 17.8821 112.545 18.159C112.003 18.4359 111.391 18.5743 110.722 18.5743C110.276 18.5743 109.841 18.5013 109.414 18.3535C108.987 18.2058 108.628 17.9831 108.347 17.6969C108.064 17.4014 107.92 17.0141 107.92 16.5521C107.92 15.9703 108.23 15.4802 108.85 15.1023C109.453 14.7319 110.344 14.4738 111.508 14.326L114.341 13.9481V14.7431H114.351H114.349V14.7394ZM115.435 12.3C115.435 11.9109 115.367 11.505 115.252 11.0972C115.125 10.7006 114.922 10.3209 114.63 9.99724C114.339 9.66426 113.922 9.39675 113.397 9.1835C112.875 8.97211 112.184 8.87109 111.381 8.87109C110.691 8.87109 110.1 8.96276 109.626 9.14795C109.15 9.33315 108.753 9.55576 108.452 9.82327C108.152 10.0926 107.93 10.3602 107.784 10.637C107.647 10.9064 107.571 11.1271 107.571 11.3011C107.571 11.4021 107.6 11.4863 107.659 11.5593C107.708 11.6247 107.803 11.6509 107.94 11.6509H108.279C108.435 11.6509 108.53 11.578 108.589 11.4115C108.764 10.9494 109.092 10.5715 109.558 10.2853C110.024 9.99911 110.634 9.86068 111.381 9.86068C112.399 9.86068 113.155 10.0721 113.631 10.4967C114.107 10.9214 114.349 11.5144 114.349 12.2439V13.0296L110.925 13.4823C109.704 13.6394 108.706 13.9911 107.947 14.5355C107.201 15.063 106.822 15.7739 106.822 16.6512C106.822 17.1956 106.998 17.6857 107.325 18.1122C107.665 18.5481 108.121 18.8979 108.675 19.1654C109.228 19.4236 109.848 19.5545 110.498 19.5545C111.215 19.5545 111.818 19.4703 112.294 19.3038C112.769 19.1374 113.155 18.9447 113.458 18.7034C113.758 18.4714 113.992 18.2319 114.156 18.0019L114.331 17.7437V19.0008C114.331 19.113 114.361 19.1935 114.427 19.2589C114.493 19.3244 114.583 19.3506 114.698 19.3506H115.057C115.174 19.3506 115.259 19.3225 115.328 19.2589C115.396 19.1953 115.423 19.1112 115.423 19.0008L115.433 12.3H115.435Z" fill="white"/>
<path d="M119.281 5.60372C119.281 5.49148 119.252 5.41104 119.186 5.34557C119.12 5.2801 119.03 5.25391 118.915 5.25391H118.556C118.439 5.25391 118.353 5.28197 118.285 5.34557C118.217 5.41104 118.189 5.49335 118.189 5.60372V19.0034C118.189 19.1156 118.219 19.196 118.285 19.2615C118.351 19.327 118.441 19.3532 118.556 19.3532H118.915C119.032 19.3532 119.118 19.3251 119.186 19.2615C119.254 19.1979 119.281 19.1137 119.281 19.0034V5.60372Z" fill="white"/>
<path d="M123.182 5.60372C123.182 5.49148 123.153 5.41104 123.086 5.34557C123.02 5.2801 122.93 5.25391 122.815 5.25391H122.456C122.339 5.25391 122.254 5.28197 122.185 5.34557C122.117 5.41104 122.09 5.49335 122.09 5.60372V19.0034C122.09 19.1156 122.119 19.196 122.185 19.2615C122.252 19.327 122.341 19.3532 122.456 19.3532H122.815C122.932 19.3532 123.018 19.3251 123.086 19.2615C123.154 19.1979 123.182 19.1137 123.182 19.0034V5.60372Z" fill="white"/>
<path d="M133.52 13.6886H126.606V13.5127C126.606 12.8299 126.742 12.2089 127.003 11.6645C127.274 11.1201 127.662 10.6768 128.177 10.3532C128.692 10.0295 129.322 9.86305 130.039 9.86305C130.757 9.86305 131.389 10.0295 131.911 10.3532C132.434 10.6768 132.833 11.1201 133.105 11.6645C133.376 12.2089 133.512 12.8374 133.512 13.5127V13.6886H133.522H133.52ZM134.616 13.9748C134.616 12.9216 134.432 11.9975 134.062 11.2399C133.693 10.4822 133.169 9.89111 132.502 9.49265C131.833 9.08484 131.008 8.88281 130.039 8.88281C129.146 8.88281 128.362 9.07549 127.713 9.45711C127.064 9.83499 126.549 10.3719 126.18 11.0453C125.812 11.7281 125.578 12.5325 125.512 13.4211C125.502 13.6137 125.492 13.8831 125.492 14.2161C125.492 14.5491 125.502 14.8166 125.512 15.0111C125.619 16.3599 126.075 17.4711 126.861 18.2998C127.635 19.121 128.713 19.5457 130.041 19.5457C130.691 19.5457 131.283 19.4615 131.806 19.2875C132.328 19.1117 132.775 18.8984 133.144 18.6402C133.512 18.3821 133.793 18.1127 133.986 17.8452C134.181 17.5871 134.286 17.3644 134.296 17.198C134.306 17.1063 134.276 17.0408 134.22 16.9866C134.144 16.9323 134.056 16.8949 133.957 16.8949H133.617C133.442 16.8949 133.366 16.9136 133.327 16.9305C133.298 16.9492 133.22 17.0034 133.064 17.2167C132.988 17.3289 132.832 17.4935 132.588 17.7068C132.344 17.92 132.005 18.1221 131.599 18.2979C131.192 18.4738 130.669 18.5673 130.047 18.5673C129.349 18.5673 128.747 18.3914 128.234 18.0304C127.731 17.6787 127.331 17.2167 127.06 16.6629C126.789 16.1074 126.633 15.5181 126.604 14.9083V14.6127H134.218C134.335 14.6127 134.43 14.5846 134.499 14.521C134.567 14.4556 134.606 14.3732 134.606 14.2704V13.9748H134.616Z" fill="white"/>
<path d="M141.997 18.7265C141.997 18.6143 141.968 18.5338 141.901 18.4683C141.835 18.4029 141.745 18.3767 141.63 18.3767H140.486C139.817 18.3767 139.341 18.1541 139.08 17.7294C138.828 17.3141 138.702 16.7417 138.702 16.0103V10.0597H141.416C141.533 10.0597 141.619 10.0316 141.687 9.96801C141.755 9.9044 141.783 9.82022 141.783 9.70985V9.42364C141.783 9.3114 141.753 9.23096 141.687 9.16549C141.621 9.10001 141.531 9.07382 141.416 9.07382H138.702V5.60372C138.702 5.49148 138.672 5.41104 138.606 5.34557C138.54 5.2801 138.45 5.25391 138.335 5.25391H137.976C137.859 5.25391 137.774 5.28197 137.705 5.34557C137.637 5.41104 137.61 5.49335 137.61 5.60372V9.07756H135.865C135.748 9.07756 135.662 9.10562 135.594 9.16923C135.525 9.23283 135.498 9.31701 135.498 9.42738V9.71359C135.498 9.82583 135.527 9.90627 135.594 9.97175C135.66 10.0372 135.75 10.0634 135.865 10.0634H137.61V16.0889C137.61 16.708 137.698 17.273 137.861 17.7706C138.025 18.2607 138.308 18.6498 138.715 18.9341C139.123 19.2204 139.684 19.3588 140.392 19.3588H141.634C141.751 19.3588 141.837 19.3307 141.905 19.2671C141.974 19.2035 142.001 19.1193 142.001 19.009V18.7228L141.997 18.7265Z" fill="white"/>
<path d="M45.0401 11.3137C44.6891 11.5999 44.2153 11.7496 43.6245 11.7496H41.2105V8.22898H43.6245C44.3147 8.22898 44.8061 8.39547 45.1083 8.73781C45.4086 9.08014 45.5646 9.4973 45.5646 9.9949C45.5646 10.586 45.3891 11.0294 45.042 11.3175H45.0401V11.3137ZM46.7072 5.98979C45.8649 5.65681 44.8646 5.49219 43.7219 5.49219H37.9425C37.7865 5.49219 37.6715 5.53895 37.574 5.63062C37.4765 5.72228 37.4297 5.842 37.4297 5.9823V18.7721C37.4297 19.1051 37.7202 19.3819 38.0692 19.3819C38.4183 19.3819 38.7088 19.1051 38.7088 18.7721C38.7088 19.1051 38.9993 19.3819 39.3484 19.3819C39.6974 19.3819 39.9879 19.1051 39.9879 18.7721C39.9879 19.1051 40.2785 19.3819 40.6275 19.3819C40.9765 19.3819 41.267 19.1051 41.267 18.7721V14.4714H43.7297C44.8743 14.4714 45.8649 14.3143 46.715 14C47.5691 13.6857 48.2184 13.1975 48.7019 12.539C49.1777 11.8824 49.4195 11.0518 49.4195 10.0361C49.4195 9.02028 49.1563 8.16164 48.6824 7.49568C48.2067 6.83159 47.5476 6.32277 46.7033 5.98792L46.7072 5.98979Z" fill="white"/>
<path d="M83.9239 14.8072C83.9239 15.3348 83.8283 15.7688 83.6431 16.1186C83.4598 16.4703 83.2083 16.7191 82.8768 16.8856C82.557 17.0521 82.1865 17.1362 81.7907 17.1362C81.5197 17.1362 81.2681 17.0895 81.0439 17.0053C80.8197 16.9211 80.6461 16.8014 80.5096 16.6461C80.3731 16.489 80.3068 16.2944 80.3068 16.0718C80.3068 15.7856 80.4511 15.5275 80.7534 15.3123C81.0439 15.1009 81.5197 14.9344 82.169 14.8316L83.9239 14.536V14.8054H83.9258L83.9239 14.8072ZM87.4551 16.8968V12.7009C87.4551 12.1266 87.3596 11.5916 87.1646 11.1127C86.9696 10.6319 86.681 10.2166 86.291 9.86679C85.903 9.51698 85.3882 9.23825 84.7506 9.04557C84.1208 8.85289 83.3545 8.75 82.4517 8.75C81.5489 8.75 80.8704 8.85102 80.26 9.04557C79.6575 9.23825 79.1545 9.48892 78.7762 9.79384C78.3882 10.0988 78.1074 10.4037 77.9221 10.7086C77.6219 11.1894 77.6414 11.6795 77.6414 11.9545C77.6414 12.2295 77.8851 12.4633 78.1756 12.4633C78.4662 12.4633 78.7099 12.2313 78.7099 11.9545C78.7099 12.2407 78.9536 12.4633 79.2442 12.4633C79.5347 12.4633 79.7784 12.2313 79.7784 11.9545C79.7784 12.2407 80.0222 12.4633 80.3127 12.4633C80.6032 12.4633 80.7885 12.2313 80.847 11.9545C80.964 11.3727 81.1979 10.8639 82.4283 10.8919C82.9821 10.9013 83.3584 11.0116 83.5631 11.2698C83.7659 11.5205 83.8732 11.8796 83.8732 12.351V12.6279L81.2935 13.0058C79.9734 13.1985 78.9068 13.5689 78.1132 14.1151C77.3196 14.6595 76.9121 15.4002 76.9121 16.3318C76.9121 16.9061 77.0876 17.4318 77.4269 17.8845C77.7662 18.3466 78.2322 18.7057 78.823 18.9751C79.406 19.2445 80.0729 19.3829 80.8216 19.3829C81.3559 19.3829 81.8317 19.3174 82.2372 19.1977C82.6448 19.0668 82.9938 18.9021 83.3038 18.7001C83.6041 18.4887 83.8459 18.2568 84.0311 18.0061V18.8479C84.0311 19.1528 84.2827 19.3923 84.6024 19.3923C84.9222 19.3923 85.1737 19.1528 85.1737 18.8479C85.1737 19.1528 85.4253 19.3923 85.7451 19.3923C86.0648 19.3923 86.3164 19.1528 86.3164 18.8479C86.3164 19.1528 86.5679 19.3923 86.8877 19.3923C87.2075 19.3923 87.459 19.1528 87.459 18.8479V16.8968H87.4571H87.4551Z" fill="white"/>
<path d="M53.417 9.03312C53.0972 9.03312 52.834 9.28379 52.834 9.58871C52.834 9.28379 52.5708 9.03312 52.251 9.03312C51.9312 9.03312 51.668 9.28379 51.668 9.58871C51.668 9.28379 51.4047 9.03312 51.085 9.03312C50.7652 9.03312 50.502 9.28379 50.502 9.58871V18.8317C50.502 19.1366 50.7652 19.3873 51.085 19.3873C51.4047 19.3873 51.668 19.1366 51.668 18.8317C51.668 19.1366 51.9312 19.3873 52.251 19.3873C52.5708 19.3873 52.834 19.1366 52.834 18.8317C52.834 19.1366 53.0972 19.3873 53.417 19.3873C53.7368 19.3873 54 19.1366 54 18.8317V9.58684C53.9903 9.28192 53.729 9.03125 53.417 9.03125V9.03312Z" fill="white"/>
<path d="M65.4244 17.2651C65.4244 17.0332 65.2294 16.8405 64.9778 16.8405H59.7112L64.4241 11.8963C64.5001 11.8046 64.5801 11.7111 64.6269 11.6194C64.6853 11.5278 64.7029 11.4268 64.7029 11.307V9.63465C64.7029 9.48686 64.6541 9.37649 64.5469 9.28296C64.4397 9.18943 64.3246 9.14453 64.1881 9.14453H55.6925C55.4488 9.14453 55.246 9.33721 55.246 9.56917C55.246 9.80114 55.441 9.99382 55.6925 9.99382C55.4488 9.99382 55.246 10.1865 55.246 10.4185C55.246 10.6504 55.441 10.8431 55.6925 10.8431C55.4488 10.8431 55.246 11.0358 55.246 11.2677C55.246 11.4997 55.441 11.6924 55.6925 11.6924H60.3469L55.517 16.6927C55.4215 16.7844 55.3415 16.8854 55.2733 16.9883C55.2148 17.0893 55.1777 17.2202 55.1777 17.3661V18.9001C55.1777 19.0479 55.2265 19.1583 55.3337 19.2518C55.441 19.3453 55.556 19.3902 55.6925 19.3902H64.9622C65.206 19.3902 65.4088 19.1975 65.4088 18.9656C65.4088 18.7336 65.2138 18.5409 64.9622 18.5409C65.206 18.5409 65.4088 18.3482 65.4088 18.1163C65.4088 17.8843 65.2138 17.6916 64.9622 17.6916C65.2255 17.6916 65.4185 17.499 65.4185 17.267H65.4205L65.4244 17.2651Z" fill="white"/>
<path d="M76.5083 17.2651C76.5083 17.0332 76.3133 16.8405 76.0618 16.8405H70.7952L75.508 11.8963C75.5841 11.8046 75.664 11.7111 75.7108 11.6194C75.7693 11.5278 75.7869 11.4268 75.7869 11.307V9.63465C75.7869 9.48686 75.7381 9.37649 75.6309 9.28296C75.5236 9.18943 75.4086 9.14453 75.2721 9.14453H66.7765C66.5327 9.14453 66.33 9.33721 66.33 9.56917C66.33 9.80114 66.5249 9.99382 66.7765 9.99382C66.5327 9.99382 66.33 10.1865 66.33 10.4185C66.33 10.6504 66.5249 10.8431 66.7765 10.8431C66.5327 10.8431 66.33 11.0358 66.33 11.2677C66.33 11.4997 66.5249 11.6924 66.7765 11.6924H71.4308L66.601 16.6927C66.5055 16.7844 66.4255 16.8854 66.3573 16.9883C66.2988 17.0893 66.2617 17.2202 66.2617 17.3661V18.9001C66.2617 19.0479 66.3105 19.1583 66.4177 19.2518C66.525 19.3453 66.64 19.3902 66.7765 19.3902H76.0462C76.2899 19.3902 76.4927 19.1975 76.4927 18.9656C76.4927 18.7336 76.2977 18.5409 76.0462 18.5409C76.2899 18.5409 76.4927 18.3482 76.4927 18.1163C76.4927 17.8843 76.2977 17.6916 76.0462 17.6916C76.2977 17.6916 76.5025 17.499 76.5025 17.267H76.5044L76.5083 17.2651Z" fill="white"/>
<path d="M5.11442 11.1742C4.76344 11.4248 4.01859 11.6456 3.58181 11.3949C3.18404 11.1255 2.79601 10.8318 2.46843 10.5344C1.92636 10.0443 1.2751 9.31471 1.22636 8.64875C1.20686 8.30642 1.3531 8.0202 1.67288 7.76953C2.93445 7.50016 4.17458 8.17734 4.85313 8.83208C5.12417 9.10145 5.46345 9.5261 5.54339 10.0424C5.61164 10.4858 5.44785 10.9291 5.11637 11.1685V11.1723L5.11442 11.1742ZM14.8229 3.07975C15.3181 2.85714 15.7042 2.52416 16.0922 2.19306C16.3925 1.9349 16.6831 1.68423 17.0028 1.51026C17.8374 1.0482 18.943 1.07439 19.7561 1.57573C20.6667 2.15003 21.5305 2.83283 21.2087 4.43973C18.8708 4.3013 17.0789 4.38548 15.3415 6.67519C15.0705 7.03436 14.2652 6.98011 13.3351 6.92586C12.1145 6.84168 10.7359 6.75002 9.75708 7.56189C9.37881 7.86681 9.21502 8.29145 9.04928 8.70674C8.89328 9.08462 8.74899 9.44566 8.46626 9.6215C8.26347 9.74122 7.87545 9.74122 7.50497 9.73374C7.1072 9.72439 6.62362 9.71504 6.2356 9.89088C6.14005 9.36335 5.84757 8.83769 5.36205 8.37563C5.09102 8.12496 4.18043 7.31309 2.87986 7.09983C3.0066 7.02688 3.11189 6.9614 3.21913 6.89593C3.37513 6.79491 3.50967 6.69203 3.62666 6.60036C3.93669 6.36092 4.20967 6.15701 4.6055 6.04477C4.97403 5.94376 5.3796 5.90634 5.78713 5.87828C6.55343 5.81281 7.34703 5.74734 7.97879 5.24974C8.28882 5.01029 8.50136 4.71285 8.7061 4.42851C8.88159 4.18906 9.03563 3.96645 9.24036 3.79248C9.93062 3.2107 10.929 3.27618 11.9858 3.34913C12.9549 3.41461 13.9454 3.47821 14.819 3.07975H14.8229ZM22.1525 15.6844C22.289 15.5179 22.4235 15.3514 22.56 15.1868C23.0163 14.6312 23.4823 14.0494 24.0244 13.5331C24.0926 13.4676 24.1004 13.3666 24.0439 13.2936C23.9951 13.2207 23.8879 13.1926 23.8001 13.2207C23.0728 13.5069 22.3748 14.1616 21.9087 14.9941C22.131 13.4788 23.1781 12.2217 24.6912 11.6661C24.9232 11.582 25.1572 11.5184 25.3893 11.4622C25.477 13.4321 24.1199 15.1755 22.1505 15.6844H22.1525ZM16.8 12.985C16.7708 13.0766 16.8195 13.1608 16.9073 13.2076C17.0145 13.2544 17.1101 13.2992 17.2173 13.346C17.4396 13.4377 17.6521 13.5312 17.8569 13.6322C18.6427 13.9914 19.3602 14.4927 20.1168 15.2129C20.2923 15.3794 20.4756 15.5646 20.6316 15.7218L20.7271 15.8228C19.2335 15.7386 17.8276 15.2223 16.7513 14.3805C15.6652 13.5312 15.0159 12.4294 14.8599 11.2191C14.8599 11.191 14.8697 11.1536 14.8892 11.1349C14.9087 11.1162 14.9379 11.1068 14.9652 11.1068H14.975C16.5076 11.1723 17.9602 11.6886 19.0658 12.5566C19.9959 13.2862 20.6257 14.2477 20.8792 15.2747C19.9862 13.9446 18.592 13.0766 17.0087 12.8727C16.9131 12.8353 16.8254 12.8914 16.7961 12.985H16.8ZM5.51219 11.7204C5.55119 11.9711 5.64869 12.1918 5.77543 12.3845C5.80468 12.4219 5.83392 12.4687 5.86317 12.5042C5.63114 12.392 5.3874 12.2928 5.15537 12.1918C5.03837 12.145 4.92333 12.0908 4.80439 12.044C5.07542 11.9598 5.31916 11.8513 5.51219 11.7204ZM8.83674 13.6977C9.57379 13.8361 10.2718 13.9559 10.6111 14.214C10.9114 14.4366 11.1649 14.7116 11.4359 14.9997C11.707 15.2953 11.9994 15.6002 12.3387 15.8602C13.3488 16.6085 14.6084 16.8853 15.831 17.1454C16.5583 17.3025 17.2661 17.9404 17.7613 18.4866C17.4611 18.395 17.151 18.3201 16.8878 18.2547L16.839 18.2453C16.412 18.1443 16.0045 18.0414 15.6652 17.903C15.2772 17.7458 14.9282 17.4952 14.5596 17.237C14.2204 16.9976 13.8616 16.7394 13.4541 16.5542C12.8515 16.2774 12.212 16.1651 11.5822 16.0566C10.9602 15.9444 10.3693 15.8452 9.84678 15.5946C9.22476 15.2896 8.74119 14.7995 8.22643 14.2645C7.92614 13.9521 7.61611 13.6285 7.26513 13.3498C7.7682 13.5069 8.31222 13.6079 8.83674 13.7014H8.83869L8.83674 13.6977ZM27.5439 26.4482L27.5536 26.394C27.6414 25.6925 27.6979 24.9629 27.3411 24.3044C27.1656 23.992 26.9258 23.7956 26.643 23.7488C26.4305 23.7133 26.216 23.7582 26.0405 23.8873C25.7305 24.0986 25.5648 24.4784 25.518 24.774C25.5082 24.8282 25.4985 24.8862 25.4887 24.9498C25.4497 25.2267 25.4127 25.4867 25.2567 25.5971C25.0929 25.7093 24.7731 25.5971 24.5976 25.4212C24.0751 24.9236 24.1218 24.1361 24.1628 23.3055C24.192 22.7892 24.2213 22.2523 24.114 21.7435C23.9503 20.941 23.3965 20.2095 22.6009 19.7381C21.8054 19.2667 20.8655 19.1283 20.0407 19.349C20.0018 19.3584 19.9647 19.3677 19.9238 19.3864H19.914C19.7775 19.4238 19.6508 19.4594 19.5455 19.4519C19.2744 19.4332 19.0697 19.1283 18.8767 18.7953L18.8669 18.7766C18.8084 18.6924 17.5293 16.8367 15.9772 16.4944C14.8424 16.2437 13.6588 15.9968 12.7774 15.3308C12.4869 15.1082 12.2237 14.8407 11.9624 14.5545C11.6816 14.2589 11.3911 13.9446 11.0401 13.6865C10.5741 13.3348 9.79803 13.1964 8.97323 13.0504C7.94369 12.8653 6.79131 12.6539 6.36429 12.0253C6.1615 11.7298 6.12056 11.3425 6.2473 10.8524C6.35454 10.4371 6.63532 10.3716 7.48937 10.3903C7.96514 10.3997 8.45846 10.4091 8.83869 10.179C9.32226 9.8834 9.5075 9.40263 9.69274 8.94058C9.82923 8.58889 9.96377 8.26526 10.2075 8.06136C10.9641 7.43281 12.1944 7.51699 13.2805 7.58995C14.3666 7.66291 15.4039 7.72838 15.8992 7.07364C17.4396 5.03087 18.9644 4.96726 21.2711 5.11505C21.5032 5.91008 22.0764 6.55734 22.6204 7.18588C23.0865 7.71341 23.57 8.26713 23.8021 8.87697C24.0146 9.41386 24.0536 9.99564 24.0828 10.6148V10.6242C24.0926 10.8094 24.1121 11.0021 24.1316 11.1985C22.755 11.8083 21.7059 12.9999 21.3296 14.4142C20.9708 13.5181 20.341 12.7044 19.5065 12.0478C18.1494 10.9759 16.3535 10.4016 14.4738 10.439C14.3861 10.439 14.2906 10.4745 14.2301 10.54C14.1619 10.6055 14.1346 10.6878 14.1346 10.7794C14.1638 12.3489 14.9399 13.8212 16.3165 14.9005C17.6365 15.935 19.3622 16.5093 21.1931 16.5093C21.2419 16.5093 21.4447 16.5 21.4837 16.4906C23.2191 16.2979 24.6639 15.299 25.4419 13.911C25.7519 14.1878 26.101 14.4385 26.4403 14.6779C26.7698 14.9174 27.1091 15.1587 27.4015 15.4169C28.6144 16.4981 29.2539 18.1518 29.0784 19.7231C29.0199 20.232 28.8835 20.7483 28.7392 21.2571C28.5559 21.9324 28.3706 22.6339 28.3609 23.3541C28.3511 24.2053 28.5929 25.0265 28.8269 25.8215C28.9712 26.3191 29.1272 26.8392 29.2052 27.3461C29.2929 27.9092 29.2247 28.592 28.7587 28.7884C28.5637 28.8726 28.3706 28.8258 28.2439 28.7791C27.9612 28.6668 27.7291 28.4367 27.6141 28.1692C27.3918 27.6417 27.4776 27.0431 27.5458 26.4501L27.5439 26.4482ZM29.484 25.6289C29.252 24.8525 29.0375 24.1136 29.0492 23.3541C29.0589 22.7069 29.2247 22.0783 29.408 21.403C29.5523 20.8755 29.6985 20.3405 29.7589 19.7755C29.9539 18.0021 29.2364 16.1427 27.8676 14.9136C27.5478 14.6274 27.189 14.3693 26.8497 14.128C26.4422 13.8417 26.0639 13.5649 25.7441 13.2413C25.9391 12.7137 26.0542 12.1507 26.0542 11.5689V10.9497C26.0444 10.8954 26.0152 10.8374 25.9664 10.8019C25.9177 10.7645 25.8592 10.7476 25.7909 10.7551L25.674 10.7645C25.3834 10.8019 25.0909 10.8561 24.8121 10.931C24.8024 10.8 24.7926 10.6728 24.7829 10.5531C24.7439 9.91707 24.6951 9.24924 24.4533 8.62069C24.1725 7.90048 23.648 7.30935 23.145 6.73505C22.5541 6.05974 21.9906 5.42371 21.8756 4.64551V4.6081C22.3514 2.39135 20.9143 1.49342 20.1402 1.00331C19.1107 0.37476 17.7145 0.337346 16.6597 0.93035C16.2716 1.14174 15.9519 1.42795 15.6301 1.69733C15.2713 2.00225 14.9321 2.29781 14.5343 2.47366C13.8167 2.78606 12.9256 2.73181 12.0521 2.66634C10.8978 2.58216 9.69468 2.49985 8.79189 3.27618C8.52866 3.50814 8.33562 3.77377 8.14258 4.03567C7.95929 4.29382 7.7838 4.54449 7.55177 4.71846C7.076 5.08886 6.42669 5.14311 5.72863 5.19923C5.29381 5.23664 4.84728 5.27218 4.42026 5.39191C3.88599 5.53969 3.54671 5.78849 3.19964 6.06722C3.08264 6.15888 2.9559 6.25242 2.82136 6.34408C2.60882 6.49186 2.38654 6.59475 2.15255 6.71447C1.94001 6.81549 1.71773 6.92586 1.48374 7.07364C0.824682 7.48893 0.504902 8.02582 0.54195 8.67307C0.571198 9.12577 0.881229 10.3455 3.11189 11.8607V11.8701L3.20744 11.9355C3.22693 11.9449 3.23668 11.9542 3.25618 11.9636C3.56621 12.1675 3.88599 12.3527 4.11023 12.4537C4.36176 12.5659 4.6133 12.6763 4.87653 12.7867C5.49854 13.0448 6.07766 13.2955 6.58463 13.6547C6.99995 13.9502 7.37043 14.33 7.72921 14.6985C8.26347 15.2429 8.80554 15.8078 9.53285 16.1595C10.1432 16.4551 10.8139 16.5748 11.4632 16.687C12.0657 16.7881 12.6371 16.8909 13.1518 17.1304C13.5028 17.2875 13.8109 17.5195 14.1502 17.7496C14.5284 18.019 14.9243 18.3052 15.3922 18.4885C15.7998 18.655 16.2658 18.7747 16.7201 18.8776C17.4377 19.0534 18.1728 19.2293 18.6193 19.6072C18.8708 19.9027 19.1731 20.0692 19.4928 20.0879C19.7366 20.1066 19.9491 20.0412 20.1324 19.9869C20.1714 19.9776 20.2006 19.9682 20.2396 19.9588C20.8792 19.783 21.6085 19.9046 22.2461 20.2712C22.8856 20.6416 23.3126 21.2122 23.4394 21.8333C23.5271 22.2691 23.4979 22.7667 23.4784 23.2381C23.4296 24.1716 23.3828 25.1425 24.1179 25.8533C24.506 26.2237 25.1845 26.4351 25.6779 26.0928C26.0756 25.8234 26.1341 25.3913 26.1926 25.0022C26.2024 24.9479 26.2121 24.8899 26.2121 24.845C26.2414 24.6599 26.3486 24.4672 26.4559 24.3923C26.4948 24.3643 26.5143 24.3643 26.5319 24.3736C26.5806 24.383 26.6586 24.4391 26.7347 24.585C27.0057 25.0658 26.9472 25.6943 26.8712 26.2855L26.8614 26.3397C26.7737 27.0057 26.6859 27.6978 26.957 28.3638C27.1403 28.7997 27.5283 29.1775 27.9748 29.344C28.1581 29.417 28.3433 29.445 28.5169 29.445C28.6904 29.445 28.8679 29.4076 29.0316 29.344C29.8564 28.9923 30.0105 28.0046 29.8857 27.2002C29.7979 26.6727 29.642 26.1377 29.4879 25.6195H29.484V25.6289Z" fill="#3E389F"/>
<path d="M5.11442 11.1742C4.76344 11.4248 4.01859 11.6456 3.58181 11.3949C3.18404 11.1255 2.79601 10.8318 2.46843 10.5344C1.92636 10.0443 1.2751 9.31471 1.22636 8.64875C1.20686 8.30642 1.3531 8.0202 1.67288 7.76953C2.93445 7.50016 4.17458 8.17734 4.85313 8.83208C5.12417 9.10145 5.46345 9.5261 5.54339 10.0424C5.61164 10.4858 5.44785 10.9291 5.11637 11.1685V11.1723L5.11442 11.1742ZM14.8229 3.07975C15.3181 2.85714 15.7042 2.52416 16.0922 2.19306C16.3925 1.9349 16.6831 1.68423 17.0028 1.51026C17.8374 1.0482 18.943 1.07439 19.7561 1.57573C20.6667 2.15003 21.5305 2.83283 21.2087 4.43973C18.8708 4.3013 17.0789 4.38548 15.3415 6.67519C15.0705 7.03436 14.2652 6.98011 13.3351 6.92586C12.1145 6.84168 10.7359 6.75002 9.75708 7.56189C9.37881 7.86681 9.21502 8.29145 9.04928 8.70674C8.89328 9.08462 8.74899 9.44566 8.46626 9.6215C8.26347 9.74122 7.87545 9.74122 7.50497 9.73374C7.1072 9.72439 6.62362 9.71504 6.2356 9.89088C6.14005 9.36335 5.84757 8.83769 5.36205 8.37563C5.09102 8.12496 4.18043 7.31309 2.87986 7.09983C3.0066 7.02688 3.11189 6.9614 3.21913 6.89593C3.37513 6.79491 3.50967 6.69203 3.62666 6.60036C3.93669 6.36092 4.20967 6.15701 4.6055 6.04477C4.97403 5.94376 5.3796 5.90634 5.78713 5.87828C6.55343 5.81281 7.34703 5.74734 7.97879 5.24974C8.28882 5.01029 8.50136 4.71285 8.7061 4.42851C8.88159 4.18906 9.03563 3.96645 9.24036 3.79248C9.93062 3.2107 10.929 3.27618 11.9858 3.34913C12.9549 3.41461 13.9454 3.47821 14.819 3.07975H14.8229ZM22.1525 15.6844C22.289 15.5179 22.4235 15.3514 22.56 15.1868C23.0163 14.6312 23.4823 14.0494 24.0244 13.5331C24.0926 13.4676 24.1004 13.3666 24.0439 13.2936C23.9951 13.2207 23.8879 13.1926 23.8001 13.2207C23.0728 13.5069 22.3748 14.1616 21.9087 14.9941C22.131 13.4788 23.1781 12.2217 24.6912 11.6661C24.9232 11.582 25.1572 11.5184 25.3893 11.4622C25.477 13.4321 24.1199 15.1755 22.1505 15.6844H22.1525ZM16.8 12.985C16.7708 13.0766 16.8195 13.1608 16.9073 13.2076C17.0145 13.2544 17.1101 13.2992 17.2173 13.346C17.4396 13.4377 17.6521 13.5312 17.8569 13.6322C18.6427 13.9914 19.3602 14.4927 20.1168 15.2129C20.2923 15.3794 20.4756 15.5646 20.6316 15.7218L20.7271 15.8228C19.2335 15.7386 17.8276 15.2223 16.7513 14.3805C15.6652 13.5312 15.0159 12.4294 14.8599 11.2191C14.8599 11.191 14.8697 11.1536 14.8892 11.1349C14.9087 11.1162 14.9379 11.1068 14.9652 11.1068H14.975C16.5076 11.1723 17.9602 11.6886 19.0658 12.5566C19.9959 13.2862 20.6257 14.2477 20.8792 15.2747C19.9862 13.9446 18.592 13.0766 17.0087 12.8727C16.9131 12.8353 16.8254 12.8914 16.7961 12.985H16.8ZM5.51219 11.7204C5.55119 11.9711 5.64869 12.1918 5.77543 12.3845C5.80468 12.4219 5.83392 12.4687 5.86317 12.5042C5.63114 12.392 5.3874 12.2928 5.15537 12.1918C5.03837 12.145 4.92333 12.0908 4.80439 12.044C5.07542 11.9598 5.31916 11.8513 5.51219 11.7204ZM8.83674 13.6977C9.57379 13.8361 10.2718 13.9559 10.6111 14.214C10.9114 14.4366 11.1649 14.7116 11.4359 14.9997C11.707 15.2953 11.9994 15.6002 12.3387 15.8602C13.3488 16.6085 14.6084 16.8853 15.831 17.1454C16.5583 17.3025 17.2661 17.9404 17.7613 18.4866C17.4611 18.395 17.151 18.3201 16.8878 18.2547L16.839 18.2453C16.412 18.1443 16.0045 18.0414 15.6652 17.903C15.2772 17.7458 14.9282 17.4952 14.5596 17.237C14.2204 16.9976 13.8616 16.7394 13.4541 16.5542C12.8515 16.2774 12.212 16.1651 11.5822 16.0566C10.9602 15.9444 10.3693 15.8452 9.84678 15.5946C9.22476 15.2896 8.74119 14.7995 8.22643 14.2645C7.92614 13.9521 7.61611 13.6285 7.26513 13.3498C7.7682 13.5069 8.31222 13.6079 8.83674 13.7014H8.83869L8.83674 13.6977ZM27.5439 26.4482L27.5536 26.394C27.6414 25.6925 27.6979 24.9629 27.3411 24.3044C27.1656 23.992 26.9258 23.7956 26.643 23.7488C26.4305 23.7133 26.216 23.7582 26.0405 23.8873C25.7305 24.0986 25.5648 24.4784 25.518 24.774C25.5082 24.8282 25.4985 24.8862 25.4887 24.9498C25.4497 25.2267 25.4127 25.4867 25.2567 25.5971C25.0929 25.7093 24.7731 25.5971 24.5976 25.4212C24.0751 24.9236 24.1218 24.1361 24.1628 23.3055C24.192 22.7892 24.2213 22.2523 24.114 21.7435C23.9503 20.941 23.3965 20.2095 22.6009 19.7381C21.8054 19.2667 20.8655 19.1283 20.0407 19.349C20.0018 19.3584 19.9647 19.3677 19.9238 19.3864H19.914C19.7775 19.4238 19.6508 19.4594 19.5455 19.4519C19.2744 19.4332 19.0697 19.1283 18.8767 18.7953L18.8669 18.7766C18.8084 18.6924 17.5293 16.8367 15.9772 16.4944C14.8424 16.2437 13.6588 15.9968 12.7774 15.3308C12.4869 15.1082 12.2237 14.8407 11.9624 14.5545C11.6816 14.2589 11.3911 13.9446 11.0401 13.6865C10.5741 13.3348 9.79803 13.1964 8.97323 13.0504C7.94369 12.8653 6.79131 12.6539 6.36429 12.0253C6.1615 11.7298 6.12056 11.3425 6.2473 10.8524C6.35454 10.4371 6.63532 10.3716 7.48937 10.3903C7.96514 10.3997 8.45846 10.4091 8.83869 10.179C9.32226 9.8834 9.5075 9.40263 9.69274 8.94058C9.82923 8.58889 9.96377 8.26526 10.2075 8.06136C10.9641 7.43281 12.1944 7.51699 13.2805 7.58995C14.3666 7.66291 15.4039 7.72838 15.8992 7.07364C17.4396 5.03087 18.9644 4.96726 21.2711 5.11505C21.5032 5.91008 22.0764 6.55734 22.6204 7.18588C23.0865 7.71341 23.57 8.26713 23.8021 8.87697C24.0146 9.41386 24.0536 9.99564 24.0828 10.6148V10.6242C24.0926 10.8094 24.1121 11.0021 24.1316 11.1985C22.755 11.8083 21.7059 12.9999 21.3296 14.4142C20.9708 13.5181 20.341 12.7044 19.5065 12.0478C18.1494 10.9759 16.3535 10.4016 14.4738 10.439C14.3861 10.439 14.2906 10.4745 14.2301 10.54C14.1619 10.6055 14.1346 10.6878 14.1346 10.7794C14.1638 12.3489 14.9399 13.8212 16.3165 14.9005C17.6365 15.935 19.3622 16.5093 21.1931 16.5093C21.2419 16.5093 21.4447 16.5 21.4837 16.4906C23.2191 16.2979 24.6639 15.299 25.4419 13.911C25.7519 14.1878 26.101 14.4385 26.4403 14.6779C26.7698 14.9174 27.1091 15.1587 27.4015 15.4169C28.6144 16.4981 29.2539 18.1518 29.0784 19.7231C29.0199 20.232 28.8835 20.7483 28.7392 21.2571C28.5559 21.9324 28.3706 22.6339 28.3609 23.3541C28.3511 24.2053 28.5929 25.0265 28.8269 25.8215C28.9712 26.3191 29.1272 26.8392 29.2052 27.3461C29.2929 27.9092 29.2247 28.592 28.7587 28.7884C28.5637 28.8726 28.3706 28.8258 28.2439 28.7791C27.9612 28.6668 27.7291 28.4367 27.6141 28.1692C27.3918 27.6417 27.4776 27.0431 27.5458 26.4501L27.5439 26.4482ZM29.484 25.6289C29.252 24.8525 29.0375 24.1136 29.0492 23.3541C29.0589 22.7069 29.2247 22.0783 29.408 21.403C29.5523 20.8755 29.6985 20.3405 29.7589 19.7755C29.9539 18.0021 29.2364 16.1427 27.8676 14.9136C27.5478 14.6274 27.189 14.3693 26.8497 14.128C26.4422 13.8417 26.0639 13.5649 25.7441 13.2413C25.9391 12.7137 26.0542 12.1507 26.0542 11.5689V10.9497C26.0444 10.8954 26.0152 10.8374 25.9664 10.8019C25.9177 10.7645 25.8592 10.7476 25.7909 10.7551L25.674 10.7645C25.3834 10.8019 25.0909 10.8561 24.8121 10.931C24.8024 10.8 24.7926 10.6728 24.7829 10.5531C24.7439 9.91707 24.6951 9.24924 24.4533 8.62069C24.1725 7.90048 23.648 7.30935 23.145 6.73505C22.5541 6.05974 21.9906 5.42371 21.8756 4.64551V4.6081C22.3514 2.39135 20.9143 1.49342 20.1402 1.00331C19.1107 0.37476 17.7145 0.337346 16.6597 0.93035C16.2716 1.14174 15.9519 1.42795 15.6301 1.69733C15.2713 2.00225 14.9321 2.29781 14.5343 2.47366C13.8167 2.78606 12.9256 2.73181 12.0521 2.66634C10.8978 2.58216 9.69468 2.49985 8.79189 3.27618C8.52866 3.50814 8.33562 3.77377 8.14258 4.03567C7.95929 4.29382 7.7838 4.54449 7.55177 4.71846C7.076 5.08886 6.42669 5.14311 5.72863 5.19923C5.29381 5.23664 4.84728 5.27218 4.42026 5.39191C3.88599 5.53969 3.54671 5.78849 3.19964 6.06722C3.08264 6.15888 2.9559 6.25242 2.82136 6.34408C2.60882 6.49186 2.38654 6.59475 2.15255 6.71447C1.94001 6.81549 1.71773 6.92586 1.48374 7.07364C0.824682 7.48893 0.504902 8.02582 0.54195 8.67307C0.571198 9.12577 0.881229 10.3455 3.11189 11.8607V11.8701L3.20744 11.9355C3.22693 11.9449 3.23668 11.9542 3.25618 11.9636C3.56621 12.1675 3.88599 12.3527 4.11023 12.4537C4.36176 12.5659 4.6133 12.6763 4.87653 12.7867C5.49854 13.0448 6.07766 13.2955 6.58463 13.6547C6.99995 13.9502 7.37043 14.33 7.72921 14.6985C8.26347 15.2429 8.80554 15.8078 9.53285 16.1595C10.1432 16.4551 10.8139 16.5748 11.4632 16.687C12.0657 16.7881 12.6371 16.8909 13.1518 17.1304C13.5028 17.2875 13.8109 17.5195 14.1502 17.7496C14.5284 18.019 14.9243 18.3052 15.3922 18.4885C15.7998 18.655 16.2658 18.7747 16.7201 18.8776C17.4377 19.0534 18.1728 19.2293 18.6193 19.6072C18.8708 19.9027 19.1731 20.0692 19.4928 20.0879C19.7366 20.1066 19.9491 20.0412 20.1324 19.9869C20.1714 19.9776 20.2006 19.9682 20.2396 19.9588C20.8792 19.783 21.6085 19.9046 22.2461 20.2712C22.8856 20.6416 23.3126 21.2122 23.4394 21.8333C23.5271 22.2691 23.4979 22.7667 23.4784 23.2381C23.4296 24.1716 23.3828 25.1425 24.1179 25.8533C24.506 26.2237 25.1845 26.4351 25.6779 26.0928C26.0756 25.8234 26.1341 25.3913 26.1926 25.0022C26.2024 24.9479 26.2121 24.8899 26.2121 24.845C26.2414 24.6599 26.3486 24.4672 26.4559 24.3923C26.4948 24.3643 26.5143 24.3643 26.5319 24.3736C26.5806 24.383 26.6586 24.4391 26.7347 24.585C27.0057 25.0658 26.9472 25.6943 26.8712 26.2855L26.8614 26.3397C26.7737 27.0057 26.6859 27.6978 26.957 28.3638C27.1403 28.7997 27.5283 29.1775 27.9748 29.344C28.1581 29.417 28.3433 29.445 28.5169 29.445C28.6904 29.445 28.8679 29.4076 29.0316 29.344C29.8564 28.9923 30.0105 28.0046 29.8857 27.2002C29.7979 26.6727 29.642 26.1377 29.4879 25.6195H29.484V25.6289Z" fill="#3E389F"/>
<path d="M27.0017 18.4567C27.0017 19.2424 26.3329 19.8803 25.5081 19.8803C24.6833 19.8803 24.0145 19.2443 24.0145 18.4567C24.0145 17.6692 24.6833 17.0331 25.5081 17.0331C26.3329 17.0331 27.0017 17.6692 27.0017 18.4567ZM25.5081 16.3672C24.3069 16.3672 23.3164 17.3007 23.3164 18.4567C23.3164 19.6128 24.2952 20.5463 25.5081 20.5463C26.7209 20.5463 27.6997 19.6128 27.6997 18.4567C27.6997 17.3007 26.7111 16.3672 25.5081 16.3672Z" fill="#3E389F"/>
<path d="M18.9402 9.28045C18.9402 8.49477 19.6091 7.85687 20.4339 7.85687C21.2587 7.85687 21.9275 8.4929 21.9275 9.28045C21.9275 10.068 21.2587 10.704 20.4339 10.704C19.6091 10.704 18.9402 10.0568 18.9402 9.28045ZM20.4339 11.3588C21.635 11.3588 22.6255 10.4253 22.6255 9.26923C22.6255 8.11315 21.6467 7.17969 20.4339 7.17969C19.221 7.17969 18.2422 8.11315 18.2422 9.26923C18.2422 10.4253 19.221 11.3588 20.4339 11.3588Z" fill="#3E389F"/>
<path d="M12.9997 10.9729C12.9997 11.7585 12.3309 12.3964 11.5061 12.3964C10.6813 12.3964 10.0125 11.7604 10.0125 10.9729C10.0125 10.1853 10.6813 9.54927 11.5061 9.54927C12.3309 9.54927 12.9997 10.1853 12.9997 10.9729ZM11.5061 8.89453C10.305 8.89453 9.31445 9.828 9.31445 10.9841C9.31445 12.1402 10.2933 13.0736 11.5061 13.0736C12.7189 13.0736 13.6978 12.1402 13.6978 10.9841C13.6978 9.828 12.7189 8.89453 11.5061 8.89453Z" fill="#3E389F"/>
</g>
<defs>
<clipPath id="clip0_1811_483">
<rect width="142" height="30" fill="white"/>
</clipPath>
</defs>
</svg>
