<svg width="198" height="42" viewBox="0 0 198 42" fill="none" xmlns="http://www.w3.org/2000/svg">
<g clip-path="url(#clip0_2353_271)">
<path d="M74.5379 6.75977H71.1447C70.9436 6.75977 70.7668 6.82524 70.6309 6.96666C70.4977 7.09499 70.4297 7.2626 70.4297 7.4695V10.6018C70.4297 11.0286 70.7967 11.3796 71.2426 11.3796C71.6885 11.3796 72.0556 11.0286 72.0556 10.6018C72.0556 11.0286 72.4226 11.3796 72.8685 11.3796C73.3144 11.3796 73.6814 11.0286 73.6814 10.6018C73.6814 11.0286 74.0485 11.3796 74.4944 11.3796C74.9402 11.3796 75.3073 11.0286 75.3073 10.6018V7.4695C75.3073 7.2757 75.2393 7.10809 75.0898 6.96666C74.9402 6.83833 74.7662 6.75977 74.5487 6.75977H74.5433H74.5379Z" fill="white"/>
<path d="M41.597 38.1287C41.4747 37.3666 41.2572 36.615 41.0424 35.8895C40.7188 34.7896 40.4198 33.7551 40.4361 32.6813C40.4497 31.7621 40.6916 30.8821 40.9363 29.9393C41.1375 29.2008 41.3414 28.4517 41.4257 27.6765C41.6976 25.2043 40.6971 22.6298 38.8048 20.9354C38.3589 20.5347 37.8722 20.1837 37.3964 19.8354C36.8173 19.4216 36.2735 19.0209 35.814 18.5548C36.0968 17.8162 36.2599 17.0148 36.2599 16.1872V15.3204C36.2463 15.2549 36.2191 15.192 36.1648 15.1527C36.1104 15.1135 36.0424 15.0873 35.9744 15.1004L35.8113 15.1135C35.379 15.1632 34.944 15.2549 34.5416 15.3727C34.528 15.1658 34.5144 14.9589 34.5008 14.7625C34.4464 13.8721 34.3785 12.9502 34.0413 12.086C33.6498 11.0881 32.932 10.2606 32.2279 9.47226C31.3877 8.51634 30.6047 7.62067 30.4307 6.51023V6.44476C31.0941 3.37798 29.1066 2.1366 28.0381 1.46353C26.6298 0.583563 24.7103 0.531184 23.253 1.34568C22.7255 1.64162 22.266 2.03184 21.8337 2.40635C21.3334 2.84633 20.8604 3.24703 20.2921 3.5063C19.278 3.95938 18.0219 3.86772 16.8039 3.79177C15.2079 3.67392 13.544 3.55868 12.3014 4.63245C11.9344 4.94411 11.6652 5.31861 11.4097 5.68003C11.1541 6.04144 10.8958 6.39238 10.5695 6.65166C9.89526 7.18068 8.97357 7.26187 8.00023 7.33782C7.4048 7.38758 6.78218 7.43996 6.18676 7.5971C5.45811 7.7909 4.9959 8.15231 4.49563 8.52682C4.3325 8.65515 4.15578 8.7861 3.96818 8.91442C3.65823 9.12132 3.36187 9.27584 3.03561 9.43298C2.73926 9.5744 2.42931 9.72892 2.10305 9.93581C1.19767 10.5303 0.762658 11.2689 0.817035 12.1488C0.939383 14.0764 3.50869 15.9777 4.41407 16.5984V16.6115L4.49563 16.6639C4.52282 16.677 4.53642 16.6901 4.56361 16.7032H4.5772C5.0095 16.9886 5.44451 17.2479 5.76805 17.3893C6.11878 17.5569 6.46952 17.6984 6.83656 17.8555C7.70387 18.2169 8.51137 18.5679 9.22915 19.0864C9.80826 19.5002 10.3384 20.0423 10.8387 20.5609C11.5674 21.323 12.3395 22.1008 13.3428 22.5905C14.1938 23.0043 15.1127 23.1589 16.0072 23.3134C16.8582 23.4548 17.6548 23.5988 18.3726 23.9341C18.862 24.1672 19.3052 24.4788 19.7647 24.814C20.2921 25.1912 20.8441 25.5761 21.483 25.8485C22.0512 26.0816 22.701 26.2361 23.3236 26.3933C24.3242 26.6394 25.3655 26.8856 26.0153 27.4277C26.366 27.8284 26.7603 28.0484 27.179 28.0877C27.5025 28.1139 27.7853 28.0222 28.0463 27.9594C28.1007 27.9463 28.1414 27.9332 28.1958 27.9201C29.1012 27.6739 30.1425 27.8284 31.0506 28.3601C31.956 28.8891 32.565 29.7062 32.7526 30.5993C32.875 31.22 32.8342 31.9061 32.807 32.5923C32.739 33.8861 32.6738 35.2322 33.6743 36.2038C34.1882 36.7067 35.1098 36.9921 35.7705 36.539C36.298 36.1776 36.3768 35.5831 36.4611 35.0515C36.4747 34.9755 36.4883 34.8943 36.4883 34.8315C36.5291 34.546 36.6895 34.2763 36.839 34.1584C36.8934 34.1191 36.9451 34.106 37.0022 34.1191C37.1082 34.1322 37.2305 34.2606 37.342 34.4439C37.7199 35.1405 37.652 36.0205 37.5432 36.8638L37.5296 36.9397C37.4073 37.8721 37.2849 38.828 37.6628 39.7342C37.9075 40.3287 38.435 40.8341 39.0413 41.0803C39.286 41.172 39.5307 41.2217 39.7699 41.2217C40.0092 41.2217 40.243 41.172 40.4605 41.0803C41.5698 40.5879 41.7846 39.2444 41.6106 38.1314L41.6052 38.1209L41.597 38.1287Z" fill="white"/>
<path d="M39.3344 40.3629C39.6389 40.4729 39.8645 40.4807 40.1174 40.3734C40.8161 40.0565 40.9222 39.0325 40.7998 38.2494C40.6856 37.537 40.4844 36.8299 40.2669 36.1071C39.9461 35.0124 39.6117 33.8889 39.628 32.6763C39.6416 31.7282 39.8673 30.8587 40.1038 29.9395L40.1527 29.7562C40.3376 29.0831 40.5415 28.3367 40.6204 27.6008C40.8651 25.3642 39.957 23.0333 38.2523 21.5039C37.8825 21.1713 37.4638 20.8622 37.0587 20.5663L36.9092 20.4563C36.3409 20.053 35.7428 19.613 35.2289 19.0892L34.8836 18.7383L35.0549 18.2852C35.3159 17.6016 35.4519 16.8945 35.4519 16.1874V15.957C35.2289 15.9989 35.0033 16.0539 34.7803 16.1167L33.8015 16.3996L33.7363 15.3808C33.7254 15.1896 33.7118 14.9958 33.6982 14.8177C33.6411 13.9037 33.5731 13.0918 33.2877 12.3611C32.956 11.5205 32.3361 10.7872 31.6183 9.98052L31.6074 9.96743C30.7401 8.98009 29.8456 7.95608 29.6362 6.63089L29.6281 6.57328V6.37162L29.6471 6.29567C30.199 3.75267 28.6411 2.77319 27.6107 2.12631C26.447 1.39824 24.8674 1.35896 23.6711 2.02679C23.2225 2.28083 22.8092 2.62653 22.3878 2.99318C21.8277 3.48292 21.3111 3.91767 20.6505 4.21885C19.4596 4.75049 18.1246 4.66407 16.8278 4.58026L16.7571 4.57502C15.2535 4.46503 13.8425 4.36027 12.8528 5.21928C12.5483 5.47856 12.3063 5.82426 12.0888 6.12806C11.7952 6.54185 11.4988 6.93993 11.0964 7.25944C10.2128 7.95084 9.07904 8.0425 8.07579 8.12107H8.04316C7.49124 8.17083 6.923 8.22059 6.40914 8.35416C5.8708 8.49558 5.52007 8.7601 5.07146 9.09794L5.01165 9.13984C4.83492 9.27865 4.6446 9.41745 4.44613 9.55625C4.06005 9.81291 3.70388 9.991 3.40481 10.1377C3.15196 10.2607 2.85832 10.4022 2.55925 10.5934C1.68378 11.1695 1.61309 11.7378 1.63484 12.115C1.70281 13.1835 2.92086 14.6265 4.89474 15.9805L5.04427 16.0748C5.48745 16.3681 5.86809 16.5881 6.11278 16.6955L6.13725 16.706C6.39282 16.8291 6.65383 16.9391 6.93387 17.0569L7.17313 17.1564C8.1492 17.5676 8.96213 17.9212 9.72613 18.4738C10.3678 18.9321 10.9415 19.5213 11.4444 20.0399C12.1867 20.8151 12.8664 21.4855 13.7201 21.9072C14.4488 22.2607 15.259 22.4022 16.1127 22.5515L16.1562 22.5593C17.1323 22.7217 17.9479 22.8788 18.7337 23.2481C19.3101 23.5231 19.8266 23.8897 20.2644 24.2066C20.8163 24.5995 21.2839 24.9216 21.8223 25.1494C22.2872 25.3406 22.8609 25.4821 23.4155 25.6182L23.6058 25.6654C24.6744 25.9273 25.7782 26.197 26.5558 26.8491L26.6047 26.8884L26.6455 26.9329C26.8549 27.1686 27.0615 27.2996 27.2654 27.3205C27.3932 27.331 27.5536 27.2891 27.7385 27.2394L27.8445 27.2106C27.8717 27.2053 27.8853 27.2001 27.9016 27.1975C27.9288 27.1896 27.9587 27.1844 27.9886 27.1739C29.1169 26.8727 30.3839 27.0639 31.4742 27.7003C32.5563 28.3341 33.3148 29.3345 33.5487 30.445C33.6792 31.1154 33.652 31.8016 33.6248 32.4615L33.6194 32.6213C33.5568 33.8103 33.4997 34.9286 34.2501 35.6566C34.5275 35.9264 35.0223 36.094 35.2969 35.9081C35.5171 35.7562 35.5769 35.4524 35.6503 34.9705L35.6585 34.9233C35.6639 34.8867 35.6721 34.8526 35.6721 34.8186V34.7636L35.6775 34.7243C35.7428 34.2686 35.9929 33.8103 36.3192 33.5563L36.3464 33.5353C36.5856 33.3651 36.8684 33.2996 37.1457 33.352C37.4937 33.4122 37.7955 33.6453 38.0375 34.0539L38.0511 34.0827C38.5432 34.9888 38.4562 36.039 38.3393 36.953L38.3257 37.0473C38.2115 37.9063 38.1082 38.7182 38.4127 39.441C38.5758 39.8365 38.9293 40.1848 39.3452 40.355V40.3629H39.3344ZM39.7558 41.9997C39.4241 41.9997 39.0815 41.9343 38.7308 41.8059L38.709 41.7981C37.8907 41.4681 37.2082 40.8003 36.8901 40.0224C36.4361 38.9277 36.5775 37.8251 36.7052 36.8509L36.7188 36.7592C36.7188 36.7356 36.7243 36.7173 36.727 36.6937C36.5992 36.8666 36.4361 37.0316 36.224 37.1783C35.1827 37.8906 33.826 37.4925 33.0756 36.754C31.8249 35.5414 31.9119 33.8889 31.9799 32.5663L31.9853 32.4144C32.0098 31.8094 32.0343 31.2411 31.9364 30.754C31.7923 30.0757 31.3056 29.4445 30.6069 29.0333C29.8973 28.6195 29.0952 28.4886 28.3992 28.6772L28.3747 28.6824C28.3557 28.685 28.3421 28.6903 28.3258 28.6929C28.2931 28.7007 28.2605 28.7086 28.2252 28.7191L28.1409 28.7426C27.8799 28.8107 27.521 28.905 27.0968 28.871C26.6564 28.8317 26.0256 28.6431 25.4275 27.9884C24.9299 27.6008 24.0436 27.3808 23.1844 27.1713L22.9887 27.1241C22.3742 26.9696 21.7407 26.8151 21.1562 26.5715C20.4058 26.2494 19.7777 25.8068 19.2747 25.448C18.7826 25.0892 18.4047 24.8299 18.005 24.6388C17.4123 24.3638 16.7435 24.2354 15.8626 24.0888L15.8109 24.0809C14.8756 23.9185 13.9132 23.7509 12.9697 23.2926C11.874 22.7557 11.0529 21.9465 10.2373 21.0953C9.78594 20.6291 9.26936 20.0949 8.74191 19.7204C8.11385 19.2673 7.39064 18.9478 6.50701 18.5785L6.26776 18.479C5.98771 18.3611 5.69952 18.2407 5.41132 18.1019C5.09593 17.9631 4.68811 17.73 4.19599 17.4105C4.15793 17.3948 4.12802 17.3764 4.09812 17.3555L4.04102 17.3214L3.59785 17.0386V17.0045C2.17589 15.97 0.131319 14.163 0.00625187 12.2014C-0.0454062 11.4 0.19929 10.2477 1.64028 9.30222C2.00732 9.06913 2.35262 8.89628 2.67072 8.74438C2.92901 8.61867 3.21177 8.47987 3.50541 8.28345C3.66854 8.17345 3.82895 8.05298 3.97577 7.93513L4.06277 7.86965C4.5576 7.50038 5.11768 7.07873 5.9714 6.85088C6.62664 6.68065 7.29548 6.62304 7.88819 6.57328H7.92625C8.77453 6.50257 9.56572 6.43971 10.0551 6.05734C10.2862 5.8714 10.501 5.5807 10.7375 5.25071C10.9931 4.89191 11.3112 4.44146 11.7625 4.05647C13.2661 2.75748 15.1801 2.8989 16.8658 3.02199H16.9284C18.0186 3.09532 19.1415 3.16603 19.949 2.80724C20.4003 2.60296 20.8027 2.25988 21.2867 1.83823C21.7761 1.41396 22.26 1.01064 22.8446 0.678034C24.5629 -0.27788 26.8277 -0.225501 28.4862 0.81422C29.6227 1.52919 31.95 2.9958 31.254 6.48685C31.4252 7.34063 32.0886 8.09488 32.8472 8.96699C33.6683 9.88886 34.3806 10.7348 34.8048 11.8138C35.131 12.6571 35.2344 13.4925 35.2969 14.4039C35.4355 14.3803 35.5796 14.3594 35.7183 14.3437L35.8842 14.3306C36.1533 14.2965 36.4252 14.3673 36.6563 14.5322C36.8031 14.637 36.9907 14.8308 37.0614 15.1713L37.075 15.2446V16.1874C37.075 16.9129 36.9635 17.6357 36.7487 18.3402C37.1022 18.6518 37.5019 18.9399 37.8852 19.2149L38.0484 19.3354C38.4834 19.6575 38.9347 19.9875 39.3616 20.3725C41.4306 22.2241 42.5317 25.0578 42.2354 27.7605C42.1457 28.6143 41.9227 29.4262 41.727 30.1412L41.6835 30.3114C41.4687 31.1442 41.2675 31.9247 41.2539 32.6946C41.243 33.6793 41.5421 34.6955 41.8303 35.6828C42.0587 36.4554 42.2762 37.2149 42.4039 38.0163C42.6215 39.3965 42.3142 41.1145 40.7944 41.7876L40.7754 41.7928C40.4491 41.929 40.1065 41.9997 39.7612 41.9997H39.7639H39.7558Z" fill="white"/>
<path d="M30.1465 6.34257C30.7827 3.60053 29.2139 2.4482 27.9279 1.63371C26.6419 0.819214 24.8719 0.77993 23.5315 1.53157C22.4358 2.14178 21.6501 3.22602 20.5027 3.72886C18.015 4.84191 14.5811 3.0427 12.5392 4.79215C11.8486 5.38665 11.4979 6.27971 10.7693 6.84802C9.54035 7.80394 7.71328 7.46871 6.18529 7.8825C5.27991 8.12869 4.80684 8.66033 4.07547 9.15007C3.45285 9.58744 2.84655 9.78386 2.16684 10.2134C-1.18822 12.3085 3.90962 16.1243 5.81825 17.0043C7.01998 17.5752 8.30599 17.9864 9.3745 18.7485C10.8481 19.7961 11.8215 21.4539 13.4582 22.2553C15.027 23.0174 16.9601 22.876 18.5424 23.6145C19.6517 24.1331 20.5299 25.0628 21.6664 25.542C23.1128 26.1523 25.2091 26.2282 26.3863 27.2365" fill="#FF931E"/>
<path d="M21.9115 9.82362C21.2617 10.6774 19.8561 10.5857 18.3689 10.4836C16.8164 10.3815 15.041 10.2636 13.9181 11.1802C13.5402 11.4893 13.3499 11.9685 13.146 12.474C12.8904 13.0947 12.6321 13.7416 12.0095 14.1318C11.5092 14.4277 10.8458 14.4172 10.196 14.4015C9.1411 14.3753 8.47771 14.4015 8.28739 15.1794C8.11066 15.9179 8.16504 16.4967 8.47771 16.9498C9.11392 17.8795 10.7914 18.1911 12.2623 18.4635C13.3988 18.6704 14.4673 18.8642 15.1008 19.3304C15.5739 19.6813 15.979 20.1187 16.3705 20.5351C16.7484 20.9358 17.1155 21.3234 17.5342 21.6481C18.8039 22.5936 20.4814 22.955 22.1046 23.3164H22.1182C24.2144 23.7695 25.9844 26.3308 26.0686 26.4461L26.0822 26.4591C26.365 26.962 26.7049 27.4151 27.1507 27.457C27.3275 27.4701 27.5287 27.4177 27.7462 27.3548C27.8005 27.3417 27.8522 27.3286 27.9093 27.3024C29.0322 27.0065 30.291 27.1846 31.3704 27.821C32.4498 28.4574 33.2111 29.4395 33.4258 30.5264C33.5591 31.223 33.5319 31.9615 33.4938 32.687C33.4394 33.8917 33.3715 35.0283 34.1572 35.78C34.4672 36.0759 34.9973 36.2592 35.3073 36.0392C35.5792 35.8454 35.6471 35.4578 35.7015 35.0309C35.7151 34.955 35.7287 34.8738 35.7423 34.7848C35.8103 34.4076 36.0142 33.9179 36.4057 33.6455C36.6232 33.5041 36.8788 33.4386 37.1343 33.4884C37.4742 33.5539 37.7842 33.7843 38.0017 34.185C38.4911 35.065 38.4068 36.0733 38.2844 37.0318L38.2708 37.1078C38.1648 37.9485 38.0424 38.8284 38.3524 39.5643C38.5291 39.9781 38.907 40.3526 39.3393 40.5203C39.5568 40.5962 39.8668 40.6774 40.1903 40.5333C40.9353 40.2243 41.0576 39.1872 40.919 38.3361C40.7966 37.6132 40.5954 36.8878 40.3779 36.1754C40.0544 35.0755 39.7145 33.9362 39.7417 32.7603C39.7553 31.752 40.0136 30.7804 40.2692 29.8507C40.4595 29.1383 40.6607 28.4024 40.7423 27.677C40.9978 25.4142 40.068 23.044 38.3334 21.491C37.9147 21.1139 37.428 20.7682 36.9685 20.4434C35.968 19.7311 34.943 18.9952 34.372 17.8952C33.8717 16.9393 33.8038 15.8917 33.7358 14.8546C33.6814 13.9746 33.6298 13.134 33.3171 12.3718C32.9664 11.4919 32.2758 10.7036 31.6151 9.95194C30.8293 9.07198 30.0191 8.13964 29.7228 7.00301C26.3405 6.78302 24.1247 6.88516 21.9061 9.821V9.81576L21.9115 9.82362Z" fill="#FCECD4"/>
<path d="M29.8488 22.8145C29.7673 18.5718 25.5096 15.1934 20.3438 15.285C20.4117 19.5434 24.6722 22.9062 29.8488 22.8145Z" fill="#4DC359"/>
<path d="M31.3219 17.7662C32.9178 15.8387 35.5116 15.7208 35.6503 15.8256C35.7998 15.9277 36.1777 18.2324 34.5818 20.1599C32.9858 22.0875 30.025 22.9151 29.889 22.8103C29.7558 22.6925 29.7259 19.6912 31.3246 17.7636L31.3219 17.7662Z" fill="#4DC359"/>
<path d="M16.0402 17.7031C17.4367 17.7031 18.5688 16.6197 18.5688 15.2832C18.5688 13.9467 17.4367 12.8633 16.0402 12.8633C14.6438 12.8633 13.5117 13.9467 13.5117 15.2832C13.5117 16.6197 14.6438 17.7031 16.0402 17.7031Z" fill="#F34337"/>
<path d="M28.4934 15.416C29.8898 15.416 31.0219 14.3326 31.0219 12.9961C31.0219 11.6596 29.8898 10.5762 28.4934 10.5762C27.0969 10.5762 25.9648 11.6596 25.9648 12.9961C25.9648 14.3326 27.0969 15.416 28.4934 15.416Z" fill="#F34337"/>
<path d="M35.5637 28.2617C36.9612 28.2617 38.0922 27.1774 38.0922 25.8418C38.0922 24.5061 36.9585 23.4219 35.5637 23.4219C34.1689 23.4219 33.0352 24.5061 33.0352 25.8418C33.0352 27.1774 34.1689 28.2617 35.5637 28.2617Z" fill="#F34337"/>
<path d="M147.502 13.4069C147.543 13.3048 147.556 13.2131 147.556 13.1372C147.556 13.0193 147.516 12.9172 147.423 12.8412C147.328 12.7496 147.233 12.7129 147.113 12.7129H146.558C146.395 12.7129 146.276 12.7522 146.191 12.8307C146.069 12.9486 146.042 13.0114 146.028 13.0376L142.282 25.1738L138.293 13.1948C138.266 13.0926 138.212 12.9879 138.103 12.8857C137.997 12.7836 137.847 12.7286 137.63 12.7286H137.051C136.833 12.7286 136.684 12.781 136.591 12.8857C136.485 13.0036 136.414 13.1188 136.39 13.2105L132.388 25.1791L128.641 13.056C128.628 13.0167 128.6 12.9538 128.478 12.8491C128.397 12.7731 128.277 12.7312 128.111 12.7312H127.556C127.434 12.7312 127.328 12.7705 127.247 12.8596C127.165 12.9486 127.113 13.0429 127.113 13.1555C127.113 13.2314 127.127 13.3231 127.168 13.4252L131.306 26.4938C131.387 26.7007 131.496 26.8709 131.616 26.973C131.722 27.0647 131.898 27.1145 132.116 27.1145H132.616C132.861 27.1145 133.049 27.0621 133.184 26.973C133.318 26.8814 133.413 26.7269 133.481 26.5069L137.32 15.0202L141.159 26.5069C141.227 26.7269 141.336 26.884 141.469 26.973C141.618 27.0647 141.792 27.1145 142.023 27.1145H142.524C142.768 27.1145 142.942 27.0621 143.051 26.973C143.174 26.8814 143.269 26.7138 143.334 26.4938L147.496 13.4148L147.505 13.4095L147.502 13.4069Z" fill="white"/>
<path d="M159.444 20.6375C159.444 21.8422 159.216 22.8505 158.77 23.6388C158.324 24.4428 157.701 25.0373 156.929 25.4249C156.173 25.8125 155.319 26.0063 154.387 26.0063C153.764 26.0063 153.158 25.9042 152.563 25.6973C151.967 25.4904 151.467 25.1788 151.075 24.7781C150.681 24.3643 150.48 23.8221 150.48 23.1753C150.48 22.3608 150.912 21.6746 151.777 21.1456C152.617 20.627 153.859 20.2656 155.483 20.0587L159.433 19.5297V20.6427H159.447H159.444V20.6375ZM160.958 17.2224C160.958 16.6777 160.863 16.1093 160.703 15.5384C160.526 14.9832 160.243 14.4516 159.835 13.9985C159.43 13.5323 158.849 13.1578 158.117 12.8592C157.389 12.5633 156.426 12.4219 155.306 12.4219C154.343 12.4219 153.52 12.5502 152.859 12.8095C152.196 13.0688 151.641 13.3804 151.222 13.7549C150.803 14.132 150.494 14.5066 150.29 14.8942C150.099 15.2713 149.993 15.5803 149.993 15.8239C149.993 15.9653 150.034 16.0832 150.116 16.1853C150.184 16.277 150.317 16.3136 150.507 16.3136H150.98C151.198 16.3136 151.331 16.2115 151.412 15.9784C151.657 15.3315 152.114 14.8025 152.764 14.4018C153.414 14.0011 154.265 13.8073 155.306 13.8073C156.725 13.8073 157.78 14.1032 158.443 14.6977C159.107 15.2922 159.444 16.1224 159.444 17.1438V18.2438L154.67 18.8776C152.968 19.0976 151.576 19.5899 150.518 20.352C149.477 21.0906 148.949 22.0858 148.949 23.3141C148.949 24.0762 149.194 24.7623 149.651 25.3595C150.124 25.9697 150.76 26.4594 151.532 26.8339C152.304 27.1953 153.169 27.3787 154.074 27.3787C155.075 27.3787 155.915 27.2608 156.578 27.0277C157.242 26.7946 157.78 26.5249 158.201 26.187C158.62 25.8623 158.946 25.5271 159.175 25.2049L159.419 24.8435V26.6035C159.419 26.7606 159.46 26.8732 159.553 26.9649C159.645 27.0565 159.77 27.0932 159.931 27.0932H160.431C160.594 27.0932 160.714 27.0539 160.809 26.9649C160.904 26.8758 160.942 26.758 160.942 26.6035L160.956 17.2224H160.958Z" fill="white"/>
<path d="M166.323 7.84326C166.323 7.68612 166.283 7.57351 166.19 7.48184C166.098 7.39018 165.973 7.35352 165.812 7.35352H165.312C165.149 7.35352 165.029 7.3928 164.934 7.48184C164.839 7.57351 164.801 7.68874 164.801 7.84326V26.6028C164.801 26.7599 164.842 26.8725 164.934 26.9642C165.026 27.0558 165.152 27.0925 165.312 27.0925H165.812C165.975 27.0925 166.095 27.0532 166.19 26.9642C166.285 26.8751 166.323 26.7573 166.323 26.6028V7.84326Z" fill="white"/>
<path d="M171.761 7.84326C171.761 7.68612 171.72 7.57351 171.628 7.48184C171.535 7.39018 171.41 7.35352 171.25 7.35352H170.749C170.586 7.35352 170.467 7.3928 170.372 7.48184C170.276 7.57351 170.238 7.68874 170.238 7.84326V26.6028C170.238 26.7599 170.279 26.8725 170.372 26.9642C170.464 27.0558 170.589 27.0925 170.749 27.0925H171.25C171.413 27.0925 171.532 27.0532 171.628 26.9642C171.723 26.8751 171.761 26.7573 171.761 26.6028V7.84326Z" fill="white"/>
<path d="M186.174 19.1656H176.533V18.9194C176.533 17.9635 176.723 17.094 177.088 16.3319C177.465 15.5698 178.007 14.9491 178.724 14.496C179.442 14.0429 180.32 13.8098 181.321 13.8098C182.321 13.8098 183.202 14.0429 183.931 14.496C184.66 14.9491 185.217 15.5698 185.595 16.3319C185.973 17.094 186.163 17.9739 186.163 18.9194V19.1656H186.177H186.174ZM187.702 19.5663C187.702 18.0918 187.446 16.798 186.93 15.7374C186.416 14.6767 185.685 13.8491 184.755 13.2913C183.822 12.7203 182.672 12.4375 181.321 12.4375C180.076 12.4375 178.983 12.7073 178.077 13.2415C177.172 13.7705 176.454 14.5222 175.94 15.465C175.426 16.4209 175.1 17.5471 175.008 18.7911C174.994 19.0608 174.98 19.4379 174.98 19.9041C174.98 20.3703 174.994 20.7448 175.008 21.0172C175.157 22.9054 175.793 24.4611 176.889 25.6213C177.968 26.771 179.472 27.3655 181.324 27.3655C182.229 27.3655 183.055 27.2476 183.784 27.0041C184.513 26.7579 185.135 26.4593 185.649 26.0979C186.163 25.7365 186.555 25.3594 186.824 24.9849C187.096 24.6234 187.242 24.3118 187.256 24.0787C187.27 23.9504 187.229 23.8587 187.15 23.7828C187.044 23.7068 186.922 23.6544 186.783 23.6544H186.31C186.065 23.6544 185.959 23.6806 185.905 23.7042C185.864 23.7304 185.755 23.8063 185.538 24.1049C185.432 24.262 185.214 24.4925 184.874 24.7911C184.534 25.0896 184.061 25.3725 183.496 25.6186C182.928 25.8648 182.199 25.9958 181.332 25.9958C180.358 25.9958 179.518 25.7496 178.803 25.2441C178.102 24.7518 177.544 24.1049 177.166 23.3297C176.788 22.5519 176.571 21.7269 176.53 20.8731V20.4593H187.147C187.31 20.4593 187.444 20.42 187.539 20.331C187.634 20.2393 187.688 20.1241 187.688 19.9801V19.5663H187.702Z" fill="white"/>
<path d="M197.995 26.2151C197.995 26.058 197.955 25.9454 197.862 25.8537C197.77 25.7621 197.645 25.7254 197.484 25.7254H195.888C194.956 25.7254 194.292 25.4138 193.928 24.8193C193.577 24.2378 193.401 23.4365 193.401 22.4124V14.0816H197.185C197.348 14.0816 197.468 14.0423 197.563 13.9533C197.658 13.8642 197.696 13.7464 197.696 13.5918V13.1911C197.696 13.034 197.656 12.9214 197.563 12.8297C197.471 12.7381 197.346 12.7014 197.185 12.7014H193.401V7.84326C193.401 7.68612 193.36 7.57351 193.267 7.48184C193.175 7.39018 193.05 7.35352 192.89 7.35352H192.389C192.226 7.35352 192.106 7.3928 192.011 7.48184C191.916 7.57351 191.878 7.68874 191.878 7.84326V12.7066H189.445C189.282 12.7066 189.162 12.7459 189.067 12.835C188.972 12.924 188.934 13.0419 188.934 13.1964V13.5971C188.934 13.7542 188.974 13.8668 189.067 13.9585C189.159 14.0502 189.284 14.0868 189.445 14.0868H191.878V22.5224C191.878 23.3893 192 24.1802 192.229 24.8769C192.457 25.563 192.851 26.1078 193.42 26.5059C193.988 26.9066 194.771 27.1004 195.758 27.1004H197.49C197.653 27.1004 197.773 27.0611 197.868 26.972C197.963 26.883 198.001 26.7651 198.001 26.6106V26.2099L197.995 26.2151Z" fill="white"/>
<path d="M62.8031 15.8396C62.3137 16.2403 61.653 16.4498 60.8292 16.4498H57.4632V11.521H60.8292C61.7916 11.521 62.4768 11.7541 62.8982 12.2333C63.3169 12.7126 63.5344 13.2966 63.5344 13.9933C63.5344 14.8208 63.2897 15.4415 62.8058 15.8448H62.8031V15.8396ZM65.1277 8.38609C63.9531 7.91992 62.5584 7.68945 60.9651 7.68945H52.9065C52.689 7.68945 52.5285 7.75493 52.3926 7.88325C52.2567 8.01158 52.1914 8.1792 52.1914 8.37562V26.2813C52.1914 26.7475 52.5965 27.1351 53.0832 27.1351C53.5699 27.1351 53.975 26.7475 53.975 26.2813C53.975 26.7475 54.3801 27.1351 54.8668 27.1351C55.3534 27.1351 55.7585 26.7475 55.7585 26.2813C55.7585 26.7475 56.1636 27.1351 56.6503 27.1351C57.137 27.1351 57.5421 26.7475 57.5421 26.2813V20.2604H60.976C62.572 20.2604 63.9531 20.0404 65.1386 19.6004C66.3294 19.1604 67.2348 18.4769 67.9091 17.555C68.5725 16.6358 68.9096 15.473 68.9096 14.0509C68.9096 12.6288 68.5425 11.4267 67.8819 10.4943C67.2185 9.56462 66.2995 8.85226 65.1222 8.38347L65.1277 8.38609Z" fill="white"/>
<path d="M117.023 20.7282C117.023 21.4667 116.89 22.0743 116.632 22.5641C116.376 23.0564 116.025 23.4047 115.563 23.6378C115.117 23.8709 114.601 23.9888 114.049 23.9888C113.671 23.9888 113.32 23.9233 113.007 23.8054C112.695 23.6876 112.453 23.52 112.262 23.3026C112.072 23.0826 111.98 22.8102 111.98 22.4986C111.98 22.0979 112.181 21.7365 112.602 21.4353C113.007 21.1394 113.671 20.9063 114.576 20.7622L117.023 20.3484V20.7256H117.026L117.023 20.7282ZM121.947 23.6535V17.7793C121.947 16.9752 121.814 16.2262 121.542 15.5558C121.27 14.8827 120.868 14.3013 120.324 13.8116C119.783 13.3218 119.065 12.9316 118.176 12.6618C117.298 12.3921 116.229 12.248 114.97 12.248C113.712 12.248 112.765 12.3895 111.914 12.6618C111.074 12.9316 110.373 13.2825 109.845 13.7094C109.304 14.1363 108.913 14.5632 108.654 14.9901C108.236 15.6632 108.263 16.3493 108.263 16.7343C108.263 17.1193 108.603 17.4467 109.008 17.4467C109.413 17.4467 109.753 17.1219 109.753 16.7343C109.753 17.135 110.093 17.4467 110.498 17.4467C110.903 17.4467 111.243 17.1219 111.243 16.7343C111.243 17.135 111.583 17.4467 111.988 17.4467C112.393 17.4467 112.651 17.1219 112.733 16.7343C112.896 15.9198 113.222 15.2075 114.938 15.2467C115.71 15.2598 116.235 15.4144 116.52 15.7758C116.803 16.1267 116.952 16.6295 116.952 17.2895V17.6771L113.355 18.2061C111.515 18.4759 110.027 18.9944 108.921 19.7592C107.814 20.5213 107.246 21.5584 107.246 22.8626C107.246 23.6666 107.491 24.4026 107.964 25.0364C108.437 25.6832 109.087 26.1861 109.911 26.5632C110.723 26.9403 111.653 27.1341 112.697 27.1341C113.442 27.1341 114.106 27.0425 114.671 26.8749C115.24 26.6915 115.726 26.4611 116.158 26.1782C116.577 25.8823 116.914 25.5575 117.173 25.2066V26.3851C117.173 26.812 117.523 27.1472 117.969 27.1472C118.415 27.1472 118.766 26.812 118.766 26.3851C118.766 26.812 119.117 27.1472 119.562 27.1472C120.008 27.1472 120.359 26.812 120.359 26.3851C120.359 26.812 120.71 27.1472 121.156 27.1472C121.602 27.1472 121.952 26.812 121.952 26.3851V23.6535H121.95H121.947Z" fill="white"/>
<path d="M74.4826 12.6452C74.0368 12.6452 73.6697 12.9961 73.6697 13.423C73.6697 12.9961 73.3027 12.6452 72.8568 12.6452C72.4109 12.6452 72.0438 12.9961 72.0438 13.423C72.0438 12.9961 71.6768 12.6452 71.2309 12.6452C70.785 12.6452 70.418 12.9961 70.418 13.423V26.3632C70.418 26.7901 70.785 27.1411 71.2309 27.1411C71.6768 27.1411 72.0438 26.7901 72.0438 26.3632C72.0438 26.7901 72.4109 27.1411 72.8568 27.1411C73.3027 27.1411 73.6697 26.7901 73.6697 26.3632C73.6697 26.7901 74.0368 27.1411 74.4826 27.1411C74.9285 27.1411 75.2956 26.7901 75.2956 26.3632V13.4204C75.282 12.9935 74.9177 12.6426 74.4826 12.6426V12.6452Z" fill="white"/>
<path d="M91.225 24.1696C91.225 23.8449 90.9531 23.5751 90.6024 23.5751H83.2588L89.8303 16.6532C89.9363 16.5249 90.0478 16.394 90.113 16.2656C90.1946 16.1373 90.2191 15.9959 90.2191 15.8283V13.4869C90.2191 13.28 90.1511 13.1255 90.0016 12.9946C89.852 12.8636 89.6916 12.8008 89.5013 12.8008H77.6553C77.3154 12.8008 77.0327 13.0705 77.0327 13.3953C77.0327 13.72 77.3045 13.9898 77.6553 13.9898C77.3154 13.9898 77.0327 14.2595 77.0327 14.5843C77.0327 14.909 77.3045 15.1788 77.6553 15.1788C77.3154 15.1788 77.0327 15.4485 77.0327 15.7733C77.0327 16.098 77.3045 16.3678 77.6553 16.3678H84.1452L77.4106 23.3682C77.2774 23.4965 77.1659 23.638 77.0707 23.782C76.9892 23.9234 76.9375 24.1068 76.9375 24.311V26.4586C76.9375 26.6655 77.0055 26.82 77.155 26.9509C77.3045 27.0819 77.465 27.1447 77.6553 27.1447H90.5807C90.9205 27.1447 91.2033 26.875 91.2033 26.5502C91.2033 26.2255 90.9314 25.9557 90.5807 25.9557C90.9205 25.9557 91.2033 25.686 91.2033 25.3612C91.2033 25.0365 90.9314 24.7667 90.5807 24.7667C90.9477 24.7667 91.2169 24.497 91.2169 24.1722H91.2196L91.225 24.1696Z" fill="white"/>
<path d="M106.678 24.1696C106.678 23.8449 106.406 23.5751 106.056 23.5751H98.7119L105.283 16.6532C105.389 16.5249 105.501 16.394 105.566 16.2656C105.648 16.1373 105.672 15.9959 105.672 15.8283V13.4869C105.672 13.28 105.604 13.1255 105.455 12.9946C105.305 12.8636 105.145 12.8008 104.954 12.8008H93.1084C92.7685 12.8008 92.4858 13.0705 92.4858 13.3953C92.4858 13.72 92.7577 13.9898 93.1084 13.9898C92.7685 13.9898 92.4858 14.2595 92.4858 14.5843C92.4858 14.909 92.7577 15.1788 93.1084 15.1788C92.7685 15.1788 92.4858 15.4485 92.4858 15.7733C92.4858 16.098 92.7577 16.3678 93.1084 16.3678H99.5983L92.8637 23.3682C92.7305 23.4965 92.619 23.638 92.5238 23.782C92.4423 23.9234 92.3906 24.1068 92.3906 24.311V26.4586C92.3906 26.6655 92.4586 26.82 92.6081 26.9509C92.7577 27.0819 92.9181 27.1447 93.1084 27.1447H106.034C106.374 27.1447 106.656 26.875 106.656 26.5502C106.656 26.2255 106.385 25.9557 106.034 25.9557C106.374 25.9557 106.656 25.686 106.656 25.3612C106.656 25.0365 106.385 24.7667 106.034 24.7667C106.385 24.7667 106.67 24.497 106.67 24.1722H106.673L106.678 24.1696Z" fill="white"/>
<path d="M7.12972 15.6458C6.64033 15.9967 5.60173 16.3058 4.99271 15.9548C4.43806 15.5777 3.89701 15.1665 3.44025 14.7501C2.68441 14.0639 1.77631 13.0425 1.70834 12.1102C1.68115 11.6309 1.88507 11.2302 2.33096 10.8793C4.09005 10.5022 5.81924 11.4502 6.7654 12.3669C7.14332 12.744 7.61639 13.3385 7.72787 14.0613C7.82303 14.682 7.59464 15.3027 7.13244 15.6379V15.6432L7.12972 15.6458ZM20.6669 4.31361C21.3574 4.00196 21.8958 3.53578 22.4368 3.07223C22.8555 2.71082 23.2606 2.35988 23.7065 2.11632C24.8702 1.46944 26.4118 1.5061 27.5455 2.20798C28.8152 3.01199 30.0197 3.96791 29.5711 6.21758C26.3112 6.02378 23.8126 6.14163 21.3901 9.34722C21.0122 9.85006 19.8893 9.77411 18.5924 9.69816C16.8904 9.58031 14.9682 9.45198 13.6033 10.5886C13.0758 11.0155 12.8475 11.61 12.6164 12.1914C12.3988 12.7204 12.1976 13.2259 11.8034 13.4721C11.5207 13.6397 10.9796 13.6397 10.463 13.6292C9.90838 13.6161 9.23411 13.603 8.69306 13.8492C8.55983 13.1106 8.15201 12.3747 7.47501 11.7278C7.0971 11.3769 5.82739 10.2403 4.01392 9.94172C4.19065 9.83958 4.33747 9.74792 4.487 9.65625C4.70451 9.51483 4.89211 9.37079 5.05524 9.24246C5.48754 8.90724 5.86818 8.62177 6.4201 8.46464C6.93396 8.32321 7.49948 8.27083 8.06772 8.23155C9.13623 8.13989 10.2428 8.04822 11.1237 7.35158C11.556 7.01636 11.8524 6.59995 12.1378 6.20187C12.3825 5.86664 12.5973 5.55499 12.8828 5.31143C13.8453 4.49694 15.2373 4.5886 16.7109 4.69074C18.0622 4.7824 19.4434 4.87144 20.6614 4.31361H20.6669ZM30.887 21.9601C31.0773 21.727 31.2649 21.4939 31.4552 21.2634C32.0914 20.4856 32.7413 19.6711 33.4971 18.9483C33.5923 18.8566 33.6031 18.7152 33.5243 18.613C33.4563 18.5109 33.3068 18.4716 33.1844 18.5109C32.1703 18.9116 31.197 19.8282 30.5471 20.9937C30.8571 18.8723 32.3171 17.1124 34.4269 16.3346C34.7505 16.2167 35.0767 16.1277 35.4003 16.0491C35.5226 18.8068 33.6303 21.2477 30.8843 21.9601H30.887ZM23.4238 18.1809C23.383 18.3092 23.451 18.4271 23.5733 18.4926C23.7228 18.558 23.8561 18.6209 24.0056 18.6864C24.3156 18.8147 24.6119 18.9456 24.8974 19.0871C25.9931 19.5899 26.9936 20.2918 28.0485 21.3001C28.2932 21.5332 28.5488 21.7924 28.7663 22.0124L28.8995 22.1539C26.8169 22.036 24.8566 21.3132 23.3558 20.1346C21.8414 18.9456 20.936 17.4031 20.7185 15.7086C20.7185 15.6693 20.7321 15.617 20.7593 15.5908C20.7865 15.5646 20.8273 15.5515 20.8653 15.5515H20.8789C23.0159 15.6432 25.0415 16.366 26.5831 17.5812C27.88 18.6026 28.7581 19.9487 29.1116 21.3865C27.8664 19.5244 25.9224 18.3092 23.7147 18.0238C23.5815 17.9714 23.4591 18.05 23.4183 18.1809H23.4238ZM7.68437 16.4105C7.73874 16.7614 7.87469 17.0705 8.05141 17.3402C8.09219 17.3926 8.13298 17.4581 8.17376 17.5078C7.85022 17.3507 7.51036 17.2119 7.18682 17.0705C7.02369 17.005 6.86327 16.9291 6.69742 16.8636C7.07534 16.7457 7.4152 16.5938 7.68437 16.4105ZM12.32 19.1787C13.3477 19.3725 14.3211 19.5401 14.7941 19.9016C15.2129 20.2132 15.5663 20.5982 15.9442 21.0015C16.3221 21.4153 16.73 21.8422 17.203 22.2062C18.6114 23.2538 20.3678 23.6414 22.0725 24.0054C23.0866 24.2254 24.0736 25.1185 24.7642 25.8832C24.3455 25.7549 23.9132 25.6501 23.5461 25.5585L23.4781 25.5454C22.8827 25.404 22.3145 25.2599 21.8414 25.0661C21.3003 24.8461 20.8137 24.4952 20.2998 24.1338C19.8267 23.7986 19.3265 23.4371 18.7582 23.1779C17.9181 22.7903 17.0263 22.6331 16.1481 22.4812C15.2808 22.3241 14.457 22.1853 13.7284 21.8343C12.861 21.4075 12.1868 20.7213 11.469 19.9723C11.0503 19.5349 10.618 19.0818 10.1286 18.6916C10.8301 18.9116 11.5886 19.053 12.32 19.184H12.3227L12.32 19.1787ZM38.4046 37.0295L38.4182 36.9535C38.5406 35.9714 38.6194 34.95 38.1219 34.0281C37.8772 33.5908 37.5427 33.3158 37.1485 33.2503C36.8521 33.2006 36.5531 33.2634 36.3084 33.4441C35.8761 33.7401 35.645 34.2717 35.5797 34.6855C35.5661 34.7615 35.5525 34.8426 35.5389 34.9317C35.4846 35.3193 35.4329 35.6833 35.2154 35.8378C34.987 35.995 34.5411 35.8378 34.2964 35.5917C33.5678 34.895 33.633 33.7924 33.6901 32.6296C33.7309 31.9068 33.7717 31.1552 33.6222 30.4428C33.3938 29.3193 32.6216 28.2953 31.5123 27.6353C30.403 26.9753 29.0926 26.7815 27.9425 27.0906C27.8881 27.1037 27.8365 27.1168 27.7794 27.1429H27.7658C27.5754 27.1953 27.3987 27.2451 27.2519 27.2346C26.874 27.2084 26.5885 26.7815 26.3193 26.3154L26.3057 26.2892C26.2242 26.1713 24.4406 23.5733 22.2764 23.0941C20.694 22.7431 19.0437 22.3974 17.8148 21.4651C17.4097 21.1534 17.0426 20.7789 16.6783 20.3782C16.2868 19.9644 15.8817 19.5244 15.3923 19.163C14.7425 18.6707 13.6604 18.4769 12.5103 18.2726C11.0748 18.0133 9.46793 17.7174 8.8725 16.8374C8.58974 16.4236 8.53265 15.8815 8.70937 15.1953C8.85891 14.6139 9.25042 14.5223 10.4413 14.5484C11.1047 14.5615 11.7925 14.5746 12.3227 14.2525C12.997 13.8387 13.2553 13.1656 13.5136 12.5188C13.7039 12.0264 13.8915 11.5733 14.2313 11.2879C15.2863 10.4079 17.0019 10.5257 18.5163 10.6279C20.0306 10.73 21.4771 10.8217 22.1677 9.90505C24.3155 7.04517 26.4417 6.95612 29.6581 7.16302C29.9816 8.27607 30.781 9.18223 31.5395 10.0622C32.1893 10.8007 32.8636 11.5759 33.1871 12.4297C33.4835 13.1814 33.5379 13.9958 33.5787 14.8627V14.8758C33.5923 15.1351 33.6194 15.4048 33.6466 15.6798C31.7271 16.5336 30.2644 18.2019 29.7396 20.1818C29.2394 18.9273 28.3612 17.7881 27.1975 16.8688C25.3052 15.3682 22.8012 14.5642 20.1802 14.6165C20.0578 14.6165 19.9246 14.6663 19.8403 14.758C19.7452 14.8496 19.7071 14.9649 19.7071 15.0932C19.7479 17.2905 20.83 19.3516 22.7495 20.8627C24.5902 22.311 26.9963 23.115 29.5493 23.115C29.6173 23.115 29.9001 23.1019 29.9544 23.0888C32.3742 22.8191 34.3889 21.4206 35.4737 19.4773C35.906 19.8649 36.3927 20.2158 36.8657 20.5511C37.3252 20.8863 37.7983 21.2241 38.2061 21.5855C39.8973 23.0993 40.789 25.4144 40.5443 27.6144C40.4628 28.3267 40.2725 29.0495 40.0713 29.7619C39.8157 30.7073 39.5574 31.6894 39.5438 32.6977C39.5302 33.8893 39.8673 35.0391 40.1936 36.1521C40.3948 36.8487 40.6123 37.5768 40.7211 38.2865C40.8434 39.0749 40.7483 40.0308 40.0985 40.3058C39.8266 40.4236 39.5574 40.3581 39.3807 40.2927C38.9864 40.1355 38.6629 39.8134 38.5025 39.4389C38.1925 38.7003 38.3122 37.8623 38.4073 37.0321L38.4046 37.0295ZM41.1099 35.8824C40.7863 34.7955 40.4872 33.761 40.5036 32.6977C40.5172 31.7916 40.7483 30.9116 41.0038 29.9662C41.205 29.2276 41.4089 28.4786 41.4932 27.6877C41.7651 25.2049 40.7646 22.6017 38.8559 20.8811C38.41 20.4804 37.9098 20.1189 37.4367 19.7811C36.8685 19.3804 36.341 18.9928 35.8951 18.5397C36.167 17.8012 36.3274 17.0129 36.3274 16.1984V15.3315C36.3138 15.2556 36.273 15.1744 36.2051 15.1246C36.1371 15.0722 36.0555 15.0487 35.9604 15.0591L35.7972 15.0722C35.3921 15.1246 34.9843 15.2006 34.5955 15.3053C34.5819 15.122 34.5683 14.9439 34.5547 14.7763C34.5003 13.8858 34.4324 12.9509 34.0952 12.0709C33.7037 11.0626 32.9724 10.235 32.2709 9.43102C31.4471 8.48559 30.6613 7.59515 30.5009 6.50567V6.45329C31.1643 3.34984 29.1605 2.09275 28.0812 1.40658C26.6456 0.526617 24.6989 0.474238 23.228 1.30444C22.687 1.60038 22.2411 2.00108 21.7925 2.37821C21.2922 2.8051 20.8191 3.21889 20.2645 3.46507C19.2639 3.90244 18.0214 3.82649 16.8034 3.73482C15.1938 3.61697 13.5163 3.50174 12.2575 4.5886C11.8904 4.91335 11.6213 5.28524 11.3521 5.65189C11.0965 6.0133 10.8518 6.36424 10.5283 6.6078C9.86488 7.12636 8.9595 7.2023 7.98616 7.28087C7.37985 7.33325 6.75724 7.38301 6.16181 7.55062C5.41685 7.75752 4.94377 8.10584 4.45981 8.49606C4.29668 8.62439 4.11996 8.75534 3.93236 8.88367C3.636 9.09056 3.32605 9.2346 2.99979 9.40222C2.70344 9.54364 2.39349 9.69816 2.06723 9.90505C1.14826 10.4865 0.702368 11.2381 0.754026 12.1443C0.794809 12.778 1.22711 14.4856 4.33747 16.6069V16.62L4.47069 16.7117C4.49788 16.7248 4.51147 16.7379 4.53866 16.751C4.97096 17.0364 5.41685 17.2957 5.72952 17.4371C6.08025 17.5943 6.43098 17.7488 6.79802 17.9033C7.66533 18.2647 8.47283 18.6157 9.17973 19.1185C9.75885 19.5323 10.2754 20.0639 10.7757 20.5799C11.5207 21.342 12.2765 22.1329 13.2906 22.6253C14.1416 23.0391 15.0769 23.2067 15.9823 23.3638C16.8224 23.5052 17.619 23.6493 18.3368 23.9845C18.8262 24.2045 19.2558 24.5292 19.7289 24.8514C20.2563 25.2285 20.8082 25.6292 21.4608 25.8858C22.029 26.1189 22.6788 26.2865 23.3123 26.4306C24.3128 26.6768 25.3378 26.923 25.9605 27.452C26.3112 27.8658 26.7326 28.0989 27.1785 28.125C27.5184 28.1512 27.8147 28.0596 28.0703 27.9836C28.1247 27.9705 28.1654 27.9574 28.2198 27.9443C29.1116 27.6982 30.1284 27.8684 31.0175 28.3817C31.9093 28.9003 32.5047 29.699 32.6814 30.5685C32.8038 31.1787 32.763 31.8754 32.7358 32.5353C32.6678 33.8422 32.6026 35.2014 33.6276 36.1966C34.1687 36.7152 35.1148 37.0111 35.8027 36.5319C36.3573 36.1547 36.4389 35.5498 36.5205 35.005C36.534 34.9291 36.5476 34.8479 36.5476 34.785C36.5884 34.5257 36.738 34.256 36.8875 34.1512C36.9419 34.1119 36.9691 34.112 36.9935 34.125C37.0615 34.1381 37.1703 34.2167 37.2763 34.421C37.6542 35.0941 37.5726 35.974 37.4666 36.8016L37.453 36.8776C37.3307 37.8099 37.2083 38.7789 37.5862 39.7113C37.8418 40.3215 38.3829 40.8505 39.0055 41.0836C39.261 41.1857 39.5193 41.225 39.7613 41.225C40.0033 41.225 40.2507 41.1726 40.4791 41.0836C41.6292 40.5912 41.844 39.2084 41.6699 38.0823C41.5476 37.3437 41.3301 36.5947 41.1153 35.8693H41.1099V35.8824Z" fill="#3E389F"/>
<path d="M7.12972 15.6458C6.64033 15.9967 5.60173 16.3058 4.99271 15.9548C4.43806 15.5777 3.89701 15.1665 3.44025 14.7501C2.68441 14.0639 1.77631 13.0425 1.70834 12.1102C1.68115 11.6309 1.88507 11.2302 2.33096 10.8793C4.09005 10.5022 5.81924 11.4502 6.7654 12.3669C7.14332 12.744 7.61639 13.3385 7.72787 14.0613C7.82303 14.682 7.59464 15.3027 7.13244 15.6379V15.6432L7.12972 15.6458ZM20.6669 4.31361C21.3574 4.00196 21.8958 3.53578 22.4368 3.07223C22.8555 2.71082 23.2606 2.35988 23.7065 2.11632C24.8702 1.46944 26.4118 1.5061 27.5455 2.20798C28.8152 3.01199 30.0197 3.96791 29.5711 6.21758C26.3112 6.02378 23.8126 6.14163 21.3901 9.34722C21.0122 9.85006 19.8893 9.77411 18.5924 9.69816C16.8904 9.58031 14.9682 9.45198 13.6033 10.5886C13.0758 11.0155 12.8475 11.61 12.6164 12.1914C12.3988 12.7204 12.1976 13.2259 11.8034 13.4721C11.5207 13.6397 10.9796 13.6397 10.463 13.6292C9.90838 13.6161 9.23411 13.603 8.69306 13.8492C8.55983 13.1106 8.15201 12.3747 7.47501 11.7278C7.0971 11.3769 5.82739 10.2403 4.01392 9.94172C4.19065 9.83958 4.33747 9.74792 4.487 9.65625C4.70451 9.51483 4.89211 9.37079 5.05524 9.24246C5.48754 8.90724 5.86818 8.62177 6.4201 8.46464C6.93396 8.32321 7.49948 8.27083 8.06772 8.23155C9.13623 8.13989 10.2428 8.04822 11.1237 7.35158C11.556 7.01636 11.8524 6.59995 12.1378 6.20187C12.3825 5.86664 12.5973 5.55499 12.8828 5.31143C13.8453 4.49694 15.2373 4.5886 16.7109 4.69074C18.0622 4.7824 19.4434 4.87144 20.6614 4.31361H20.6669ZM30.887 21.9601C31.0773 21.727 31.2649 21.4939 31.4552 21.2634C32.0914 20.4856 32.7413 19.6711 33.4971 18.9483C33.5923 18.8566 33.6031 18.7152 33.5243 18.613C33.4563 18.5109 33.3068 18.4716 33.1844 18.5109C32.1703 18.9116 31.197 19.8282 30.5471 20.9937C30.8571 18.8723 32.3171 17.1124 34.4269 16.3346C34.7505 16.2167 35.0767 16.1277 35.4003 16.0491C35.5226 18.8068 33.6303 21.2477 30.8843 21.9601H30.887ZM23.4238 18.1809C23.383 18.3092 23.451 18.4271 23.5733 18.4926C23.7228 18.558 23.8561 18.6209 24.0056 18.6864C24.3156 18.8147 24.6119 18.9456 24.8974 19.0871C25.9931 19.5899 26.9936 20.2918 28.0485 21.3001C28.2932 21.5332 28.5488 21.7924 28.7663 22.0124L28.8995 22.1539C26.8169 22.036 24.8566 21.3132 23.3558 20.1346C21.8414 18.9456 20.936 17.4031 20.7185 15.7086C20.7185 15.6693 20.7321 15.617 20.7593 15.5908C20.7865 15.5646 20.8273 15.5515 20.8653 15.5515H20.8789C23.0159 15.6432 25.0415 16.366 26.5831 17.5812C27.88 18.6026 28.7581 19.9487 29.1116 21.3865C27.8664 19.5244 25.9224 18.3092 23.7147 18.0238C23.5815 17.9714 23.4591 18.05 23.4183 18.1809H23.4238ZM7.68437 16.4105C7.73874 16.7614 7.87469 17.0705 8.05141 17.3402C8.09219 17.3926 8.13298 17.4581 8.17376 17.5078C7.85022 17.3507 7.51036 17.2119 7.18682 17.0705C7.02369 17.005 6.86327 16.9291 6.69742 16.8636C7.07534 16.7457 7.4152 16.5938 7.68437 16.4105ZM12.32 19.1787C13.3477 19.3725 14.3211 19.5401 14.7941 19.9016C15.2129 20.2132 15.5663 20.5982 15.9442 21.0015C16.3221 21.4153 16.73 21.8422 17.203 22.2062C18.6114 23.2538 20.3678 23.6414 22.0725 24.0054C23.0866 24.2254 24.0736 25.1185 24.7642 25.8832C24.3455 25.7549 23.9132 25.6501 23.5461 25.5585L23.4781 25.5454C22.8827 25.404 22.3145 25.2599 21.8414 25.0661C21.3003 24.8461 20.8137 24.4952 20.2998 24.1338C19.8267 23.7986 19.3265 23.4371 18.7582 23.1779C17.9181 22.7903 17.0263 22.6331 16.1481 22.4812C15.2808 22.3241 14.457 22.1853 13.7284 21.8343C12.861 21.4075 12.1868 20.7213 11.469 19.9723C11.0503 19.5349 10.618 19.0818 10.1286 18.6916C10.8301 18.9116 11.5886 19.053 12.32 19.184H12.3227L12.32 19.1787ZM38.4046 37.0295L38.4182 36.9535C38.5406 35.9714 38.6194 34.95 38.1219 34.0281C37.8772 33.5908 37.5427 33.3158 37.1485 33.2503C36.8521 33.2006 36.5531 33.2634 36.3084 33.4441C35.8761 33.7401 35.645 34.2717 35.5797 34.6855C35.5661 34.7615 35.5525 34.8426 35.5389 34.9317C35.4846 35.3193 35.4329 35.6833 35.2154 35.8378C34.987 35.995 34.5411 35.8378 34.2964 35.5917C33.5678 34.895 33.633 33.7924 33.6901 32.6296C33.7309 31.9068 33.7717 31.1552 33.6222 30.4428C33.3938 29.3193 32.6216 28.2953 31.5123 27.6353C30.403 26.9753 29.0926 26.7815 27.9425 27.0906C27.8881 27.1037 27.8365 27.1168 27.7794 27.1429H27.7658C27.5754 27.1953 27.3987 27.2451 27.2519 27.2346C26.874 27.2084 26.5885 26.7815 26.3193 26.3154L26.3057 26.2892C26.2242 26.1713 24.4406 23.5733 22.2764 23.0941C20.694 22.7431 19.0437 22.3974 17.8148 21.4651C17.4097 21.1534 17.0426 20.7789 16.6783 20.3782C16.2868 19.9644 15.8817 19.5244 15.3923 19.163C14.7425 18.6707 13.6604 18.4769 12.5103 18.2726C11.0748 18.0133 9.46793 17.7174 8.8725 16.8374C8.58974 16.4236 8.53265 15.8815 8.70937 15.1953C8.85891 14.6139 9.25042 14.5223 10.4413 14.5484C11.1047 14.5615 11.7925 14.5746 12.3227 14.2525C12.997 13.8387 13.2553 13.1656 13.5136 12.5188C13.7039 12.0264 13.8915 11.5733 14.2313 11.2879C15.2863 10.4079 17.0019 10.5257 18.5163 10.6279C20.0306 10.73 21.4771 10.8217 22.1677 9.90505C24.3155 7.04517 26.4417 6.95612 29.6581 7.16302C29.9816 8.27607 30.781 9.18223 31.5395 10.0622C32.1893 10.8007 32.8636 11.5759 33.1871 12.4297C33.4835 13.1814 33.5379 13.9958 33.5787 14.8627V14.8758C33.5923 15.1351 33.6194 15.4048 33.6466 15.6798C31.7271 16.5336 30.2644 18.2019 29.7396 20.1818C29.2394 18.9273 28.3612 17.7881 27.1975 16.8688C25.3052 15.3682 22.8012 14.5642 20.1802 14.6165C20.0578 14.6165 19.9246 14.6663 19.8403 14.758C19.7452 14.8496 19.7071 14.9649 19.7071 15.0932C19.7479 17.2905 20.83 19.3516 22.7495 20.8627C24.5902 22.311 26.9963 23.115 29.5493 23.115C29.6173 23.115 29.9001 23.1019 29.9544 23.0888C32.3742 22.8191 34.3889 21.4206 35.4737 19.4773C35.906 19.8649 36.3927 20.2158 36.8657 20.5511C37.3252 20.8863 37.7983 21.2241 38.2061 21.5855C39.8973 23.0993 40.789 25.4144 40.5443 27.6144C40.4628 28.3267 40.2725 29.0495 40.0713 29.7619C39.8157 30.7073 39.5574 31.6894 39.5438 32.6977C39.5302 33.8893 39.8673 35.0391 40.1936 36.1521C40.3948 36.8487 40.6123 37.5768 40.7211 38.2865C40.8434 39.0749 40.7483 40.0308 40.0985 40.3058C39.8266 40.4236 39.5574 40.3581 39.3807 40.2927C38.9864 40.1355 38.6629 39.8134 38.5025 39.4389C38.1925 38.7003 38.3122 37.8623 38.4073 37.0321L38.4046 37.0295ZM41.1099 35.8824C40.7863 34.7955 40.4872 33.761 40.5036 32.6977C40.5172 31.7916 40.7483 30.9116 41.0038 29.9662C41.205 29.2276 41.4089 28.4786 41.4932 27.6877C41.7651 25.2049 40.7646 22.6017 38.8559 20.8811C38.41 20.4804 37.9098 20.1189 37.4367 19.7811C36.8685 19.3804 36.341 18.9928 35.8951 18.5397C36.167 17.8012 36.3274 17.0129 36.3274 16.1984V15.3315C36.3138 15.2556 36.273 15.1744 36.2051 15.1246C36.1371 15.0722 36.0555 15.0487 35.9604 15.0591L35.7972 15.0722C35.3921 15.1246 34.9843 15.2006 34.5955 15.3053C34.5819 15.122 34.5683 14.9439 34.5547 14.7763C34.5003 13.8858 34.4324 12.9509 34.0952 12.0709C33.7037 11.0626 32.9724 10.235 32.2709 9.43102C31.4471 8.48559 30.6613 7.59515 30.5009 6.50567V6.45329C31.1643 3.34984 29.1605 2.09275 28.0812 1.40658C26.6456 0.526617 24.6989 0.474238 23.228 1.30444C22.687 1.60038 22.2411 2.00108 21.7925 2.37821C21.2922 2.8051 20.8191 3.21889 20.2645 3.46507C19.2639 3.90244 18.0214 3.82649 16.8034 3.73482C15.1938 3.61697 13.5163 3.50174 12.2575 4.5886C11.8904 4.91335 11.6213 5.28524 11.3521 5.65189C11.0965 6.0133 10.8518 6.36424 10.5283 6.6078C9.86488 7.12636 8.9595 7.2023 7.98616 7.28087C7.37985 7.33325 6.75724 7.38301 6.16181 7.55062C5.41685 7.75752 4.94377 8.10584 4.45981 8.49606C4.29668 8.62439 4.11996 8.75534 3.93236 8.88367C3.636 9.09056 3.32605 9.2346 2.99979 9.40222C2.70344 9.54364 2.39349 9.69816 2.06723 9.90505C1.14826 10.4865 0.702368 11.2381 0.754026 12.1443C0.794809 12.778 1.22711 14.4856 4.33747 16.6069V16.62L4.47069 16.7117C4.49788 16.7248 4.51147 16.7379 4.53866 16.751C4.97096 17.0364 5.41685 17.2957 5.72952 17.4371C6.08025 17.5943 6.43098 17.7488 6.79802 17.9033C7.66533 18.2647 8.47283 18.6157 9.17973 19.1185C9.75885 19.5323 10.2754 20.0639 10.7757 20.5799C11.5207 21.342 12.2765 22.1329 13.2906 22.6253C14.1416 23.0391 15.0769 23.2067 15.9823 23.3638C16.8224 23.5052 17.619 23.6493 18.3368 23.9845C18.8262 24.2045 19.2558 24.5292 19.7289 24.8514C20.2563 25.2285 20.8082 25.6292 21.4608 25.8858C22.029 26.1189 22.6788 26.2865 23.3123 26.4306C24.3128 26.6768 25.3378 26.923 25.9605 27.452C26.3112 27.8658 26.7326 28.0989 27.1785 28.125C27.5184 28.1512 27.8147 28.0596 28.0703 27.9836C28.1247 27.9705 28.1654 27.9574 28.2198 27.9443C29.1116 27.6982 30.1284 27.8684 31.0175 28.3817C31.9093 28.9003 32.5047 29.699 32.6814 30.5685C32.8038 31.1787 32.763 31.8754 32.7358 32.5353C32.6678 33.8422 32.6026 35.2014 33.6276 36.1966C34.1687 36.7152 35.1148 37.0111 35.8027 36.5319C36.3573 36.1547 36.4389 35.5498 36.5205 35.005C36.534 34.9291 36.5476 34.8479 36.5476 34.785C36.5884 34.5257 36.738 34.256 36.8875 34.1512C36.9419 34.1119 36.9691 34.112 36.9935 34.125C37.0615 34.1381 37.1703 34.2167 37.2763 34.421C37.6542 35.0941 37.5726 35.974 37.4666 36.8016L37.453 36.8776C37.3307 37.8099 37.2083 38.7789 37.5862 39.7113C37.8418 40.3215 38.3829 40.8505 39.0055 41.0836C39.261 41.1857 39.5193 41.225 39.7613 41.225C40.0033 41.225 40.2507 41.1726 40.4791 41.0836C41.6292 40.5912 41.844 39.2084 41.6699 38.0823C41.5476 37.3437 41.3301 36.5947 41.1153 35.8693H41.1099V35.8824Z" fill="#3E389F"/>
<path d="M37.6503 25.8414C37.6503 26.9413 36.7178 27.8344 35.5677 27.8344C34.4176 27.8344 33.4851 26.944 33.4851 25.8414C33.4851 24.7388 34.4176 23.8484 35.5677 23.8484C36.7178 23.8484 37.6503 24.7388 37.6503 25.8414ZM35.5677 22.916C33.8929 22.916 32.5117 24.2229 32.5117 25.8414C32.5117 27.4599 33.8766 28.7667 35.5677 28.7667C37.2588 28.7667 38.6237 27.4599 38.6237 25.8414C38.6237 24.2229 37.2452 22.916 35.5677 22.916Z" fill="#3E389F"/>
<path d="M26.4108 12.9958C26.4108 11.8958 27.3434 11.0027 28.4935 11.0027C29.6436 11.0027 30.5761 11.8932 30.5761 12.9958C30.5761 14.0983 29.6436 14.9888 28.4935 14.9888C27.3434 14.9888 26.4108 14.0826 26.4108 12.9958ZM28.4935 15.9054C30.1683 15.9054 31.5495 14.5986 31.5495 12.98C31.5495 11.3615 30.1846 10.0547 28.4935 10.0547C26.8024 10.0547 25.4375 11.3615 25.4375 12.98C25.4375 14.5986 26.8024 15.9054 28.4935 15.9054Z" fill="#3E389F"/>
<path d="M18.1269 15.3608C18.1269 16.4608 17.1943 17.3538 16.0443 17.3538C14.8942 17.3538 13.9616 16.4634 13.9616 15.3608C13.9616 14.2582 14.8942 13.3678 16.0443 13.3678C17.1943 13.3678 18.1269 14.2582 18.1269 15.3608ZM16.0443 12.4512C14.3695 12.4512 12.9883 13.758 12.9883 15.3765C12.9883 16.995 14.3531 18.3019 16.0443 18.3019C17.7354 18.3019 19.1002 16.995 19.1002 15.3765C19.1002 13.758 17.7354 12.4512 16.0443 12.4512Z" fill="#3E389F"/>
</g>
<defs>
<clipPath id="clip0_2353_271">
<rect width="198" height="42" fill="white"/>
</clipPath>
</defs>
</svg>
