<svg width="479" height="451" viewBox="0 0 479 451" fill="none" xmlns="http://www.w3.org/2000/svg">
<path d="M248.506 26.9518C246.682 25.9049 244.34 25.9049 242.256 26.9518L227.673 35.5874L217.78 41.0821L203.456 49.7176C201.631 50.7646 199.289 50.7646 197.205 49.7176L186.006 42.9161C184.181 41.8691 182.881 39.7752 182.881 37.4214V24.3381C182.881 22.2442 183.922 20.1503 186.006 18.8434L197.205 12.3018C199.03 11.2548 201.372 11.2548 203.456 12.3018L214.655 19.1033C216.48 20.1503 217.78 22.2442 217.78 24.598V33.2336L227.673 27.479V18.5835C227.673 16.4896 226.631 14.3957 224.548 13.0889L203.714 0.78522C201.889 -0.26174 199.547 -0.26174 197.464 0.78522L176.113 13.3487C174.03 14.3957 172.988 16.4896 172.988 18.5835V43.1834C172.988 45.2773 174.03 47.3713 176.113 48.6781L197.205 60.9817C199.03 62.0287 201.372 62.0287 203.456 60.9817L217.78 52.6061L227.673 46.8515L241.998 38.4758C243.822 37.4288 246.164 37.4288 248.248 38.4758L259.448 45.0174C261.272 46.0644 262.573 48.1583 262.573 50.5121V63.5954C262.573 65.6893 261.531 67.7833 259.448 69.0901L248.514 75.6318C246.689 76.6787 244.347 76.6787 242.264 75.6318L231.064 69.0901C229.239 68.0432 227.939 65.9492 227.939 63.5954V55.2197L218.046 60.9743V69.6099C218.046 71.7038 219.088 73.7977 221.171 75.1046L242.264 87.4082C244.088 88.4552 246.43 88.4552 248.514 87.4082L269.606 75.1046C271.431 74.0576 272.731 71.9637 272.731 69.6099V44.7427C272.731 42.6488 271.689 40.5549 269.606 39.248L248.514 26.9444L248.506 26.9518Z" fill="#7C76DD"/>
<path fill-rule="evenodd" clip-rule="evenodd" d="M376.841 356.895C376.841 390.528 349.343 417.791 315.42 417.791C281.498 417.791 254 390.528 254 356.895C254 323.263 281.498 296 315.42 296C349.343 296 376.841 323.263 376.841 356.895ZM298.013 381.127H286.093C283.591 381.127 282.354 381.127 281.598 380.649C280.779 380.126 280.288 379.26 280.224 378.304C280.179 377.419 280.798 376.346 282.035 374.19L311.471 322.758C312.727 320.575 313.355 319.483 314.156 319.077C315.02 318.644 316.039 318.644 316.904 319.077C317.704 319.483 318.341 320.575 319.588 322.758L325.639 333.232L325.666 333.286C327.022 335.632 327.705 336.813 328.005 338.067C328.332 339.43 328.332 340.864 328.005 342.226C327.705 343.48 327.022 344.68 325.648 347.062L310.188 374.154L310.152 374.226C308.787 376.59 308.105 377.789 307.14 378.692C306.103 379.675 304.847 380.397 303.473 380.803C302.217 381.145 300.816 381.145 298.013 381.145V381.127ZM328.114 381.127H345.193C347.714 381.127 348.979 381.127 349.734 380.631C350.553 380.108 351.062 379.224 351.108 378.268C351.153 377.41 350.544 376.382 349.361 374.352C349.324 374.28 349.279 374.217 349.234 374.145L340.68 359.638L340.58 359.476C339.379 357.464 338.769 356.444 337.996 356.047C337.141 355.614 336.121 355.614 335.266 356.047C334.484 356.453 333.847 357.518 332.591 359.656L324.065 374.163L324.038 374.217C322.791 376.355 322.163 377.419 322.209 378.295C322.272 379.251 322.764 380.135 323.583 380.658C324.32 381.136 325.593 381.136 328.105 381.136L328.114 381.127Z" fill="#B0ADEA"/>
<path d="M62.1872 258.009L77.5964 273.676L38.8077 312.204L23.3984 296.898L62.1872 258V258.009Z" fill="#3E389F"/>
<path d="M85.5682 281.234L100.977 296.901L38.7999 358.66L23.3906 343.355L85.5682 281.225V281.234Z" fill="#3E389F"/>
<path d="M15.4092 304.459L30.8185 320.126L15.4092 335.431L0 320.126L15.4092 304.459Z" fill="#3E389F"/>
<path d="M108.955 304.464L124.364 320.131L62.1866 381.891L46.7773 366.585L108.955 304.455V304.464Z" fill="#3E389F"/>
<path d="M173.814 441.382C187.918 441.382 199.344 430.033 199.344 416.023C199.344 402.013 187.918 390.664 173.814 390.664C159.709 390.664 148.283 402.013 148.283 416.023C148.283 430.033 159.709 441.382 173.814 441.382ZM173.814 450.603C154.587 450.603 139 435.12 139 416.023C139 396.926 154.587 381.443 173.814 381.443C193.04 381.443 208.627 396.926 208.627 416.023C208.627 435.12 193.04 450.603 173.814 450.603Z" fill="#B0ADEA"/>
<path d="M192.38 422.938C206.484 422.938 217.91 411.589 217.91 397.58C217.91 383.57 206.484 372.221 192.38 372.221C178.276 372.221 166.85 383.57 166.85 397.58C166.85 411.589 178.276 422.938 192.38 422.938ZM192.38 432.159C173.154 432.159 157.566 416.677 157.566 397.58C157.566 378.483 173.154 363 192.38 363C211.606 363 227.193 378.483 227.193 397.58C227.193 416.677 211.606 432.159 192.38 432.159Z" fill="#3E389F"/>
<path d="M193.53 432.16C195.94 429.253 197.672 425.852 198.586 422.193C202.264 421.278 205.687 419.565 208.621 417.17C208.49 421.401 207.569 425.573 205.909 429.48C201.983 431.121 197.789 432.036 193.523 432.166L193.53 432.16ZM167.601 391.409C163.923 392.324 160.5 394.037 157.566 396.431C157.697 392.201 158.618 388.028 160.278 384.128C164.204 382.487 168.411 381.572 172.664 381.436C170.253 384.343 168.522 387.743 167.607 391.403L167.601 391.409Z" fill="#3E389F"/>
<path d="M53.2832 29.4023L52.2305 32.9692V136.267L53.2832 137.325L101.556 108.976L53.2832 29.4023Z" fill="#B0ADEA"/>
<path d="M53.2847 29.4023L5 108.976L53.2847 137.325V87.18V29.4023Z" fill="#7C76DD"/>
<path d="M53.284 146.396L52.6875 147.116V183.911L53.284 185.642L101.592 118.059L53.284 146.396Z" fill="#3E389F"/>
<path d="M53.2847 185.642V146.396L5 118.059L53.2847 185.642Z" fill="#7C76DD"/>
<path d="M53.2852 137.33L101.558 108.981L53.2852 87.1855V137.33Z" fill="#3E389F"/>
<path d="M5 108.981L53.2847 137.33V87.1855L5 108.981Z" fill="#B0ADEA"/>
<path d="M170.074 203.852V222.66L188.625 233.406L207.176 222.66V203.852L188.625 214.598L170.074 203.852Z" fill="#3E389F"/>
<path d="M186.309 191.949L172.402 200.011L186.309 208.073V191.949Z" fill="#3E389F"/>
<path d="M170.074 180.047V196.171L183.99 188.109L170.074 180.047Z" fill="#3E389F"/>
<path d="M190.953 208.073L204.859 200.011L190.953 191.949V208.073Z" fill="#3E389F"/>
<path d="M207.176 196.171V180.047L193.27 188.109L207.176 196.171Z" fill="#3E389F"/>
<path d="M172.402 176.206L188.626 185.424L204.859 176.206L188.626 166.615L172.402 176.206Z" fill="#3E389F"/>
<path d="M188.625 138.588C154.473 138.588 126.789 166.086 126.789 200.008C126.789 233.931 154.473 261.429 188.625 261.429C222.777 261.429 250.461 233.931 250.461 200.008C250.461 166.086 222.777 138.588 188.625 138.588ZM211.811 224.959L188.625 238.007L165.439 224.959V174.676L188.625 161.627L211.811 174.676V224.968V224.959Z" fill="#3E389F"/>
<path d="M390.808 95.1574C393.937 95.1574 396.985 94.1242 399.453 92.2258L379.615 72.5215C374.833 78.6571 375.978 87.5 382.156 92.2498C384.647 94.1162 387.671 95.1574 390.8 95.1574H390.808Z" fill="#3E389F"/>
<path d="M449.816 81.0983C449.816 77.9905 448.776 74.9627 446.865 72.5117L427.027 92.2161C433.204 96.9659 442.083 95.8285 446.865 89.6929C448.776 87.2419 449.816 84.2142 449.816 81.1063V81.0983Z" fill="#3E389F"/>
<path d="M459.819 59.6465L451.045 68.3612C458.117 76.7716 456.996 89.3071 448.529 96.3318C441.102 102.499 430.32 102.499 422.893 96.3318L413.257 105.904L403.644 96.3558C395.177 103.38 382.557 102.267 375.485 93.8567C369.275 86.4796 369.275 75.7704 375.485 68.3933L370.985 63.9238L366.711 59.6545C361.55 68.0969 358.824 77.7969 358.824 87.6731C358.824 117.534 383.194 141.74 413.257 141.74C443.32 141.74 467.689 117.534 467.689 87.6731C467.713 77.7969 464.972 68.0889 459.827 59.6545L459.819 59.6465Z" fill="#3E389F"/>
<path d="M452.615 50.3437C431.882 28.741 397.448 27.932 375.7 48.5255C375.062 49.1342 374.45 49.7349 373.869 50.3437C372.522 51.7614 371.248 53.2273 370.055 54.7652L413.246 97.6902L456.437 54.7652C455.268 53.2273 453.969 51.7614 452.623 50.3437H452.615ZM413.238 40.6678C425.955 40.6678 437.809 45.5458 446.712 54.4368L413.238 87.6858L379.764 54.4368C388.667 45.5458 400.521 40.6678 413.238 40.6678Z" fill="#3E389F"/>
<path d="M446.09 286.535H441.704L440.316 293.05H444.51C445.544 293.05 446.422 292.778 447.183 292.212C447.965 291.647 448.467 290.853 448.726 289.803C448.807 289.399 448.844 289.025 448.844 288.716C448.844 288.018 448.63 287.475 448.216 287.108C447.81 286.718 447.087 286.527 446.09 286.527V286.535Z" fill="#3E389F"/>
<path d="M419.591 286.326C418.225 286.326 417.059 286.729 416.084 287.529C415.132 288.321 414.445 289.546 414.039 291.21C413.589 292.838 413.16 294.811 412.71 297.172C412.614 297.656 412.555 298.162 412.555 298.705C412.533 300.949 413.721 302.056 416.062 302.056C417.428 302.056 418.579 301.653 419.532 300.853C420.506 300.061 421.208 298.837 421.621 297.172C422.19 294.884 422.618 292.912 422.906 291.21C423.002 290.704 423.061 290.183 423.061 289.641C423.061 287.433 421.909 286.326 419.591 286.326Z" fill="#3E389F"/>
<path d="M429.75 246C402.824 246 381 267.677 381 294.422C381 321.167 402.824 342.844 429.75 342.844C456.675 342.844 478.499 321.167 478.499 294.422C478.499 267.677 456.675 246 429.75 246ZM429.69 291.107C429.321 293.256 428.893 295.368 428.362 297.399C427.505 300.714 426.043 303.207 423.932 304.857C421.842 306.485 419.037 307.277 415.53 307.277C412.621 307.277 410.244 306.603 408.391 305.246C406.56 303.867 405.644 301.895 405.644 299.357C405.644 298.815 405.703 298.177 405.821 297.399C406.132 295.654 406.582 293.564 407.165 291.107C408.819 284.441 413.116 281.112 420.019 281.112C421.894 281.112 423.585 281.42 425.069 282.058C426.553 282.659 427.719 283.591 428.576 284.83C429.432 286.047 429.86 287.499 429.86 289.186C429.86 289.692 429.801 290.33 429.683 291.1L429.69 291.107ZM455.509 289.89C454.903 292.677 453.678 294.73 451.802 296.072C449.971 297.407 447.454 298.067 444.257 298.067H439.325L437.649 306.031C437.59 306.302 437.472 306.515 437.243 306.691C437.029 306.867 436.793 306.94 436.542 306.94H431.573C431.3 306.94 431.108 306.859 430.946 306.691C430.827 306.5 430.791 306.287 430.827 306.031L435.877 282.403C435.914 282.131 436.055 281.919 436.283 281.743C436.498 281.567 436.734 281.493 436.985 281.493H446.716C449.425 281.493 451.588 282.058 453.227 283.158C454.881 284.28 455.723 285.886 455.723 287.998C455.723 288.599 455.641 289.237 455.509 289.897V289.89Z" fill="#3E389F"/>
<path d="M346.23 201.356L353.136 189.714L371.756 218.527V224.057L371.708 186.014C371.666 185.086 371.163 184.233 370.375 183.734L336.846 164.581C336.065 164.2 335.067 164.2 334.286 164.595C334.181 164.65 334.084 164.706 333.986 164.768L333.867 164.844L301.323 183.575L301.197 183.63C301.037 183.707 300.869 183.797 300.716 183.907C300.102 184.344 299.69 184.995 299.557 185.723C299.537 185.834 299.523 185.945 299.516 186.063L299.564 217.065L316.908 190.359C319.091 186.818 323.849 185.675 328.265 185.737L333.449 185.875L302.906 234.535L306.506 236.593L337.418 185.924L351.078 185.875L320.25 237.819L333.1 245.158L334.635 246.038C335.284 246.301 336.051 246.315 336.707 246.079L370.703 226.51L364.201 230.252L346.223 201.37L346.23 201.356ZM348.867 239.067L335.891 218.839L343.809 205.486L360.852 232.165L348.867 239.067Z" fill="#3E389F"/>
<path d="M335.891 218.829L348.867 239.063L360.852 232.161L343.809 205.482L335.891 218.829Z" fill="#8D89D0"/>
<path d="M371.771 224.052V218.522L353.137 189.709L346.23 201.351L364.209 230.233L370.711 226.491C371.346 225.978 371.736 225.223 371.771 224.405V224.045V224.052Z" fill="#8D89D0"/>
<path d="M293.734 229.262L302.915 234.515L333.458 185.856L328.275 185.717C323.859 185.655 319.101 186.798 316.917 190.339L299.574 217.046L293.741 225.95V229.262H293.734Z" fill="#B0ADEA"/>
<path d="M351.088 185.861L337.428 185.91L306.516 236.579L317.322 242.753L320.259 237.805L351.088 185.861Z" fill="#B0ADEA"/>
<path d="M377.527 185.791C377.416 182.95 375.867 180.352 373.439 178.841L339.471 159.438C337.071 158.239 334.078 158.239 331.678 159.438C331.392 159.584 298.645 178.446 298.645 178.446C298.191 178.661 297.752 178.917 297.347 179.208C295.185 180.746 293.866 183.144 293.727 185.77V225.955L299.559 217.05L299.51 186.048C299.517 185.937 299.531 185.826 299.552 185.715C299.684 184.987 300.096 184.336 300.71 183.892C300.863 183.782 334.169 164.635 334.28 164.58C335.062 164.192 336.059 164.185 336.841 164.566L370.369 183.719C371.165 184.218 371.66 185.071 371.702 185.999V224.403C371.66 225.22 371.339 225.969 370.697 226.488L364.195 230.23L360.84 232.164L348.854 239.065L336.694 246.064C336.039 246.3 335.271 246.286 334.622 246.023L320.237 237.804L317.3 242.752L330.227 250.146C330.653 250.388 331.036 250.603 331.35 250.776C331.832 251.047 332.167 251.227 332.278 251.282C333.199 251.726 334.518 251.982 335.711 251.982C336.806 251.982 337.866 251.781 338.878 251.393L374.186 231.083C376.216 229.523 377.402 227.167 377.513 224.624V185.791H377.527Z" fill="#B0ADEA"/>
</svg>
