<svg width="463" height="495" viewBox="0 0 463 495" fill="none" xmlns="http://www.w3.org/2000/svg">
<path d="M243.506 26.9518C241.682 25.9049 239.34 25.9049 237.256 26.9518L222.673 35.5874L212.78 41.0821L198.456 49.7176C196.631 50.7646 194.289 50.7646 192.205 49.7176L181.006 42.9161C179.181 41.8691 177.881 39.7752 177.881 37.4214V24.3381C177.881 22.2442 178.922 20.1503 181.006 18.8434L192.205 12.3018C194.03 11.2548 196.372 11.2548 198.456 12.3018L209.655 19.1033C211.48 20.1503 212.78 22.2442 212.78 24.598V33.2336L222.673 27.479V18.5835C222.673 16.4896 221.631 14.3957 219.548 13.0889L198.714 0.78522C196.889 -0.26174 194.547 -0.26174 192.464 0.78522L171.113 13.3487C169.03 14.3957 167.988 16.4896 167.988 18.5835V43.1834C167.988 45.2773 169.03 47.3713 171.113 48.6781L192.205 60.9817C194.03 62.0287 196.372 62.0287 198.456 60.9817L212.78 52.6061L222.673 46.8515L236.998 38.4758C238.822 37.4288 241.164 37.4288 243.248 38.4758L254.448 45.0174C256.272 46.0644 257.573 48.1583 257.573 50.5121V63.5954C257.573 65.6893 256.531 67.7833 254.448 69.0901L243.514 75.6318C241.689 76.6787 239.347 76.6787 237.264 75.6318L226.064 69.0901C224.239 68.0432 222.939 65.9492 222.939 63.5954V55.2197L213.046 60.9743V69.6099C213.046 71.7038 214.088 73.7977 216.171 75.1046L237.264 87.4082C239.088 88.4552 241.43 88.4552 243.514 87.4082L264.606 75.1046C266.431 74.0576 267.731 71.9637 267.731 69.6099V44.7427C267.731 42.6488 266.689 40.5549 264.606 39.248L243.514 26.9444L243.506 26.9518Z" fill="#7C76DD"/>
<path fill-rule="evenodd" clip-rule="evenodd" d="M316.028 352.774C316.028 386.407 288.53 413.67 254.608 413.67C220.686 413.67 193.188 386.407 193.188 352.774C193.188 319.142 220.686 291.879 254.608 291.879C288.53 291.879 316.028 319.142 316.028 352.774ZM237.201 377.006H225.281C222.779 377.006 221.541 377.006 220.786 376.528C219.967 376.005 219.475 375.139 219.412 374.183C219.366 373.298 219.985 372.225 221.223 370.069L250.659 318.637C251.915 316.454 252.542 315.362 253.343 314.956C254.208 314.523 255.227 314.523 256.091 314.956C256.892 315.362 257.529 316.454 258.775 318.637L264.827 329.111L264.854 329.165C266.21 331.511 266.892 332.692 267.192 333.946C267.52 335.309 267.52 336.743 267.192 338.105C266.892 339.359 266.21 340.559 264.836 342.941L249.376 370.033L249.339 370.105C247.975 372.468 247.292 373.668 246.328 374.57C245.29 375.554 244.035 376.276 242.661 376.681C241.405 377.024 240.004 377.024 237.201 377.024V377.006ZM267.301 377.006H284.381C286.901 377.006 288.166 377.006 288.921 376.51C289.74 375.987 290.25 375.103 290.296 374.146C290.341 373.289 289.731 372.261 288.548 370.231C288.512 370.159 288.467 370.096 288.421 370.024L279.868 355.517L279.768 355.355C278.566 353.343 277.957 352.323 277.183 351.926C276.328 351.493 275.309 351.493 274.454 351.926C273.671 352.332 273.034 353.397 271.778 355.535L263.252 370.042L263.225 370.096C261.978 372.234 261.351 373.298 261.396 374.173C261.46 375.13 261.951 376.014 262.77 376.537C263.507 377.015 264.781 377.015 267.292 377.015L267.301 377.006Z" fill="#B0ADEA"/>
<path d="M69.5348 267.736L84.9441 283.403L46.1553 321.931L30.7461 306.625L69.5348 267.727V267.736Z" fill="#3E389F"/>
<path d="M92.9159 290.96L108.325 306.627L46.1475 368.387L30.7383 353.081L92.9159 290.951V290.96Z" fill="#3E389F"/>
<path d="M22.7569 314.186L38.1661 329.852L22.7569 345.158L7.34766 329.852L22.7569 314.186Z" fill="#3E389F"/>
<path d="M116.303 314.191L131.712 329.858L69.5342 391.618L54.125 376.312L116.303 314.182V314.191Z" fill="#3E389F"/>
<path d="M402.286 327.216C416.391 327.216 427.817 315.867 427.817 301.857C427.817 287.847 416.391 276.498 402.286 276.498C388.182 276.498 376.756 287.847 376.756 301.857C376.756 315.867 388.182 327.216 402.286 327.216ZM402.286 336.437C383.06 336.437 367.473 320.954 367.473 301.857C367.473 282.76 383.06 267.277 402.286 267.277C421.512 267.277 437.1 282.76 437.1 301.857C437.1 320.954 421.512 336.437 402.286 336.437Z" fill="#B0ADEA"/>
<path d="M420.853 308.772C434.957 308.772 446.383 297.423 446.383 283.414C446.383 269.404 434.957 258.055 420.853 258.055C406.748 258.055 395.322 269.404 395.322 283.414C395.322 297.423 406.748 308.772 420.853 308.772ZM420.853 317.993C401.626 317.993 386.039 302.511 386.039 283.414C386.039 264.317 401.626 248.834 420.853 248.834C440.079 248.834 455.666 264.317 455.666 283.414C455.666 302.511 440.079 317.993 420.853 317.993Z" fill="#3E389F"/>
<path d="M422.002 317.994C424.413 315.087 426.144 311.686 427.059 308.027C430.737 307.112 434.16 305.399 437.093 303.004C436.963 307.235 436.041 311.407 434.382 315.314C430.456 316.955 426.262 317.87 421.996 318L422.002 317.994ZM396.074 277.243C392.396 278.158 388.972 279.871 386.039 282.265C386.17 278.035 387.091 273.862 388.75 269.962C392.676 268.321 396.884 267.406 401.136 267.27C398.726 270.177 396.995 273.577 396.08 277.237L396.074 277.243Z" fill="#3E389F"/>
<path d="M48.2832 29.4023L47.2305 32.9692V136.267L48.2832 137.325L96.5562 108.976L48.2832 29.4023Z" fill="#B0ADEA"/>
<path d="M48.2847 29.4023L0 108.976L48.2847 137.325V87.18V29.4023Z" fill="#7C76DD"/>
<path d="M48.284 146.396L47.6875 147.116V183.911L48.284 185.642L96.5921 118.059L48.284 146.396Z" fill="#3E389F"/>
<path d="M48.2847 185.642V146.396L0 118.059L48.2847 185.642Z" fill="#7C76DD"/>
<path d="M48.2852 137.33L96.5582 108.981L48.2852 87.1855V137.33Z" fill="#3E389F"/>
<path d="M0 108.981L48.2847 137.33V87.1855L0 108.981Z" fill="#B0ADEA"/>
<path d="M165.074 203.852V222.66L183.625 233.406L202.176 222.66V203.852L183.625 214.598L165.074 203.852Z" fill="#3E389F"/>
<path d="M181.309 191.949L167.402 200.011L181.309 208.073V191.949Z" fill="#3E389F"/>
<path d="M165.074 180.047V196.171L178.99 188.109L165.074 180.047Z" fill="#3E389F"/>
<path d="M185.953 208.073L199.859 200.011L185.953 191.949V208.073Z" fill="#3E389F"/>
<path d="M202.176 196.171V180.047L188.27 188.109L202.176 196.171Z" fill="#3E389F"/>
<path d="M167.402 176.206L183.626 185.424L199.859 176.206L183.626 166.615L167.402 176.206Z" fill="#3E389F"/>
<path d="M183.625 138.588C149.473 138.588 121.789 166.086 121.789 200.008C121.789 233.931 149.473 261.429 183.625 261.429C217.777 261.429 245.461 233.931 245.461 200.008C245.461 166.086 217.777 138.588 183.625 138.588ZM206.811 224.959L183.625 238.007L160.439 224.959V174.676L183.625 161.627L206.811 174.676V224.968V224.959Z" fill="#3E389F"/>
<path d="M385.808 95.1574C388.937 95.1574 391.985 94.1242 394.453 92.2258L374.615 72.5215C369.833 78.6571 370.978 87.5 377.156 92.2498C379.647 94.1162 382.671 95.1574 385.8 95.1574H385.808Z" fill="#3E389F"/>
<path d="M444.816 81.0983C444.816 77.9905 443.776 74.9627 441.865 72.5117L422.027 92.2161C428.204 96.9659 437.083 95.8285 441.865 89.6929C443.776 87.2419 444.816 84.2142 444.816 81.1063V81.0983Z" fill="#3E389F"/>
<path d="M454.819 59.6465L446.045 68.3612C453.117 76.7716 451.996 89.3071 443.529 96.3318C436.102 102.499 425.32 102.499 417.893 96.3318L408.257 105.904L398.644 96.3558C390.177 103.38 377.557 102.267 370.485 93.8567C364.275 86.4796 364.275 75.7704 370.485 68.3933L365.985 63.9238L361.711 59.6545C356.55 68.0969 353.824 77.7969 353.824 87.6731C353.824 117.534 378.194 141.74 408.257 141.74C438.32 141.74 462.689 117.534 462.689 87.6731C462.713 77.7969 459.972 68.0889 454.827 59.6545L454.819 59.6465Z" fill="#3E389F"/>
<path d="M447.615 50.3437C426.882 28.741 392.448 27.932 370.7 48.5255C370.062 49.1342 369.45 49.7349 368.869 50.3437C367.522 51.7614 366.248 53.2273 365.055 54.7652L408.246 97.6902L451.437 54.7652C450.268 53.2273 448.969 51.7614 447.623 50.3437H447.615ZM408.238 40.6678C420.955 40.6678 432.809 45.5458 441.712 54.4368L408.238 87.6858L374.764 54.4368C383.667 45.5458 395.521 40.6678 408.238 40.6678Z" fill="#3E389F"/>
<path d="M401.767 391.621C391.15 391.615 382.536 400.023 382.51 410.413V431.249C380.527 431.379 378.497 431.463 376.395 431.463C374.293 431.463 372.277 431.547 370.28 431.664V410.413C370.108 399.997 361.349 391.692 350.719 391.861C340.328 392.022 331.939 400.237 331.773 410.413V460.21C331.945 470.625 340.704 478.93 351.334 478.762C361.726 478.6 370.115 470.386 370.28 460.21V439.373C372.263 439.244 374.293 439.16 376.395 439.16C378.497 439.16 380.514 439.075 382.51 438.959V460.21C382.682 470.625 391.441 478.93 402.071 478.762C412.463 478.6 420.852 470.386 421.017 460.21V410.413C420.99 400.023 412.377 391.615 401.767 391.621ZM351.03 399.324C357.297 399.324 362.381 404.283 362.394 410.419V432.486C356.762 433.282 351.262 434.81 346.033 437.017C343.765 437.988 341.636 439.237 339.686 440.726V410.419C339.7 404.295 344.777 399.331 351.03 399.324ZM362.394 460.217C362.394 466.36 357.31 471.344 351.037 471.35C344.763 471.35 339.673 466.373 339.667 460.23V455.226C339.667 450.811 343.236 446.636 349.219 444.034C353.436 442.254 357.859 440.985 362.394 440.26V460.223V460.217ZM401.767 471.312C395.5 471.312 390.416 466.353 390.403 460.217V438.15C396.035 437.354 401.535 435.826 406.764 433.619C409.032 432.648 411.16 431.398 413.11 429.91V460.21C413.097 466.334 408.02 471.299 401.767 471.305V471.312ZM403.578 426.582C399.36 428.362 394.938 429.631 390.403 430.356V410.419C390.403 404.276 395.487 399.292 401.76 399.285C408.034 399.285 413.124 404.263 413.13 410.406V415.41C413.13 419.805 409.561 423.987 403.578 426.576V426.582Z" fill="#3E389F"/>
<path d="M165.628 447.506H161.967L160.809 452.945H164.309C165.172 452.945 165.906 452.718 166.54 452.246C167.194 451.774 167.613 451.111 167.828 450.235C167.896 449.897 167.927 449.585 167.927 449.327C167.927 448.745 167.748 448.291 167.403 447.984C167.064 447.659 166.46 447.5 165.628 447.5V447.506Z" fill="#3E389F"/>
<path d="M143.507 447.332C142.366 447.332 141.393 447.669 140.579 448.336C139.784 448.997 139.211 450.019 138.872 451.409C138.496 452.768 138.138 454.415 137.762 456.386C137.682 456.79 137.633 457.213 137.633 457.666C137.615 459.539 138.607 460.463 140.561 460.463C141.701 460.463 142.662 460.127 143.457 459.459C144.271 458.798 144.856 457.776 145.201 456.386C145.676 454.476 146.033 452.829 146.274 451.409C146.354 450.987 146.403 450.552 146.403 450.099C146.403 448.256 145.442 447.332 143.507 447.332Z" fill="#3E389F"/>
<path d="M151.988 413.668C129.511 413.668 111.293 431.764 111.293 454.09C111.293 476.416 129.511 494.512 151.988 494.512C174.465 494.512 192.684 476.416 192.684 454.09C192.684 431.764 174.465 413.668 151.988 413.668ZM151.939 451.323C151.631 453.117 151.273 454.88 150.83 456.575C150.115 459.342 148.894 461.424 147.132 462.801C145.388 464.16 143.046 464.821 140.118 464.821C137.69 464.821 135.705 464.258 134.158 463.126C132.63 461.975 131.866 460.328 131.866 458.21C131.866 457.757 131.915 457.224 132.014 456.575C132.272 455.118 132.648 453.374 133.135 451.323C134.516 445.758 138.103 442.979 143.865 442.979C145.431 442.979 146.842 443.236 148.081 443.769C149.32 444.271 150.294 445.048 151.008 446.083C151.723 447.099 152.081 448.311 152.081 449.719C152.081 450.141 152.032 450.674 151.933 451.317L151.939 451.323ZM173.492 450.307C172.986 452.633 171.963 454.347 170.398 455.467C168.869 456.582 166.768 457.132 164.099 457.132H159.982L158.583 463.781C158.534 464.007 158.435 464.185 158.244 464.332C158.065 464.479 157.868 464.54 157.659 464.54H153.511C153.283 464.54 153.122 464.472 152.987 464.332C152.888 464.172 152.857 463.995 152.888 463.781L157.104 444.056C157.135 443.83 157.252 443.652 157.443 443.505C157.622 443.359 157.819 443.297 158.028 443.297H166.151C168.413 443.297 170.219 443.769 171.587 444.687C172.968 445.624 173.67 446.964 173.67 448.727C173.67 449.229 173.603 449.762 173.492 450.313V450.307Z" fill="#3E389F"/>
<path d="M341.23 201.356L348.136 189.714L366.756 218.527V224.057L366.708 186.014C366.666 185.086 366.163 184.233 365.375 183.734L331.846 164.581C331.065 164.2 330.067 164.2 329.286 164.595C329.181 164.65 329.084 164.706 328.986 164.768L328.867 164.844L296.323 183.575L296.197 183.63C296.037 183.707 295.869 183.797 295.716 183.907C295.102 184.344 294.69 184.995 294.557 185.723C294.537 185.834 294.523 185.945 294.516 186.063L294.564 217.065L311.908 190.359C314.091 186.818 318.849 185.675 323.265 185.737L328.449 185.875L297.906 234.535L301.506 236.593L332.418 185.924L346.078 185.875L315.25 237.819L328.1 245.158L329.635 246.038C330.284 246.301 331.051 246.315 331.707 246.079L365.703 226.51L359.201 230.252L341.223 201.37L341.23 201.356ZM343.867 239.067L330.891 218.839L338.809 205.486L355.852 232.165L343.867 239.067Z" fill="#3E389F"/>
<path d="M330.891 218.829L343.867 239.063L355.852 232.161L338.809 205.482L330.891 218.829Z" fill="#8D89D0"/>
<path d="M366.771 224.052V218.522L348.137 189.709L341.23 201.351L359.209 230.233L365.711 226.491C366.346 225.978 366.736 225.223 366.771 224.405V224.045V224.052Z" fill="#8D89D0"/>
<path d="M288.734 229.262L297.915 234.515L328.458 185.856L323.275 185.717C318.859 185.655 314.101 186.798 311.917 190.339L294.574 217.046L288.741 225.95V229.262H288.734Z" fill="#B0ADEA"/>
<path d="M346.088 185.861L332.428 185.91L301.516 236.579L312.322 242.753L315.259 237.805L346.088 185.861Z" fill="#B0ADEA"/>
<path d="M372.527 185.791C372.416 182.95 370.867 180.352 368.439 178.841L334.471 159.438C332.071 158.239 329.078 158.239 326.678 159.438C326.392 159.584 293.645 178.446 293.645 178.446C293.191 178.661 292.752 178.917 292.347 179.208C290.185 180.746 288.866 183.144 288.727 185.77V225.955L294.559 217.05L294.51 186.048C294.517 185.937 294.531 185.826 294.552 185.715C294.684 184.987 295.096 184.336 295.71 183.892C295.863 183.782 329.169 164.635 329.28 164.58C330.062 164.192 331.059 164.185 331.841 164.566L365.369 183.719C366.165 184.218 366.66 185.071 366.702 185.999V224.403C366.66 225.22 366.339 225.969 365.697 226.488L359.195 230.23L355.84 232.164L343.854 239.065L331.694 246.064C331.039 246.3 330.271 246.286 329.622 246.023L315.237 237.804L312.3 242.752L325.227 250.146C325.653 250.388 326.036 250.603 326.35 250.776C326.832 251.047 327.167 251.227 327.278 251.282C328.199 251.726 329.518 251.982 330.711 251.982C331.806 251.982 332.866 251.781 333.878 251.393L369.186 231.083C371.216 229.523 372.402 227.167 372.513 224.624V185.791H372.527Z" fill="#B0ADEA"/>
</svg>
