<svg width="1137" height="446" viewBox="0 0 1137 446" fill="none" xmlns="http://www.w3.org/2000/svg">
<mask id="mask0_2353_110" style="mask-type:alpha" maskUnits="userSpaceOnUse" x="0" y="0" width="1352" height="446">
<mask id="path-1-inside-1_2353_110" fill="white">
<path d="M888.91 2.00604L1349.82 445.89L1351.97 443.933L891.07 0.0488281L888.92 2.00604H888.91ZM790.14 2.00604L1251.05 445.89L1253.2 443.933L792.3 0.0488281L790.15 2.00604H790.14ZM855.98 2.00604L1316.89 445.89L1319.04 443.933L858.15 0.0488281L856 2.00604H855.98ZM823.06 2.00604L1283.97 445.89L1286.12 443.933L825.22 0.0488281L823.07 2.00604H823.06ZM757.22 2.00604L1218.13 445.89L1220.28 443.933L759.38 0.0488281L757.23 2.00604H757.22ZM658.45 2.00604L1119.36 445.89L1121.51 443.933L660.61 0.0488281L658.46 2.00604H658.45ZM724.29 2.00604L1185.2 445.89L1187.35 443.933L726.46 0.0488281L724.31 2.00604H724.29ZM691.37 2.00604L1152.28 445.89L1154.43 443.933L693.54 0.0488281L691.39 2.00604H691.37ZM625.53 2.00604L1086.44 445.89L1088.59 443.933L627.69 0.0488281L625.54 2.00604H625.53ZM526.76 2.00604L987.67 445.89L989.82 443.933L528.93 0.0488281L526.78 2.00604H526.76ZM592.6 2.00604L1053.51 445.89L1055.66 443.933L594.77 0.0488281L592.62 2.00604H592.6ZM559.68 2.00604L1020.59 445.89L1022.74 443.933L561.85 0.0488281L559.7 2.00604H559.68ZM493.84 2.00604L954.75 445.89L956.9 443.933L496 0.0488281L493.85 2.00604H493.84ZM395.07 2.00604L855.98 445.89L858.13 443.933L397.24 0.0488281L395.09 2.00604H395.07ZM460.91 2.00604L921.82 445.89L923.97 443.933L463.08 0.0488281L460.93 2.00604H460.91ZM427.99 2.00604L888.9 445.89L891.05 443.933L430.16 0.0488281L428.01 2.00604H427.99ZM362.15 2.00604L823.06 445.89L825.21 443.933L364.32 0.0488281L362.17 2.00604H362.15ZM263.38 2.00604L724.29 445.89L726.44 443.933L265.55 0.0488281L263.4 2.00604H263.38ZM329.22 2.00604L790.13 445.89L792.28 443.933L331.39 0.0488281L329.24 2.00604H329.22ZM296.3 2.00604L757.21 445.89L759.36 443.933L298.47 0.0488281L296.32 2.00604H296.3ZM230.46 2.00604L691.37 445.89L693.52 443.933L232.63 0.0488281L230.48 2.00604H230.46ZM131.69 2.00604L592.6 445.89L594.75 443.933L133.86 0.0488281L131.71 2.00604H131.69ZM197.53 2.00604L658.44 445.89L660.59 443.933L199.71 0.0488281L197.56 2.00604H197.53ZM164.61 2.00604L625.52 445.89L627.67 443.933L166.78 0.0488281L164.63 2.00604H164.61ZM98.77 2.00604L559.68 445.89L561.83 443.933L100.94 0.0488281L98.79 2.00604H98.77ZM0 2.00604L460.91 445.89L463.06 443.933L2.17 0.0488281L0.0199966 2.00604H0ZM65.84 2.00604L526.75 445.89L528.9 443.933L68.02 0.0488281L65.87 2.00604H65.84ZM32.92 2.00604L493.83 445.89L495.98 443.933L35.09 0.0488281L32.94 2.00604H32.92Z"/>
</mask>
<path d="M888.91 2.00604L1349.82 445.89L1351.97 443.933L891.07 0.0488281L888.92 2.00604H888.91ZM790.14 2.00604L1251.05 445.89L1253.2 443.933L792.3 0.0488281L790.15 2.00604H790.14ZM855.98 2.00604L1316.89 445.89L1319.04 443.933L858.15 0.0488281L856 2.00604H855.98ZM823.06 2.00604L1283.97 445.89L1286.12 443.933L825.22 0.0488281L823.07 2.00604H823.06ZM757.22 2.00604L1218.13 445.89L1220.28 443.933L759.38 0.0488281L757.23 2.00604H757.22ZM658.45 2.00604L1119.36 445.89L1121.51 443.933L660.61 0.0488281L658.46 2.00604H658.45ZM724.29 2.00604L1185.2 445.89L1187.35 443.933L726.46 0.0488281L724.31 2.00604H724.29ZM691.37 2.00604L1152.28 445.89L1154.43 443.933L693.54 0.0488281L691.39 2.00604H691.37ZM625.53 2.00604L1086.44 445.89L1088.59 443.933L627.69 0.0488281L625.54 2.00604H625.53ZM526.76 2.00604L987.67 445.89L989.82 443.933L528.93 0.0488281L526.78 2.00604H526.76ZM592.6 2.00604L1053.51 445.89L1055.66 443.933L594.77 0.0488281L592.62 2.00604H592.6ZM559.68 2.00604L1020.59 445.89L1022.74 443.933L561.85 0.0488281L559.7 2.00604H559.68ZM493.84 2.00604L954.75 445.89L956.9 443.933L496 0.0488281L493.85 2.00604H493.84ZM395.07 2.00604L855.98 445.89L858.13 443.933L397.24 0.0488281L395.09 2.00604H395.07ZM460.91 2.00604L921.82 445.89L923.97 443.933L463.08 0.0488281L460.93 2.00604H460.91ZM427.99 2.00604L888.9 445.89L891.05 443.933L430.16 0.0488281L428.01 2.00604H427.99ZM362.15 2.00604L823.06 445.89L825.21 443.933L364.32 0.0488281L362.17 2.00604H362.15ZM263.38 2.00604L724.29 445.89L726.44 443.933L265.55 0.0488281L263.4 2.00604H263.38ZM329.22 2.00604L790.13 445.89L792.28 443.933L331.39 0.0488281L329.24 2.00604H329.22ZM296.3 2.00604L757.21 445.89L759.36 443.933L298.47 0.0488281L296.32 2.00604H296.3ZM230.46 2.00604L691.37 445.89L693.52 443.933L232.63 0.0488281L230.48 2.00604H230.46ZM131.69 2.00604L592.6 445.89L594.75 443.933L133.86 0.0488281L131.71 2.00604H131.69ZM197.53 2.00604L658.44 445.89L660.59 443.933L199.71 0.0488281L197.56 2.00604H197.53ZM164.61 2.00604L625.52 445.89L627.67 443.933L166.78 0.0488281L164.63 2.00604H164.61ZM98.77 2.00604L559.68 445.89L561.83 443.933L100.94 0.0488281L98.79 2.00604H98.77ZM0 2.00604L460.91 445.89L463.06 443.933L2.17 0.0488281L0.0199966 2.00604H0ZM65.84 2.00604L526.75 445.89L528.9 443.933L68.02 0.0488281L65.87 2.00604H65.84ZM32.92 2.00604L493.83 445.89L495.98 443.933L35.09 0.0488281L32.94 2.00604H32.92Z" fill="#8B88C3"/>
<path d="M921.84 1.50604H921.83V2.50604H921.84V1.50604ZM428.347 446.26L430.497 444.303L429.823 443.563L427.673 445.521L428.347 446.26ZM888.91 2.00604V1.00604H886.43L888.216 2.72632L888.91 2.00604ZM1349.82 445.89L1349.13 446.611L1349.8 447.26L1350.49 446.63L1349.82 445.89ZM1351.97 443.933L1352.64 444.673L1353.43 443.954L1352.66 443.213L1351.97 443.933ZM891.07 0.0488281L891.764 -0.671449L891.089 -1.32099L890.397 -0.69065L891.07 0.0488281ZM888.92 2.00604V3.00604H889.307L889.593 2.74552L888.92 2.00604ZM790.14 2.00604V1.00604H787.66L789.446 2.72632L790.14 2.00604ZM1251.05 445.89L1250.36 446.611L1251.03 447.26L1251.72 446.63L1251.05 445.89ZM1253.2 443.933L1253.87 444.673L1254.66 443.954L1253.89 443.213L1253.2 443.933ZM792.3 0.0488281L792.994 -0.671449L792.319 -1.32098L791.627 -0.690659L792.3 0.0488281ZM790.15 2.00604V3.00604H790.537L790.823 2.74553L790.15 2.00604ZM855.98 2.00604V1.00604H853.5L855.286 2.72632L855.98 2.00604ZM1316.89 445.89L1316.2 446.611L1316.87 447.26L1317.56 446.63L1316.89 445.89ZM1319.04 443.933L1319.71 444.673L1320.5 443.954L1319.73 443.213L1319.04 443.933ZM858.15 0.0488281L858.844 -0.671442L858.169 -1.321L857.477 -0.69065L858.15 0.0488281ZM856 2.00604V3.00604H856.387L856.673 2.74552L856 2.00604ZM823.06 2.00604V1.00604H820.58L822.366 2.72632L823.06 2.00604ZM1283.97 445.89L1283.28 446.611L1283.95 447.26L1284.64 446.63L1283.97 445.89ZM1286.12 443.933L1286.79 444.673L1287.58 443.954L1286.81 443.213L1286.12 443.933ZM825.22 0.0488281L825.914 -0.671449L825.239 -1.32098L824.547 -0.690659L825.22 0.0488281ZM823.07 2.00604V3.00604H823.457L823.743 2.74553L823.07 2.00604ZM757.22 2.00604V1.00604H754.74L756.526 2.72632L757.22 2.00604ZM1218.13 445.89L1217.44 446.611L1218.11 447.26L1218.8 446.63L1218.13 445.89ZM1220.28 443.933L1220.95 444.673L1221.74 443.954L1220.97 443.213L1220.28 443.933ZM759.38 0.0488281L760.074 -0.671449L759.399 -1.32098L758.707 -0.690659L759.38 0.0488281ZM757.23 2.00604V3.00604H757.617L757.903 2.74553L757.23 2.00604ZM658.45 2.00604V1.00604H655.97L657.756 2.72632L658.45 2.00604ZM1119.36 445.89L1118.67 446.611L1119.34 447.26L1120.03 446.63L1119.36 445.89ZM1121.51 443.933L1122.18 444.673L1122.97 443.954L1122.2 443.213L1121.51 443.933ZM660.61 0.0488281L661.304 -0.671449L660.629 -1.32098L659.937 -0.690659L660.61 0.0488281ZM658.46 2.00604V3.00604H658.847L659.133 2.74553L658.46 2.00604ZM724.29 2.00604V1.00604H721.81L723.596 2.72632L724.29 2.00604ZM1185.2 445.89L1184.51 446.611L1185.18 447.26L1185.87 446.63L1185.2 445.89ZM1187.35 443.933L1188.02 444.673L1188.81 443.954L1188.04 443.213L1187.35 443.933ZM726.46 0.0488281L727.154 -0.671442L726.479 -1.321L725.787 -0.69065L726.46 0.0488281ZM724.31 2.00604V3.00604H724.697L724.983 2.74552L724.31 2.00604ZM691.37 2.00604V1.00604H688.89L690.676 2.72632L691.37 2.00604ZM1152.28 445.89L1151.59 446.611L1152.26 447.26L1152.95 446.63L1152.28 445.89ZM1154.43 443.933L1155.1 444.673L1155.89 443.954L1155.12 443.213L1154.43 443.933ZM693.54 0.0488281L694.234 -0.671442L693.559 -1.32099L692.867 -0.690659L693.54 0.0488281ZM691.39 2.00604V3.00604H691.777L692.063 2.74553L691.39 2.00604ZM625.53 2.00604V1.00604H623.05L624.836 2.72632L625.53 2.00604ZM1086.44 445.89L1085.75 446.611L1086.42 447.26L1087.11 446.63L1086.44 445.89ZM1088.59 443.933L1089.26 444.673L1090.05 443.954L1089.28 443.213L1088.59 443.933ZM627.69 0.0488281L628.384 -0.671449L627.709 -1.32098L627.017 -0.690659L627.69 0.0488281ZM625.54 2.00604V3.00604H625.927L626.213 2.74553L625.54 2.00604ZM526.76 2.00604V1.00604H524.28L526.066 2.72632L526.76 2.00604ZM987.67 445.89L986.976 446.611L987.651 447.26L988.343 446.63L987.67 445.89ZM989.82 443.933L990.493 444.673L991.283 443.954L990.514 443.213L989.82 443.933ZM528.93 0.0488281L529.624 -0.671442L528.949 -1.32099L528.257 -0.690659L528.93 0.0488281ZM526.78 2.00604V3.00604H527.167L527.453 2.74553L526.78 2.00604ZM592.6 2.00604V1.00604H590.12L591.906 2.72632L592.6 2.00604ZM1053.51 445.89L1052.82 446.611L1053.49 447.26L1054.18 446.63L1053.51 445.89ZM1055.66 443.933L1056.33 444.673L1057.12 443.954L1056.35 443.213L1055.66 443.933ZM594.77 0.0488281L595.464 -0.671442L594.789 -1.321L594.097 -0.69065L594.77 0.0488281ZM592.62 2.00604V3.00604H593.007L593.293 2.74552L592.62 2.00604ZM559.68 2.00604V1.00604H557.2L558.986 2.72632L559.68 2.00604ZM1020.59 445.89L1019.9 446.611L1020.57 447.26L1021.26 446.63L1020.59 445.89ZM1022.74 443.933L1023.41 444.673L1024.2 443.954L1023.43 443.213L1022.74 443.933ZM561.85 0.0488281L562.544 -0.671442L561.869 -1.32099L561.177 -0.690659L561.85 0.0488281ZM559.7 2.00604V3.00604H560.087L560.373 2.74553L559.7 2.00604ZM493.84 2.00604V1.00604H491.36L493.146 2.72632L493.84 2.00604ZM954.75 445.89L954.056 446.611L954.731 447.26L955.423 446.63L954.75 445.89ZM956.9 443.933L957.573 444.673L958.363 443.954L957.594 443.213L956.9 443.933ZM496 0.0488281L496.694 -0.671449L496.019 -1.32098L495.327 -0.690659L496 0.0488281ZM493.85 2.00604V3.00604H494.237L494.523 2.74553L493.85 2.00604ZM395.07 2.00604V1.00604H392.59L394.376 2.72632L395.07 2.00604ZM855.98 445.89L855.286 446.611L855.961 447.26L856.653 446.63L855.98 445.89ZM858.13 443.933L858.803 444.673L859.593 443.954L858.824 443.213L858.13 443.933ZM397.24 0.0488281L397.934 -0.671442L397.259 -1.32099L396.567 -0.690659L397.24 0.0488281ZM395.09 2.00604V3.00604H395.477L395.763 2.74553L395.09 2.00604ZM460.91 2.00604V1.00604H458.43L460.216 2.72632L460.91 2.00604ZM921.82 445.89L921.126 446.611L921.801 447.26L922.493 446.63L921.82 445.89ZM923.97 443.933L924.643 444.673L925.433 443.954L924.664 443.213L923.97 443.933ZM463.08 0.0488281L463.774 -0.671442L463.099 -1.32099L462.407 -0.690659L463.08 0.0488281ZM460.93 2.00604V3.00604H461.317L461.603 2.74553L460.93 2.00604ZM427.99 2.00604V1.00604H425.51L427.296 2.72632L427.99 2.00604ZM888.9 445.89L888.206 446.611L888.881 447.26L889.573 446.63L888.9 445.89ZM891.05 443.933L891.723 444.673L892.513 443.954L891.744 443.213L891.05 443.933ZM430.16 0.0488281L430.854 -0.671442L430.179 -1.321L429.487 -0.690655L430.16 0.0488281ZM428.01 2.00604V3.00604H428.397L428.683 2.74552L428.01 2.00604ZM362.15 2.00604V1.00604H359.67L361.456 2.72632L362.15 2.00604ZM823.06 445.89L822.366 446.611L823.041 447.26L823.733 446.63L823.06 445.89ZM825.21 443.933L825.883 444.673L826.673 443.954L825.904 443.213L825.21 443.933ZM364.32 0.0488281L365.014 -0.671442L364.339 -1.321L363.647 -0.690655L364.32 0.0488281ZM362.17 2.00604V3.00604H362.557L362.843 2.74552L362.17 2.00604ZM263.38 2.00604V1.00604H260.9L262.686 2.72632L263.38 2.00604ZM724.29 445.89L723.596 446.611L724.271 447.26L724.963 446.63L724.29 445.89ZM726.44 443.933L727.113 444.673L727.903 443.954L727.134 443.213L726.44 443.933ZM265.55 0.0488281L266.244 -0.671442L265.569 -1.32099L264.877 -0.690659L265.55 0.0488281ZM263.4 2.00604V3.00604H263.787L264.073 2.74553L263.4 2.00604ZM329.22 2.00604V1.00604H326.74L328.526 2.72632L329.22 2.00604ZM790.13 445.89L789.436 446.611L790.111 447.26L790.803 446.63L790.13 445.89ZM792.28 443.933L792.953 444.673L793.743 443.954L792.974 443.213L792.28 443.933ZM331.39 0.0488281L332.084 -0.671442L331.409 -1.321L330.717 -0.690655L331.39 0.0488281ZM329.24 2.00604V3.00604H329.627L329.913 2.74552L329.24 2.00604ZM296.3 2.00604V1.00604H293.82L295.606 2.72632L296.3 2.00604ZM757.21 445.89L756.516 446.611L757.191 447.26L757.883 446.63L757.21 445.89ZM759.36 443.933L760.033 444.673L760.823 443.954L760.054 443.213L759.36 443.933ZM298.47 0.0488281L299.164 -0.671442L298.489 -1.321L297.797 -0.690655L298.47 0.0488281ZM296.32 2.00604V3.00604H296.707L296.993 2.74552L296.32 2.00604ZM230.46 2.00604V1.00604H227.98L229.766 2.72632L230.46 2.00604ZM691.37 445.89L690.676 446.611L691.351 447.26L692.043 446.63L691.37 445.89ZM693.52 443.933L694.193 444.673L694.983 443.954L694.214 443.213L693.52 443.933ZM232.63 0.0488281L233.324 -0.671442L232.649 -1.321L231.957 -0.690655L232.63 0.0488281ZM230.48 2.00604V3.00604H230.867L231.153 2.74552L230.48 2.00604ZM131.69 2.00604V1.00604H129.21L130.996 2.72632L131.69 2.00604ZM592.6 445.89L591.906 446.611L592.581 447.26L593.273 446.63L592.6 445.89ZM594.75 443.933L595.423 444.673L596.213 443.954L595.444 443.213L594.75 443.933ZM133.86 0.0488281L134.554 -0.671442L133.879 -1.321L133.187 -0.690655L133.86 0.0488281ZM131.71 2.00604V3.00604H132.097L132.383 2.74552L131.71 2.00604ZM197.53 2.00604V1.00604H195.05L196.836 2.72632L197.53 2.00604ZM658.44 445.89L657.746 446.611L658.421 447.26L659.113 446.63L658.44 445.89ZM660.59 443.933L661.263 444.673L662.053 443.954L661.284 443.213L660.59 443.933ZM199.71 0.0488281L200.404 -0.671434L199.729 -1.321L199.037 -0.690655L199.71 0.0488281ZM197.56 2.00604V3.00604H197.947L198.233 2.74552L197.56 2.00604ZM164.61 2.00604V1.00604H162.13L163.916 2.72632L164.61 2.00604ZM625.52 445.89L624.826 446.611L625.501 447.26L626.193 446.63L625.52 445.89ZM627.67 443.933L628.343 444.673L629.133 443.954L628.364 443.213L627.67 443.933ZM166.78 0.0488281L167.474 -0.671442L166.799 -1.321L166.107 -0.690655L166.78 0.0488281ZM164.63 2.00604V3.00604H165.017L165.303 2.74552L164.63 2.00604ZM98.77 2.00604V1.00604H96.29L98.0763 2.72632L98.77 2.00604ZM559.68 445.89L558.986 446.611L559.661 447.26L560.353 446.63L559.68 445.89ZM561.83 443.933L562.503 444.673L563.293 443.954L562.524 443.213L561.83 443.933ZM100.94 0.0488281L101.634 -0.671442L100.959 -1.321L100.267 -0.690655L100.94 0.0488281ZM98.79 2.00604V3.00604H99.177L99.4632 2.74552L98.79 2.00604ZM0 2.00604V1.00604H-2.47995L-0.693678 2.72632L0 2.00604ZM460.91 445.89L460.216 446.611L460.891 447.26L461.583 446.63L460.91 445.89ZM463.06 443.933L463.733 444.673L464.523 443.954L463.754 443.213L463.06 443.933ZM2.17 0.0488281L2.86369 -0.671442L2.18925 -1.321L1.49682 -0.690656L2.17 0.0488281ZM0.0199966 2.00604V3.00604H0.406993L0.693171 2.74552L0.0199966 2.00604ZM65.84 2.00604V1.00604H63.3601L65.1463 2.72632L65.84 2.00604ZM526.75 445.89L526.056 446.611L526.731 447.26L527.423 446.63L526.75 445.89ZM528.9 443.933L529.573 444.673L530.363 443.954L529.594 443.213L528.9 443.933ZM68.02 0.0488281L68.7137 -0.671434L68.0393 -1.321L67.3468 -0.690656L68.02 0.0488281ZM65.87 2.00604V3.00604H66.257L66.5432 2.74552L65.87 2.00604ZM32.92 2.00604V1.00604H30.4401L32.2263 2.72632L32.92 2.00604ZM493.83 445.89L493.136 446.611L493.811 447.26L494.503 446.63L493.83 445.89ZM495.98 443.933L496.653 444.673L497.443 443.954L496.674 443.213L495.98 443.933ZM35.09 0.0488281L35.7837 -0.671442L35.1093 -1.321L34.4168 -0.690656L35.09 0.0488281ZM32.94 2.00604V3.00604H33.327L33.6132 2.74552L32.94 2.00604ZM888.216 2.72632L1349.13 446.611L1350.51 445.17L889.604 1.28575L888.216 2.72632ZM1350.49 446.63L1352.64 444.673L1351.3 443.194L1349.15 445.151L1350.49 446.63ZM1352.66 443.213L891.764 -0.671449L890.376 0.769106L1351.28 444.653L1352.66 443.213ZM890.397 -0.69065L888.247 1.26656L889.593 2.74552L891.743 0.788306L890.397 -0.69065ZM888.92 1.00604H888.91V3.00604H888.92V1.00604ZM789.446 2.72632L1250.36 446.611L1251.74 445.17L790.834 1.28575L789.446 2.72632ZM1251.72 446.63L1253.87 444.673L1252.53 443.194L1250.38 445.151L1251.72 446.63ZM1253.89 443.213L792.994 -0.671449L791.606 0.769106L1252.51 444.653L1253.89 443.213ZM791.627 -0.690659L789.477 1.26655L790.823 2.74553L792.973 0.788316L791.627 -0.690659ZM790.15 1.00604H790.14V3.00604H790.15V1.00604ZM855.286 2.72632L1316.2 446.611L1317.58 445.17L856.674 1.28575L855.286 2.72632ZM1317.56 446.63L1319.71 444.673L1318.37 443.194L1316.22 445.151L1317.56 446.63ZM1319.73 443.213L858.844 -0.671442L857.456 0.769098L1318.35 444.653L1319.73 443.213ZM857.477 -0.69065L855.327 1.26656L856.673 2.74552L858.823 0.788306L857.477 -0.69065ZM856 1.00604H855.98V3.00604H856V1.00604ZM822.366 2.72632L1283.28 446.611L1284.66 445.17L823.754 1.28575L822.366 2.72632ZM1284.64 446.63L1286.79 444.673L1285.45 443.194L1283.3 445.151L1284.64 446.63ZM1286.81 443.213L825.914 -0.671449L824.526 0.769106L1285.43 444.653L1286.81 443.213ZM824.547 -0.690659L822.397 1.26655L823.743 2.74553L825.893 0.788316L824.547 -0.690659ZM823.07 1.00604H823.06V3.00604H823.07V1.00604ZM756.526 2.72632L1217.44 446.611L1218.82 445.17L757.914 1.28575L756.526 2.72632ZM1218.8 446.63L1220.95 444.673L1219.61 443.194L1217.46 445.151L1218.8 446.63ZM1220.97 443.213L760.074 -0.671449L758.686 0.769106L1219.59 444.653L1220.97 443.213ZM758.707 -0.690659L756.557 1.26655L757.903 2.74553L760.053 0.788316L758.707 -0.690659ZM757.23 1.00604H757.22V3.00604H757.23V1.00604ZM657.756 2.72632L1118.67 446.611L1120.05 445.17L659.144 1.28575L657.756 2.72632ZM1120.03 446.63L1122.18 444.673L1120.84 443.194L1118.69 445.151L1120.03 446.63ZM1122.2 443.213L661.304 -0.671449L659.916 0.769106L1120.82 444.653L1122.2 443.213ZM659.937 -0.690659L657.787 1.26655L659.133 2.74553L661.283 0.788316L659.937 -0.690659ZM658.46 1.00604H658.45V3.00604H658.46V1.00604ZM723.596 2.72632L1184.51 446.611L1185.89 445.17L724.984 1.28575L723.596 2.72632ZM1185.87 446.63L1188.02 444.673L1186.68 443.194L1184.53 445.151L1185.87 446.63ZM1188.04 443.213L727.154 -0.671442L725.766 0.769098L1186.66 444.653L1188.04 443.213ZM725.787 -0.69065L723.637 1.26656L724.983 2.74552L727.133 0.788306L725.787 -0.69065ZM724.31 1.00604H724.29V3.00604H724.31V1.00604ZM690.676 2.72632L1151.59 446.611L1152.97 445.17L692.064 1.28575L690.676 2.72632ZM1152.95 446.63L1155.1 444.673L1153.76 443.194L1151.61 445.151L1152.95 446.63ZM1155.12 443.213L694.234 -0.671442L692.846 0.769098L1153.74 444.653L1155.12 443.213ZM692.867 -0.690659L690.717 1.26655L692.063 2.74553L694.213 0.788316L692.867 -0.690659ZM691.39 1.00604H691.37V3.00604H691.39V1.00604ZM624.836 2.72632L1085.75 446.611L1087.13 445.17L626.224 1.28575L624.836 2.72632ZM1087.11 446.63L1089.26 444.673L1087.92 443.194L1085.77 445.151L1087.11 446.63ZM1089.28 443.213L628.384 -0.671449L626.996 0.769106L1087.9 444.653L1089.28 443.213ZM627.017 -0.690659L624.867 1.26655L626.213 2.74553L628.363 0.788316L627.017 -0.690659ZM625.54 1.00604H625.53V3.00604H625.54V1.00604ZM526.066 2.72632L986.976 446.611L988.364 445.17L527.454 1.28575L526.066 2.72632ZM988.343 446.63L990.493 444.673L989.147 443.194L986.997 445.151L988.343 446.63ZM990.514 443.213L529.624 -0.671442L528.236 0.769098L989.126 444.653L990.514 443.213ZM528.257 -0.690659L526.107 1.26655L527.453 2.74553L529.603 0.788316L528.257 -0.690659ZM526.78 1.00604H526.76V3.00604H526.78V1.00604ZM591.906 2.72632L1052.82 446.611L1054.2 445.17L593.294 1.28575L591.906 2.72632ZM1054.18 446.63L1056.33 444.673L1054.99 443.194L1052.84 445.151L1054.18 446.63ZM1056.35 443.213L595.464 -0.671442L594.076 0.769098L1054.97 444.653L1056.35 443.213ZM594.097 -0.69065L591.947 1.26656L593.293 2.74552L595.443 0.788306L594.097 -0.69065ZM592.62 1.00604H592.6V3.00604H592.62V1.00604ZM558.986 2.72632L1019.9 446.611L1021.28 445.17L560.374 1.28575L558.986 2.72632ZM1021.26 446.63L1023.41 444.673L1022.07 443.194L1019.92 445.151L1021.26 446.63ZM1023.43 443.213L562.544 -0.671442L561.156 0.769098L1022.05 444.653L1023.43 443.213ZM561.177 -0.690659L559.027 1.26655L560.373 2.74553L562.523 0.788316L561.177 -0.690659ZM559.7 1.00604H559.68V3.00604H559.7V1.00604ZM493.146 2.72632L954.056 446.611L955.444 445.17L494.534 1.28575L493.146 2.72632ZM955.423 446.63L957.573 444.673L956.227 443.194L954.077 445.151L955.423 446.63ZM957.594 443.213L496.694 -0.671449L495.306 0.769106L956.206 444.653L957.594 443.213ZM495.327 -0.690659L493.177 1.26655L494.523 2.74553L496.673 0.788316L495.327 -0.690659ZM493.85 1.00604H493.84V3.00604H493.85V1.00604ZM394.376 2.72632L855.286 446.611L856.674 445.17L395.764 1.28575L394.376 2.72632ZM856.653 446.63L858.803 444.673L857.457 443.194L855.307 445.151L856.653 446.63ZM858.824 443.213L397.934 -0.671442L396.546 0.769098L857.436 444.653L858.824 443.213ZM396.567 -0.690659L394.417 1.26655L395.763 2.74553L397.913 0.788316L396.567 -0.690659ZM395.09 1.00604H395.07V3.00604H395.09V1.00604ZM460.216 2.72632L921.126 446.611L922.514 445.17L461.604 1.28575L460.216 2.72632ZM922.493 446.63L924.643 444.673L923.297 443.194L921.147 445.151L922.493 446.63ZM924.664 443.213L463.774 -0.671442L462.386 0.769098L923.276 444.653L924.664 443.213ZM462.407 -0.690659L460.257 1.26655L461.603 2.74553L463.753 0.788316L462.407 -0.690659ZM460.93 1.00604H460.91V3.00604H460.93V1.00604ZM427.296 2.72632L888.206 446.611L889.594 445.17L428.684 1.28575L427.296 2.72632ZM889.573 446.63L891.723 444.673L890.377 443.194L888.227 445.151L889.573 446.63ZM891.744 443.213L430.854 -0.671442L429.466 0.769098L890.356 444.653L891.744 443.213ZM429.487 -0.690655L427.337 1.26656L428.683 2.74552L430.833 0.788311L429.487 -0.690655ZM428.01 1.00604H427.99V3.00604H428.01V1.00604ZM361.456 2.72632L822.366 446.611L823.754 445.17L362.844 1.28575L361.456 2.72632ZM823.733 446.63L825.883 444.673L824.537 443.194L822.387 445.151L823.733 446.63ZM825.904 443.213L365.014 -0.671442L363.626 0.769098L824.516 444.653L825.904 443.213ZM363.647 -0.690655L361.497 1.26656L362.843 2.74552L364.993 0.788311L363.647 -0.690655ZM362.17 1.00604H362.15V3.00604H362.17V1.00604ZM262.686 2.72632L723.596 446.611L724.984 445.17L264.074 1.28575L262.686 2.72632ZM724.963 446.63L727.113 444.673L725.767 443.194L723.617 445.151L724.963 446.63ZM727.134 443.213L266.244 -0.671442L264.856 0.769098L725.746 444.653L727.134 443.213ZM264.877 -0.690659L262.727 1.26655L264.073 2.74553L266.223 0.788316L264.877 -0.690659ZM263.4 1.00604H263.38V3.00604H263.4V1.00604ZM328.526 2.72632L789.436 446.611L790.824 445.17L329.914 1.28575L328.526 2.72632ZM790.803 446.63L792.953 444.673L791.607 443.194L789.457 445.151L790.803 446.63ZM792.974 443.213L332.084 -0.671442L330.696 0.769098L791.586 444.653L792.974 443.213ZM330.717 -0.690655L328.567 1.26656L329.913 2.74552L332.063 0.788311L330.717 -0.690655ZM329.24 1.00604H329.22V3.00604H329.24V1.00604ZM295.606 2.72632L756.516 446.611L757.904 445.17L296.994 1.28575L295.606 2.72632ZM757.883 446.63L760.033 444.673L758.687 443.194L756.537 445.151L757.883 446.63ZM760.054 443.213L299.164 -0.671442L297.776 0.769098L758.666 444.653L760.054 443.213ZM297.797 -0.690655L295.647 1.26656L296.993 2.74552L299.143 0.788311L297.797 -0.690655ZM296.32 1.00604H296.3V3.00604H296.32V1.00604ZM229.766 2.72632L690.676 446.611L692.064 445.17L231.154 1.28575L229.766 2.72632ZM692.043 446.63L694.193 444.673L692.847 443.194L690.697 445.151L692.043 446.63ZM694.214 443.213L233.324 -0.671442L231.936 0.769098L692.826 444.653L694.214 443.213ZM231.957 -0.690655L229.807 1.26656L231.153 2.74552L233.303 0.788311L231.957 -0.690655ZM230.48 1.00604H230.46V3.00604H230.48V1.00604ZM130.996 2.72632L591.906 446.611L593.294 445.17L132.384 1.28575L130.996 2.72632ZM593.273 446.63L595.423 444.673L594.077 443.194L591.927 445.151L593.273 446.63ZM595.444 443.213L134.554 -0.671442L133.166 0.769098L594.056 444.653L595.444 443.213ZM133.187 -0.690655L131.037 1.26656L132.383 2.74552L134.533 0.788311L133.187 -0.690655ZM131.71 1.00604H131.69V3.00604H131.71V1.00604ZM196.836 2.72632L657.746 446.611L659.134 445.17L198.224 1.28575L196.836 2.72632ZM659.113 446.63L661.263 444.673L659.917 443.194L657.767 445.151L659.113 446.63ZM661.284 443.213L200.404 -0.671434L199.016 0.769091L659.896 444.653L661.284 443.213ZM199.037 -0.690655L196.887 1.26656L198.233 2.74552L200.383 0.788311L199.037 -0.690655ZM197.56 1.00604H197.53V3.00604H197.56V1.00604ZM163.916 2.72632L624.826 446.611L626.214 445.17L165.304 1.28575L163.916 2.72632ZM626.193 446.63L628.343 444.673L626.997 443.194L624.847 445.151L626.193 446.63ZM628.364 443.213L167.474 -0.671442L166.086 0.769098L626.976 444.653L628.364 443.213ZM166.107 -0.690655L163.957 1.26656L165.303 2.74552L167.453 0.788311L166.107 -0.690655ZM164.63 1.00604H164.61V3.00604H164.63V1.00604ZM98.0763 2.72632L558.986 446.611L560.374 445.17L99.4637 1.28575L98.0763 2.72632ZM560.353 446.63L562.503 444.673L561.157 443.194L559.007 445.151L560.353 446.63ZM562.524 443.213L101.634 -0.671442L100.246 0.769098L561.136 444.653L562.524 443.213ZM100.267 -0.690655L98.1168 1.26656L99.4632 2.74552L101.613 0.788311L100.267 -0.690655ZM98.79 1.00604H98.77V3.00604H98.79V1.00604ZM-0.693678 2.72632L460.216 446.611L461.604 445.17L0.693678 1.28575L-0.693678 2.72632ZM461.583 446.63L463.733 444.673L462.387 443.194L460.237 445.151L461.583 446.63ZM463.754 443.213L2.86369 -0.671442L1.4763 0.769098L462.366 444.653L463.754 443.213ZM1.49682 -0.690656L-0.653178 1.26656L0.693171 2.74552L2.84317 0.788312L1.49682 -0.690656ZM0.0199966 1.00604H0V3.00604H0.0199966V1.00604ZM65.1463 2.72632L526.056 446.611L527.444 445.17L66.5337 1.28575L65.1463 2.72632ZM527.423 446.63L529.573 444.673L528.227 443.194L526.077 445.151L527.423 446.63ZM529.594 443.213L68.7137 -0.671434L67.3263 0.769091L528.206 444.653L529.594 443.213ZM67.3468 -0.690656L65.1968 1.26656L66.5432 2.74552L68.6932 0.788312L67.3468 -0.690656ZM65.87 1.00604H65.84V3.00604H65.87V1.00604ZM32.2263 2.72632L493.136 446.611L494.524 445.17L33.6137 1.28575L32.2263 2.72632ZM494.503 446.63L496.653 444.673L495.307 443.194L493.157 445.151L494.503 446.63ZM496.674 443.213L35.7837 -0.671442L34.3963 0.769098L495.286 444.653L496.674 443.213ZM34.4168 -0.690656L32.2668 1.26656L33.6132 2.74552L35.7632 0.788312L34.4168 -0.690656ZM32.94 1.00604H32.92V3.00604H32.94V1.00604Z" fill="#3E389F" mask="url(#path-1-inside-1_2353_110)"/>
</mask>
<g mask="url(#mask0_2353_110)">
<path d="M383.5 50.337C383.5 30.585 400.737 14.5117 422.077 14.5117H900.923C911.693 14.5117 921.322 15.9193 928.257 21.0611C935.158 26.1775 939.5 35.0786 939.5 50.337V288.878C939.5 303.917 935.159 312.821 928.255 317.993C921.318 323.189 911.689 324.703 900.923 324.703H422.077C400.737 324.703 383.5 308.63 383.5 288.878V50.337Z" fill="#8B88C3" stroke="#3E389F"/>
</g>
</svg>
