<svg width="1200" height="456" viewBox="0 0 1200 456" fill="none" xmlns="http://www.w3.org/2000/svg">
<mask id="mask0_2194_227" style="mask-type:alpha" maskUnits="userSpaceOnUse" x="-152" y="0" width="1352" height="456">
<mask id="path-1-inside-1_2194_227" fill="white">
<path d="M736.91 2.36771L1197.82 455.189L1199.97 453.193L739.07 0.371094L736.92 2.36771H736.91ZM638.14 2.36771L1099.05 455.189L1101.2 453.193L640.3 0.371094L638.15 2.36771H638.14ZM703.98 2.36771L1164.89 455.189L1167.04 453.193L706.15 0.371094L704 2.36771H703.98ZM671.06 2.36771L1131.97 455.189L1134.12 453.193L673.22 0.371094L671.07 2.36771H671.06ZM605.22 2.36771L1066.13 455.189L1068.28 453.193L607.38 0.371094L605.23 2.36771H605.22ZM506.45 2.36771L967.36 455.189L969.51 453.193L508.61 0.371094L506.46 2.36771H506.45ZM572.29 2.36771L1033.2 455.189L1035.35 453.193L574.46 0.371094L572.31 2.36771H572.29ZM539.37 2.36771L1000.28 455.189L1002.43 453.193L541.54 0.371094L539.39 2.36771H539.37ZM473.53 2.36771L934.44 455.189L936.59 453.193L475.69 0.371094L473.54 2.36771H473.53ZM374.76 2.36771L835.67 455.189L837.82 453.193L376.93 0.371094L374.78 2.36771H374.76ZM440.6 2.36771L901.51 455.189L903.66 453.193L442.77 0.371094L440.62 2.36771H440.6ZM407.68 2.36771L868.59 455.189L870.74 453.193L409.85 0.371094L407.7 2.36771H407.68ZM341.84 2.36771L802.75 455.189L804.9 453.193L344 0.371094L341.85 2.36771H341.84ZM243.07 2.36771L703.98 455.189L706.13 453.193L245.24 0.371094L243.09 2.36771H243.07ZM308.91 2.36771L769.82 455.189L771.97 453.193L311.08 0.371094L308.93 2.36771H308.91ZM275.99 2.36771L736.9 455.189L739.05 453.193L278.16 0.371094L276.01 2.36771H275.99ZM210.15 2.36771L671.06 455.189L673.21 453.193L212.32 0.371094L210.17 2.36771H210.15ZM111.38 2.36771L572.29 455.189L574.44 453.193L113.55 0.371094L111.4 2.36771H111.38ZM177.22 2.36771L638.13 455.189L640.28 453.193L179.39 0.371094L177.24 2.36771H177.22ZM144.3 2.36771L605.21 455.189L607.36 453.193L146.47 0.371094L144.32 2.36771H144.3ZM78.46 2.36771L539.37 455.189L541.52 453.193L80.63 0.371094L78.48 2.36771H78.46ZM-20.31 2.36771L440.6 455.189L442.75 453.193L-18.14 0.371094L-20.29 2.36771H-20.31ZM45.53 2.36771L506.44 455.189L508.59 453.193L47.71 0.371094L45.56 2.36771H45.53ZM12.61 2.36771L473.52 455.189L475.67 453.193L14.78 0.371094L12.63 2.36771H12.61ZM-53.23 2.36771L407.68 455.189L409.83 453.193L-51.06 0.371094L-53.21 2.36771H-53.23ZM-152 2.36771L308.91 455.189L311.06 453.193L-149.83 0.371094L-151.98 2.36771H-152ZM-86.16 2.36771L374.75 455.189L376.9 453.193L-83.98 0.371094L-86.13 2.36771H-86.16ZM-119.08 2.36771L341.83 455.189L343.98 453.193L-116.91 0.371094L-119.06 2.36771H-119.08Z"/>
</mask>
<path d="M736.91 2.36771L1197.82 455.189L1199.97 453.193L739.07 0.371094L736.92 2.36771H736.91ZM638.14 2.36771L1099.05 455.189L1101.2 453.193L640.3 0.371094L638.15 2.36771H638.14ZM703.98 2.36771L1164.89 455.189L1167.04 453.193L706.15 0.371094L704 2.36771H703.98ZM671.06 2.36771L1131.97 455.189L1134.12 453.193L673.22 0.371094L671.07 2.36771H671.06ZM605.22 2.36771L1066.13 455.189L1068.28 453.193L607.38 0.371094L605.23 2.36771H605.22ZM506.45 2.36771L967.36 455.189L969.51 453.193L508.61 0.371094L506.46 2.36771H506.45ZM572.29 2.36771L1033.2 455.189L1035.35 453.193L574.46 0.371094L572.31 2.36771H572.29ZM539.37 2.36771L1000.28 455.189L1002.43 453.193L541.54 0.371094L539.39 2.36771H539.37ZM473.53 2.36771L934.44 455.189L936.59 453.193L475.69 0.371094L473.54 2.36771H473.53ZM374.76 2.36771L835.67 455.189L837.82 453.193L376.93 0.371094L374.78 2.36771H374.76ZM440.6 2.36771L901.51 455.189L903.66 453.193L442.77 0.371094L440.62 2.36771H440.6ZM407.68 2.36771L868.59 455.189L870.74 453.193L409.85 0.371094L407.7 2.36771H407.68ZM341.84 2.36771L802.75 455.189L804.9 453.193L344 0.371094L341.85 2.36771H341.84ZM243.07 2.36771L703.98 455.189L706.13 453.193L245.24 0.371094L243.09 2.36771H243.07ZM308.91 2.36771L769.82 455.189L771.97 453.193L311.08 0.371094L308.93 2.36771H308.91ZM275.99 2.36771L736.9 455.189L739.05 453.193L278.16 0.371094L276.01 2.36771H275.99ZM210.15 2.36771L671.06 455.189L673.21 453.193L212.32 0.371094L210.17 2.36771H210.15ZM111.38 2.36771L572.29 455.189L574.44 453.193L113.55 0.371094L111.4 2.36771H111.38ZM177.22 2.36771L638.13 455.189L640.28 453.193L179.39 0.371094L177.24 2.36771H177.22ZM144.3 2.36771L605.21 455.189L607.36 453.193L146.47 0.371094L144.32 2.36771H144.3ZM78.46 2.36771L539.37 455.189L541.52 453.193L80.63 0.371094L78.48 2.36771H78.46ZM-20.31 2.36771L440.6 455.189L442.75 453.193L-18.14 0.371094L-20.29 2.36771H-20.31ZM45.53 2.36771L506.44 455.189L508.59 453.193L47.71 0.371094L45.56 2.36771H45.53ZM12.61 2.36771L473.52 455.189L475.67 453.193L14.78 0.371094L12.63 2.36771H12.61ZM-53.23 2.36771L407.68 455.189L409.83 453.193L-51.06 0.371094L-53.21 2.36771H-53.23ZM-152 2.36771L308.91 455.189L311.06 453.193L-149.83 0.371094L-151.98 2.36771H-152ZM-86.16 2.36771L374.75 455.189L376.9 453.193L-83.98 0.371094L-86.13 2.36771H-86.16ZM-119.08 2.36771L341.83 455.189L343.98 453.193L-116.91 0.371094L-119.06 2.36771H-119.08Z" fill="#8B88C3"/>
<path d="M769.84 1.86771H769.83V2.86771H769.84V1.86771ZM276.35 455.556L278.5 453.559L277.82 452.826L275.67 454.823L276.35 455.556ZM736.91 2.36771V1.36771H734.465L736.209 3.08105L736.91 2.36771ZM1197.82 455.189L1197.12 455.903L1197.8 456.572L1198.5 455.922L1197.82 455.189ZM1199.97 453.193L1200.65 453.925L1201.42 453.213L1200.67 452.479L1199.97 453.193ZM739.07 0.371094L739.771 -0.342237L739.089 -1.01168L738.389 -0.361662L739.07 0.371094ZM736.92 2.36771V3.36771H737.313L737.6 3.10047L736.92 2.36771ZM638.14 2.36771V1.36771H635.695L637.439 3.08105L638.14 2.36771ZM1099.05 455.189L1098.35 455.903L1099.03 456.572L1099.73 455.922L1099.05 455.189ZM1101.2 453.193L1101.88 453.925L1102.65 453.213L1101.9 452.479L1101.2 453.193ZM640.3 0.371094L641.001 -0.342237L640.319 -1.01167L639.62 -0.361671L640.3 0.371094ZM638.15 2.36771V3.36771H638.543L638.83 3.10048L638.15 2.36771ZM703.98 2.36771V1.36771H701.535L703.279 3.08105L703.98 2.36771ZM1164.89 455.189L1164.19 455.903L1164.87 456.572L1165.57 455.922L1164.89 455.189ZM1167.04 453.193L1167.72 453.925L1168.49 453.213L1167.74 452.479L1167.04 453.193ZM706.15 0.371094L706.851 -0.342229L706.169 -1.01168L705.469 -0.361662L706.15 0.371094ZM704 2.36771V3.36771H704.393L704.68 3.10047L704 2.36771ZM671.06 2.36771V1.36771H668.615L670.359 3.08105L671.06 2.36771ZM1131.97 455.189L1131.27 455.903L1131.95 456.572L1132.65 455.922L1131.97 455.189ZM1134.12 453.193L1134.8 453.925L1135.57 453.213L1134.82 452.479L1134.12 453.193ZM673.22 0.371094L673.921 -0.342237L673.239 -1.01167L672.539 -0.361671L673.22 0.371094ZM671.07 2.36771V3.36771H671.463L671.75 3.10048L671.07 2.36771ZM605.22 2.36771V1.36771H602.775L604.519 3.08105L605.22 2.36771ZM1066.13 455.189L1065.43 455.903L1066.11 456.572L1066.81 455.922L1066.13 455.189ZM1068.28 453.193L1068.96 453.925L1069.73 453.213L1068.98 452.479L1068.28 453.193ZM607.38 0.371094L608.081 -0.342237L607.399 -1.01167L606.7 -0.361671L607.38 0.371094ZM605.23 2.36771V3.36771H605.623L605.91 3.10048L605.23 2.36771ZM506.45 2.36771V1.36771H504.005L505.749 3.08105L506.45 2.36771ZM967.36 455.189L966.659 455.903L967.341 456.572L968.041 455.922L967.36 455.189ZM969.51 453.193L970.191 453.925L970.958 453.213L970.211 452.479L969.51 453.193ZM508.61 0.371094L509.311 -0.342237L508.629 -1.01167L507.93 -0.361671L508.61 0.371094ZM506.46 2.36771V3.36771H506.853L507.14 3.10048L506.46 2.36771ZM572.29 2.36771V1.36771H569.845L571.589 3.08105L572.29 2.36771ZM1033.2 455.189L1032.5 455.903L1033.18 456.572L1033.88 455.922L1033.2 455.189ZM1035.35 453.193L1036.03 453.925L1036.8 453.213L1036.05 452.479L1035.35 453.193ZM574.46 0.371094L575.161 -0.342229L574.479 -1.01168L573.779 -0.361662L574.46 0.371094ZM572.31 2.36771V3.36771H572.703L572.99 3.10047L572.31 2.36771ZM539.37 2.36771V1.36771H536.925L538.669 3.08105L539.37 2.36771ZM1000.28 455.189L999.579 455.903L1000.26 456.572L1000.96 455.922L1000.28 455.189ZM1002.43 453.193L1003.11 453.925L1003.88 453.213L1003.13 452.479L1002.43 453.193ZM541.54 0.371094L542.241 -0.342229L541.559 -1.01167L540.859 -0.361671L541.54 0.371094ZM539.39 2.36771V3.36771H539.783L540.07 3.10048L539.39 2.36771ZM473.53 2.36771V1.36771H471.085L472.829 3.08105L473.53 2.36771ZM934.44 455.189L933.739 455.903L934.421 456.572L935.12 455.922L934.44 455.189ZM936.59 453.193L937.271 453.925L938.038 453.213L937.291 452.479L936.59 453.193ZM475.69 0.371094L476.391 -0.342237L475.709 -1.01167L475.01 -0.361671L475.69 0.371094ZM473.54 2.36771V3.36771H473.933L474.22 3.10048L473.54 2.36771ZM374.76 2.36771V1.36771H372.315L374.059 3.08105L374.76 2.36771ZM835.67 455.189L834.969 455.903L835.651 456.572L836.35 455.922L835.67 455.189ZM837.82 453.193L838.5 453.925L839.268 453.213L838.521 452.479L837.82 453.193ZM376.93 0.371094L377.631 -0.342229L376.949 -1.01167L376.25 -0.361671L376.93 0.371094ZM374.78 2.36771V3.36771H375.173L375.46 3.10048L374.78 2.36771ZM440.6 2.36771V1.36771H438.155L439.899 3.08105L440.6 2.36771ZM901.51 455.189L900.809 455.903L901.491 456.572L902.191 455.922L901.51 455.189ZM903.66 453.193L904.341 453.925L905.108 453.213L904.361 452.479L903.66 453.193ZM442.77 0.371094L443.471 -0.342229L442.789 -1.01168L442.089 -0.361662L442.77 0.371094ZM440.62 2.36771V3.36771H441.013L441.3 3.10047L440.62 2.36771ZM407.68 2.36771V1.36771H405.235L406.979 3.08105L407.68 2.36771ZM868.59 455.189L867.889 455.903L868.57 456.572L869.27 455.922L868.59 455.189ZM870.74 453.193L871.42 453.925L872.188 453.213L871.441 452.479L870.74 453.193ZM409.85 0.371094L410.551 -0.342229L409.869 -1.01167L409.169 -0.361671L409.85 0.371094ZM407.7 2.36771V3.36771H408.093L408.38 3.10048L407.7 2.36771ZM341.84 2.36771V1.36771H339.395L341.139 3.08105L341.84 2.36771ZM802.75 455.189L802.049 455.903L802.731 456.572L803.43 455.922L802.75 455.189ZM804.9 453.193L805.58 453.925L806.348 453.213L805.601 452.479L804.9 453.193ZM344 0.371094L344.701 -0.342237L344.02 -1.01167L343.32 -0.361671L344 0.371094ZM341.85 2.36771V3.36771H342.243L342.53 3.10048L341.85 2.36771ZM243.07 2.36771V1.36771H240.625L242.369 3.08105L243.07 2.36771ZM703.98 455.189L703.279 455.903L703.961 456.572L704.66 455.922L703.98 455.189ZM706.13 453.193L706.81 453.925L707.578 453.213L706.831 452.479L706.13 453.193ZM245.24 0.371094L245.941 -0.342229L245.259 -1.01167L244.56 -0.361671L245.24 0.371094ZM243.09 2.36771V3.36771H243.483L243.77 3.10048L243.09 2.36771ZM308.91 2.36771V1.36771H306.465L308.209 3.08105L308.91 2.36771ZM769.82 455.189L769.119 455.903L769.8 456.572L770.5 455.922L769.82 455.189ZM771.97 453.193L772.65 453.925L773.418 453.213L772.671 452.479L771.97 453.193ZM311.08 0.371094L311.781 -0.342229L311.099 -1.01167L310.4 -0.361671L311.08 0.371094ZM308.93 2.36771V3.36771H309.323L309.61 3.10048L308.93 2.36771ZM275.99 2.36771V1.36771H273.545L275.289 3.08105L275.99 2.36771ZM736.9 455.189L736.199 455.903L736.88 456.572L737.58 455.922L736.9 455.189ZM739.05 453.193L739.73 453.925L740.498 453.213L739.751 452.479L739.05 453.193ZM278.16 0.371094L278.861 -0.342229L278.179 -1.01168L277.48 -0.361667L278.16 0.371094ZM276.01 2.36771V3.36771H276.403L276.69 3.10047L276.01 2.36771ZM210.15 2.36771V1.36771H207.705L209.449 3.08105L210.15 2.36771ZM671.06 455.189L670.359 455.903L671.041 456.572L671.74 455.922L671.06 455.189ZM673.21 453.193L673.89 453.925L674.658 453.213L673.911 452.479L673.21 453.193ZM212.32 0.371094L213.021 -0.342229L212.339 -1.01168L211.64 -0.361667L212.32 0.371094ZM210.17 2.36771V3.36771H210.563L210.85 3.10047L210.17 2.36771ZM111.38 2.36771V1.36771H108.935L110.679 3.08105L111.38 2.36771ZM572.29 455.189L571.589 455.903L572.271 456.572L572.97 455.922L572.29 455.189ZM574.44 453.193L575.12 453.925L575.888 453.213L575.141 452.479L574.44 453.193ZM113.55 0.371094L114.251 -0.342229L113.569 -1.01167L112.87 -0.361671L113.55 0.371094ZM111.4 2.36771V3.36771H111.793L112.08 3.10048L111.4 2.36771ZM177.22 2.36771V1.36771H174.775L176.519 3.08105L177.22 2.36771ZM638.13 455.189L637.429 455.903L638.111 456.572L638.81 455.922L638.13 455.189ZM640.28 453.193L640.96 453.925L641.728 453.213L640.981 452.479L640.28 453.193ZM179.39 0.371094L180.091 -0.342229L179.409 -1.01168L178.71 -0.361667L179.39 0.371094ZM177.24 2.36771V3.36771H177.633L177.921 3.10047L177.24 2.36771ZM144.3 2.36771V1.36771H141.855L143.599 3.08105L144.3 2.36771ZM605.21 455.189L604.509 455.903L605.19 456.572L605.89 455.922L605.21 455.189ZM607.36 453.193L608.04 453.925L608.808 453.213L608.061 452.479L607.36 453.193ZM146.47 0.371094L147.171 -0.342229L146.489 -1.01168L145.79 -0.361667L146.47 0.371094ZM144.32 2.36771V3.36771H144.713L145 3.10047L144.32 2.36771ZM78.46 2.36771V1.36771H76.0152L77.7592 3.08105L78.46 2.36771ZM539.37 455.189L538.669 455.903L539.351 456.572L540.05 455.922L539.37 455.189ZM541.52 453.193L542.2 453.925L542.968 453.213L542.221 452.479L541.52 453.193ZM80.63 0.371094L81.3308 -0.342229L80.6495 -1.01168L79.9495 -0.361667L80.63 0.371094ZM78.48 2.36771V3.36771H78.8727L79.1605 3.10047L78.48 2.36771ZM-20.31 2.36771V1.36771H-22.7548L-21.0108 3.08105L-20.31 2.36771ZM440.6 455.189L439.899 455.903L440.581 456.572L441.28 455.922L440.6 455.189ZM442.75 453.193L443.43 453.925L444.198 453.213L443.451 452.479L442.75 453.193ZM-18.14 0.371094L-17.4392 -0.342229L-18.1206 -1.01168L-18.8205 -0.361667L-18.14 0.371094ZM-20.29 2.36771V3.36771H-19.8973L-19.6095 3.10047L-20.29 2.36771ZM45.53 2.36771V1.36771H43.0852L44.8292 3.08105L45.53 2.36771ZM506.44 455.189L505.739 455.903L506.421 456.572L507.12 455.922L506.44 455.189ZM508.59 453.193L509.27 453.925L510.038 453.213L509.291 452.479L508.59 453.193ZM47.71 0.371094L48.4108 -0.342222L47.7295 -1.01169L47.0295 -0.361667L47.71 0.371094ZM45.56 2.36771V3.36771H45.9527L46.2405 3.10047L45.56 2.36771ZM12.61 2.36771V1.36771H10.1652L11.9092 3.08105L12.61 2.36771ZM473.52 455.189L472.819 455.903L473.5 456.572L474.2 455.922L473.52 455.189ZM475.67 453.193L476.35 453.925L477.118 453.213L476.371 452.479L475.67 453.193ZM14.78 0.371094L15.4808 -0.342229L14.7995 -1.01168L14.0995 -0.361667L14.78 0.371094ZM12.63 2.36771V3.36771H13.0227L13.3105 3.10047L12.63 2.36771ZM-53.23 2.36771V1.36771H-55.6748L-53.9308 3.08105L-53.23 2.36771ZM407.68 455.189L406.979 455.903L407.661 456.572L408.36 455.922L407.68 455.189ZM409.83 453.193L410.51 453.925L411.278 453.213L410.531 452.479L409.83 453.193ZM-51.06 0.371094L-50.3592 -0.342229L-51.0406 -1.01168L-51.7405 -0.361667L-51.06 0.371094ZM-53.21 2.36771V3.36771H-52.8173L-52.5295 3.10047L-53.21 2.36771ZM-152 2.36771V1.36771H-154.445L-152.701 3.08105L-152 2.36771ZM308.91 455.189L308.209 455.903L308.891 456.572L309.59 455.922L308.91 455.189ZM311.06 453.193L311.74 453.925L312.508 453.213L311.761 452.479L311.06 453.193ZM-149.83 0.371094L-149.129 -0.342229L-149.811 -1.01168L-150.51 -0.361668L-149.83 0.371094ZM-151.98 2.36771V3.36771H-151.587L-151.3 3.10047L-151.98 2.36771ZM-86.16 2.36771V1.36771H-88.6048L-86.8608 3.08105L-86.16 2.36771ZM374.75 455.189L374.049 455.903L374.731 456.572L375.43 455.922L374.75 455.189ZM376.9 453.193L377.58 453.925L378.348 453.213L377.601 452.479L376.9 453.193ZM-83.98 0.371094L-83.2792 -0.342222L-83.9605 -1.01168L-84.6605 -0.361668L-83.98 0.371094ZM-86.13 2.36771V3.36771H-85.7373L-85.4495 3.10047L-86.13 2.36771ZM-119.08 2.36771V1.36771H-121.525L-119.781 3.08105L-119.08 2.36771ZM341.83 455.189L341.129 455.903L341.811 456.572L342.51 455.922L341.83 455.189ZM343.98 453.193L344.66 453.925L345.428 453.213L344.681 452.479L343.98 453.193ZM-116.91 0.371094L-116.209 -0.342229L-116.891 -1.01168L-117.59 -0.361668L-116.91 0.371094ZM-119.06 2.36771V3.36771H-118.667L-118.38 3.10047L-119.06 2.36771ZM736.209 3.08105L1197.12 455.903L1198.52 454.476L737.611 1.65437L736.209 3.08105ZM1198.5 455.922L1200.65 453.925L1199.29 452.46L1197.14 454.456L1198.5 455.922ZM1200.67 452.479L739.771 -0.342237L738.369 1.08442L1199.27 453.906L1200.67 452.479ZM738.389 -0.361662L736.24 1.63496L737.6 3.10047L739.75 1.10385L738.389 -0.361662ZM736.92 1.36771H736.91V3.36771H736.92V1.36771ZM637.439 3.08105L1098.35 455.903L1099.75 454.476L638.841 1.65437L637.439 3.08105ZM1099.73 455.922L1101.88 453.925L1100.52 452.46L1098.37 454.456L1099.73 455.922ZM1101.9 452.479L641.001 -0.342237L639.599 1.08442L1100.5 453.906L1101.9 452.479ZM639.62 -0.361671L637.469 1.63495L638.83 3.10048L640.98 1.10386L639.62 -0.361671ZM638.15 1.36771H638.14V3.36771H638.15V1.36771ZM703.279 3.08105L1164.19 455.903L1165.59 454.476L704.681 1.65437L703.279 3.08105ZM1165.57 455.922L1167.72 453.925L1166.36 452.46L1164.21 454.456L1165.57 455.922ZM1167.74 452.479L706.851 -0.342229L705.449 1.08442L1166.34 453.906L1167.74 452.479ZM705.469 -0.361662L703.32 1.63496L704.68 3.10047L706.83 1.10385L705.469 -0.361662ZM704 1.36771H703.98V3.36771H704V1.36771ZM670.359 3.08105L1131.27 455.903L1132.67 454.476L671.761 1.65437L670.359 3.08105ZM1132.65 455.922L1134.8 453.925L1133.44 452.46L1131.29 454.456L1132.65 455.922ZM1134.82 452.479L673.921 -0.342237L672.519 1.08442L1133.42 453.906L1134.82 452.479ZM672.539 -0.361671L670.389 1.63495L671.75 3.10048L673.9 1.10386L672.539 -0.361671ZM671.07 1.36771H671.06V3.36771H671.07V1.36771ZM604.519 3.08105L1065.43 455.903L1066.83 454.476L605.921 1.65437L604.519 3.08105ZM1066.81 455.922L1068.96 453.925L1067.6 452.46L1065.45 454.456L1066.81 455.922ZM1068.98 452.479L608.081 -0.342237L606.679 1.08442L1067.58 453.906L1068.98 452.479ZM606.7 -0.361671L604.549 1.63495L605.91 3.10048L608.06 1.10386L606.7 -0.361671ZM605.23 1.36771H605.22V3.36771H605.23V1.36771ZM505.749 3.08105L966.659 455.903L968.061 454.476L507.151 1.65437L505.749 3.08105ZM968.041 455.922L970.191 453.925L968.829 452.46L966.679 454.456L968.041 455.922ZM970.211 452.479L509.311 -0.342237L507.909 1.08442L968.809 453.906L970.211 452.479ZM507.93 -0.361671L505.779 1.63495L507.14 3.10048L509.29 1.10386L507.93 -0.361671ZM506.46 1.36771H506.45V3.36771H506.46V1.36771ZM571.589 3.08105L1032.5 455.903L1033.9 454.476L572.991 1.65437L571.589 3.08105ZM1033.88 455.922L1036.03 453.925L1034.67 452.46L1032.52 454.456L1033.88 455.922ZM1036.05 452.479L575.161 -0.342229L573.759 1.08442L1034.65 453.906L1036.05 452.479ZM573.779 -0.361662L571.63 1.63496L572.99 3.10047L575.14 1.10385L573.779 -0.361662ZM572.31 1.36771H572.29V3.36771H572.31V1.36771ZM538.669 3.08105L999.579 455.903L1000.98 454.476L540.071 1.65437L538.669 3.08105ZM1000.96 455.922L1003.11 453.925L1001.75 452.46L999.599 454.456L1000.96 455.922ZM1003.13 452.479L542.241 -0.342229L540.839 1.08442L1001.73 453.906L1003.13 452.479ZM540.859 -0.361671L538.709 1.63495L540.07 3.10048L542.22 1.10386L540.859 -0.361671ZM539.39 1.36771H539.37V3.36771H539.39V1.36771ZM472.829 3.08105L933.739 455.903L935.141 454.476L474.231 1.65437L472.829 3.08105ZM935.12 455.922L937.271 453.925L935.909 452.46L933.759 454.456L935.12 455.922ZM937.291 452.479L476.391 -0.342237L474.989 1.08442L935.889 453.906L937.291 452.479ZM475.01 -0.361671L472.859 1.63495L474.22 3.10048L476.37 1.10386L475.01 -0.361671ZM473.54 1.36771H473.53V3.36771H473.54V1.36771ZM374.059 3.08105L834.969 455.903L836.371 454.476L375.461 1.65437L374.059 3.08105ZM836.35 455.922L838.5 453.925L837.139 452.46L834.99 454.456L836.35 455.922ZM838.521 452.479L377.631 -0.342229L376.229 1.08442L837.119 453.906L838.521 452.479ZM376.25 -0.361671L374.099 1.63495L375.46 3.10048L377.61 1.10386L376.25 -0.361671ZM374.78 1.36771H374.76V3.36771H374.78V1.36771ZM439.899 3.08105L900.809 455.903L902.211 454.476L441.301 1.65437L439.899 3.08105ZM902.191 455.922L904.341 453.925L902.979 452.46L900.829 454.456L902.191 455.922ZM904.361 452.479L443.471 -0.342229L442.069 1.08442L902.959 453.906L904.361 452.479ZM442.089 -0.361662L439.94 1.63496L441.3 3.10047L443.45 1.10385L442.089 -0.361662ZM440.62 1.36771H440.6V3.36771H440.62V1.36771ZM406.979 3.08105L867.889 455.903L869.291 454.476L408.381 1.65437L406.979 3.08105ZM869.27 455.922L871.42 453.925L870.06 452.46L867.909 454.456L869.27 455.922ZM871.441 452.479L410.551 -0.342229L409.149 1.08442L870.039 453.906L871.441 452.479ZM409.169 -0.361671L407.019 1.63495L408.38 3.10048L410.53 1.10386L409.169 -0.361671ZM407.7 1.36771H407.68V3.36771H407.7V1.36771ZM341.139 3.08105L802.049 455.903L803.451 454.476L342.541 1.65437L341.139 3.08105ZM803.43 455.922L805.58 453.925L804.219 452.46L802.07 454.456L803.43 455.922ZM805.601 452.479L344.701 -0.342237L343.299 1.08442L804.199 453.906L805.601 452.479ZM343.32 -0.361671L341.17 1.63495L342.53 3.10048L344.681 1.10386L343.32 -0.361671ZM341.85 1.36771H341.84V3.36771H341.85V1.36771ZM242.369 3.08105L703.279 455.903L704.681 454.476L243.771 1.65437L242.369 3.08105ZM704.66 455.922L706.81 453.925L705.45 452.46L703.299 454.456L704.66 455.922ZM706.831 452.479L245.941 -0.342229L244.539 1.08442L705.429 453.906L706.831 452.479ZM244.56 -0.361671L242.41 1.63495L243.77 3.10048L245.921 1.10386L244.56 -0.361671ZM243.09 1.36771H243.07V3.36771H243.09V1.36771ZM308.209 3.08105L769.119 455.903L770.521 454.476L309.611 1.65437L308.209 3.08105ZM770.5 455.922L772.65 453.925L771.289 452.46L769.139 454.456L770.5 455.922ZM772.671 452.479L311.781 -0.342229L310.379 1.08442L771.269 453.906L772.671 452.479ZM310.4 -0.361671L308.25 1.63495L309.61 3.10048L311.76 1.10386L310.4 -0.361671ZM308.93 1.36771H308.91V3.36771H308.93V1.36771ZM275.289 3.08105L736.199 455.903L737.601 454.476L276.691 1.65437L275.289 3.08105ZM737.58 455.922L739.73 453.925L738.37 452.46L736.219 454.456L737.58 455.922ZM739.751 452.479L278.861 -0.342229L277.459 1.08442L738.349 453.906L739.751 452.479ZM277.48 -0.361667L275.33 1.63495L276.69 3.10047L278.84 1.10385L277.48 -0.361667ZM276.01 1.36771H275.99V3.36771H276.01V1.36771ZM209.449 3.08105L670.359 455.903L671.761 454.476L210.851 1.65437L209.449 3.08105ZM671.74 455.922L673.89 453.925L672.529 452.46L670.38 454.456L671.74 455.922ZM673.911 452.479L213.021 -0.342229L211.619 1.08442L672.509 453.906L673.911 452.479ZM211.64 -0.361667L209.49 1.63495L210.85 3.10047L213 1.10385L211.64 -0.361667ZM210.17 1.36771H210.15V3.36771H210.17V1.36771ZM110.679 3.08105L571.589 455.903L572.991 454.476L112.081 1.65437L110.679 3.08105ZM572.97 455.922L575.12 453.925L573.76 452.46L571.609 454.456L572.97 455.922ZM575.141 452.479L114.251 -0.342229L112.849 1.08442L573.739 453.906L575.141 452.479ZM112.87 -0.361671L110.72 1.63495L112.08 3.10048L114.23 1.10386L112.87 -0.361671ZM111.4 1.36771H111.38V3.36771H111.4V1.36771ZM176.519 3.08105L637.429 455.903L638.831 454.476L177.921 1.65437L176.519 3.08105ZM638.81 455.922L640.96 453.925L639.599 452.46L637.45 454.456L638.81 455.922ZM640.981 452.479L180.091 -0.342229L178.689 1.08442L639.579 453.906L640.981 452.479ZM178.71 -0.361667L176.56 1.63495L177.921 3.10047L180.07 1.10385L178.71 -0.361667ZM177.24 1.36771H177.22V3.36771H177.24V1.36771ZM143.599 3.08105L604.509 455.903L605.911 454.476L145.001 1.65437L143.599 3.08105ZM605.89 455.922L608.04 453.925L606.68 452.46L604.529 454.456L605.89 455.922ZM608.061 452.479L147.171 -0.342229L145.769 1.08442L606.659 453.906L608.061 452.479ZM145.79 -0.361667L143.64 1.63495L145 3.10047L147.15 1.10385L145.79 -0.361667ZM144.32 1.36771H144.3V3.36771H144.32V1.36771ZM77.7592 3.08105L538.669 455.903L540.071 454.476L79.1608 1.65437L77.7592 3.08105ZM540.05 455.922L542.2 453.925L540.839 452.46L538.69 454.456L540.05 455.922ZM542.221 452.479L81.3308 -0.342229L79.9292 1.08442L540.819 453.906L542.221 452.479ZM79.9495 -0.361667L77.7995 1.63495L79.1605 3.10047L81.3105 1.10385L79.9495 -0.361667ZM78.48 1.36771H78.46V3.36771H78.48V1.36771ZM-21.0108 3.08105L439.899 455.903L441.301 454.476L-19.6092 1.65437L-21.0108 3.08105ZM441.28 455.922L443.43 453.925L442.07 452.46L439.919 454.456L441.28 455.922ZM443.451 452.479L-17.4392 -0.342229L-18.8409 1.08442L442.049 453.906L443.451 452.479ZM-18.8205 -0.361667L-20.9705 1.63495L-19.6095 3.10047L-17.4595 1.10385L-18.8205 -0.361667ZM-20.29 1.36771H-20.31V3.36771H-20.29V1.36771ZM44.8292 3.08105L505.739 455.903L507.141 454.476L46.2308 1.65437L44.8292 3.08105ZM507.12 455.922L509.27 453.925L507.909 452.46L505.76 454.456L507.12 455.922ZM509.291 452.479L48.4108 -0.342222L47.0092 1.08441L507.889 453.906L509.291 452.479ZM47.0295 -0.361667L44.8795 1.63495L46.2405 3.10047L48.3905 1.10385L47.0295 -0.361667ZM45.56 1.36771H45.53V3.36771H45.56V1.36771ZM11.9092 3.08105L472.819 455.903L474.221 454.476L13.3108 1.65437L11.9092 3.08105ZM474.2 455.922L476.35 453.925L474.99 452.46L472.839 454.456L474.2 455.922ZM476.371 452.479L15.4808 -0.342229L14.0792 1.08442L474.969 453.906L476.371 452.479ZM14.0995 -0.361667L11.9495 1.63495L13.3105 3.10047L15.4605 1.10385L14.0995 -0.361667ZM12.63 1.36771H12.61V3.36771H12.63V1.36771ZM-53.9308 3.08105L406.979 455.903L408.381 454.476L-52.5292 1.65437L-53.9308 3.08105ZM408.36 455.922L410.51 453.925L409.149 452.46L407 454.456L408.36 455.922ZM410.531 452.479L-50.3592 -0.342229L-51.7608 1.08442L409.129 453.906L410.531 452.479ZM-51.7405 -0.361667L-53.8905 1.63495L-52.5295 3.10047L-50.3795 1.10385L-51.7405 -0.361667ZM-53.21 1.36771H-53.23V3.36771H-53.21V1.36771ZM-152.701 3.08105L308.209 455.903L309.611 454.476L-151.299 1.65437L-152.701 3.08105ZM309.59 455.922L311.74 453.925L310.38 452.46L308.23 454.456L309.59 455.922ZM311.761 452.479L-149.129 -0.342229L-150.531 1.08442L310.359 453.906L311.761 452.479ZM-150.51 -0.361668L-152.66 1.63495L-151.3 3.10047L-149.15 1.10386L-150.51 -0.361668ZM-151.98 1.36771H-152V3.36771H-151.98V1.36771ZM-86.8608 3.08105L374.049 455.903L375.451 454.476L-85.4592 1.65437L-86.8608 3.08105ZM375.43 455.922L377.58 453.925L376.219 452.46L374.07 454.456L375.43 455.922ZM377.601 452.479L-83.2792 -0.342222L-84.6808 1.08441L376.199 453.906L377.601 452.479ZM-84.6605 -0.361668L-86.8105 1.63495L-85.4495 3.10047L-83.2995 1.10386L-84.6605 -0.361668ZM-86.13 1.36771H-86.16V3.36771H-86.13V1.36771ZM-119.781 3.08105L341.129 455.903L342.531 454.476L-118.379 1.65437L-119.781 3.08105ZM342.51 455.922L344.66 453.925L343.3 452.46L341.15 454.456L342.51 455.922ZM344.681 452.479L-116.209 -0.342229L-117.611 1.08442L343.279 453.906L344.681 452.479ZM-117.59 -0.361668L-119.74 1.63495L-118.38 3.10047L-116.23 1.10386L-117.59 -0.361668ZM-119.06 1.36771H-119.08V3.36771H-119.06V1.36771Z" fill="#3E389F" mask="url(#path-1-inside-1_2194_227)"/>
</mask>
<g mask="url(#mask0_2194_227)">
<path d="M231.5 8.86816C231.5 -16.4311 248.846 -36.793 270.077 -36.793H748.923C759.677 -36.793 769.282 -35.0098 776.212 -28.4814C783.138 -21.9559 787.5 -10.5826 787.5 8.86814V311.999C787.5 331.173 783.139 342.549 776.21 349.144C769.278 355.742 759.67 357.66 748.923 357.66H270.077C248.846 357.66 231.5 337.298 231.5 311.999V8.86816Z" fill="#8B88C3" stroke="#3E389F"/>
</g>
</svg>
