<svg width="275" height="297" viewBox="0 0 275 297" fill="none" xmlns="http://www.w3.org/2000/svg">
<g clip-path="url(#clip0_1814_888)">
<path d="M269.485 269.684C268.714 264.279 267.29 258.994 265.867 253.827C263.791 246.047 261.834 238.742 261.953 231.141C262.012 224.667 263.613 218.432 265.215 211.721C266.519 206.495 267.824 201.209 268.358 195.686C270.137 178.226 263.613 159.994 251.337 147.997C248.431 145.147 245.288 142.712 242.204 140.217C238.409 137.307 234.91 134.457 231.944 131.131C233.783 125.905 234.85 120.263 234.85 114.384V108.267C234.791 107.791 234.613 107.376 234.257 107.079C233.901 106.782 233.486 106.604 233.012 106.722L231.944 106.841C229.157 107.198 226.31 107.851 223.701 108.682C223.641 107.198 223.523 105.772 223.464 104.406C223.108 98.1112 222.693 91.5785 220.498 85.4615C217.948 78.3943 213.322 72.5743 208.756 66.9918C203.3 60.2216 198.259 53.9264 197.132 46.0278V45.5527C201.402 23.876 188.533 15.0866 181.653 10.3355C172.52 4.09979 160.125 3.74346 150.636 9.50411C147.197 11.5827 144.231 14.3739 141.444 16.987C138.182 20.0752 135.158 22.9258 131.481 24.7669C124.898 27.9738 116.773 27.3206 108.885 26.7861C98.566 25.9546 87.7723 25.1232 79.7068 32.7249C77.3346 34.9222 75.6147 37.5947 73.9541 40.1484C72.2936 42.7021 70.633 45.1964 68.498 47.0374C64.1094 50.7789 58.1789 51.3134 51.8332 51.9072C47.9783 52.2636 43.9455 52.6199 40.0906 53.7483C35.3462 55.1142 32.3809 57.6679 29.1191 60.3403C28.0516 61.2312 26.9248 62.1814 25.6794 63.0722C23.663 64.5569 21.7652 65.6259 19.6302 66.7543C17.7324 67.7639 15.7161 68.8328 13.5811 70.3176C7.7098 74.5341 4.92244 79.7603 5.27827 85.996C6.04924 99.6553 22.7141 113.077 28.5854 117.472V117.59L29.1191 117.947C29.1191 117.947 29.3563 118.125 29.5343 118.244H29.5936C32.3809 120.263 35.2276 122.104 37.3033 123.114C39.5569 124.301 41.8698 125.311 44.242 126.38C49.8761 128.934 55.095 131.428 59.7208 135.051C63.5164 137.961 66.8968 141.821 70.1586 145.503C74.903 150.907 79.8847 156.371 86.349 159.875C91.8644 162.785 97.8543 163.913 103.607 164.982C109.122 165.992 114.282 167.001 118.967 169.377C122.11 171.04 125.016 173.237 127.982 175.613C131.421 178.285 134.98 181.017 139.131 182.917C142.808 184.58 147.019 185.649 151.051 186.778C157.516 188.5 164.277 190.282 168.487 194.082C170.741 196.933 173.291 198.477 176.019 198.774C178.095 198.952 179.933 198.299 181.653 197.883C182.009 197.764 182.246 197.705 182.602 197.586C188.473 195.864 195.234 196.933 201.105 200.674C206.977 204.416 210.891 210.177 212.136 216.531C212.907 220.926 212.67 225.796 212.492 230.606C212.077 239.752 211.602 249.254 218.126 256.143C221.447 259.706 227.437 261.725 231.707 258.519C235.147 255.965 235.621 251.748 236.155 248.007C236.214 247.472 236.333 246.938 236.333 246.463C236.57 244.444 237.638 242.543 238.586 241.712C238.942 241.415 239.298 241.355 239.654 241.415C240.366 241.534 241.137 242.424 241.848 243.731C244.28 248.66 243.865 254.896 243.153 260.835V261.369C242.263 267.961 241.492 274.731 243.924 281.145C245.525 285.362 248.906 288.925 252.879 290.647C254.48 291.301 256.022 291.657 257.624 291.657C259.225 291.657 260.707 291.301 262.071 290.647C269.247 287.144 270.671 277.642 269.544 269.802L269.485 269.684Z" fill="white"/>
<path d="M257.564 297.002C255.429 297.002 253.176 296.527 250.922 295.636H250.803C245.525 293.26 241.137 288.569 239.061 283.046C236.096 275.325 237.044 267.545 237.875 260.597L237.993 259.944C237.993 259.944 237.993 259.528 238.053 259.29C237.222 260.597 236.096 261.785 234.672 262.854C227.971 267.842 219.193 265.051 214.33 259.825C206.265 251.273 206.799 239.574 207.273 230.25V229.181C207.451 224.905 207.629 220.866 206.977 217.422C206.028 212.611 202.884 208.157 198.318 205.247C193.751 202.337 188.473 201.387 183.966 202.753H183.788C183.788 202.753 183.551 202.872 183.492 202.872C183.254 202.931 183.076 202.99 182.839 203.05L182.305 203.228C180.586 203.703 178.273 204.356 175.545 204.119C172.698 203.822 168.606 202.515 164.751 197.883C161.548 195.151 155.737 193.607 150.162 192.063L148.916 191.707C144.943 190.638 140.851 189.509 137.055 187.787C132.192 185.53 128.159 182.383 124.898 179.829C121.695 177.275 119.264 175.494 116.654 174.128C112.799 172.168 108.292 171.218 102.777 170.208H102.421C96.3716 169.02 90.1445 167.833 84.0361 164.566C76.9194 160.766 71.6412 155.064 66.363 149.007C63.457 145.681 60.0766 141.94 56.6962 139.267C52.6041 136.06 47.919 133.803 42.2256 131.19L40.6837 130.478C38.9045 129.646 37.0067 128.815 35.1683 127.805C33.0926 126.796 30.4831 125.192 27.2806 122.935C27.2806 122.935 26.8655 122.698 26.6282 122.579L26.2724 122.341L23.4257 120.382V120.144C14.1148 112.899 0.83032 100.13 4.17717e-05 86.2335C-0.296486 80.5916 1.24546 72.4554 10.5564 65.7445C13.0473 64.0223 15.3009 62.7751 17.1987 61.7655C18.8592 60.8747 20.6977 59.8651 22.5955 58.4992C23.663 57.7272 24.7305 56.8363 25.6794 56.0643L26.2131 55.5892C29.4156 52.9761 33.0333 50.0067 38.5487 48.4032C42.7594 47.2155 47.148 46.7997 50.9435 46.4434H51.1808C56.6962 45.9683 61.8558 45.4932 64.999 42.7613C66.5409 41.4548 67.9049 39.3762 69.4469 37.0601C71.1074 34.5064 73.1831 31.3588 76.0891 28.627C85.8152 19.4812 98.2101 20.4314 109.122 21.3222H109.537C116.595 21.8567 123.889 22.3318 129.108 19.7781C132.014 18.2934 134.683 15.9179 137.767 12.9485C140.91 9.97909 144.053 7.06907 147.849 4.75294C158.939 -2.01731 173.647 -1.60159 184.381 5.70315C191.735 10.7511 206.799 21.1441 202.291 45.7901C203.418 51.8477 207.688 57.1927 212.611 63.369C217.889 69.9017 222.455 75.8999 225.243 83.5016C227.378 89.4998 228.03 95.4386 228.445 101.853C229.394 101.674 230.284 101.556 231.233 101.437L232.3 101.318C234.02 101.08 235.799 101.556 237.282 102.743C238.231 103.456 239.417 104.822 239.891 107.197L240.01 107.732V114.383C240.01 119.55 239.298 124.658 237.875 129.646C240.188 131.844 242.797 133.922 245.288 135.823L246.355 136.654C249.202 138.911 252.108 141.286 254.836 143.959C268.239 157.024 275.356 177.038 273.458 196.161C272.865 202.218 271.442 207.92 270.137 212.968L269.84 214.155C268.476 220.035 267.112 225.558 267.053 231.022C266.994 238.03 268.892 245.215 270.789 252.164C272.272 257.628 273.695 262.973 274.526 268.674C275.949 278.413 273.933 290.529 264.088 295.28H263.969C261.834 296.289 259.64 296.764 257.386 296.764L257.564 297.002ZM254.777 285.481C256.734 286.253 258.217 286.312 259.877 285.54C264.444 283.283 265.096 276.038 264.325 270.455C263.613 265.407 262.249 260.419 260.885 255.311C258.81 247.591 256.615 239.633 256.734 231.081C256.853 224.37 258.276 218.253 259.818 211.721L260.114 210.414C261.3 205.663 262.664 200.377 263.139 195.151C264.74 179.354 258.81 162.785 247.779 151.976C245.407 149.601 242.678 147.463 240.069 145.325L239.12 144.553C235.443 141.702 231.588 138.614 228.208 134.872L226.014 132.437L227.14 129.29C228.86 124.479 229.691 119.431 229.691 114.443V112.721C228.208 113.017 226.725 113.433 225.243 113.849L218.956 115.809L218.541 108.979C218.482 107.494 218.363 106.069 218.304 104.703C217.948 98.2298 217.474 92.4692 215.635 87.3024C213.5 81.3636 209.467 76.1375 204.842 70.4362V70.3174C199.148 63.3096 193.336 56.1237 192.032 46.7403V46.3246V44.8993L192.15 44.3648C195.708 26.3702 185.627 19.4218 178.925 14.7895C171.393 9.62276 161.074 9.32582 153.364 14.0769C150.458 15.8585 147.73 18.3528 145.062 20.9065C141.444 24.351 138.063 27.4392 133.793 29.5772C126.084 33.3186 117.425 32.7247 109.063 32.1309H108.589C98.8624 31.2994 89.6701 30.5868 83.2651 36.6444C81.308 38.4854 79.7067 40.9203 78.2834 43.0583C76.3856 45.9683 74.4879 48.8189 71.8784 51.0757C66.1851 55.9455 58.8312 56.5988 52.3076 57.1927H52.1297C48.5713 57.549 44.8351 57.9053 41.514 58.8555C38.0149 59.8651 35.7613 61.7655 32.8553 64.1411L32.4995 64.438C31.3727 65.3882 30.1273 66.3978 28.8226 67.4074C26.3317 69.2485 24.0188 70.4956 22.0617 71.5052C20.4012 72.3366 18.5034 73.4056 16.6056 74.7122C10.9123 78.8099 10.4378 82.8483 10.6157 85.5208C11.0309 93.0037 18.7999 103.1 31.3727 112.602L32.6774 113.552C35.5834 115.631 38.0149 117.175 39.6162 117.947H39.7941C41.4546 118.897 43.1745 119.669 44.9537 120.5L46.4956 121.213C52.8413 124.123 58.0602 126.617 63.0419 130.537C67.1933 133.803 70.8702 137.961 74.132 141.643C78.9358 147.106 83.3244 151.917 88.8991 154.886C93.6436 157.38 98.8625 158.39 104.437 159.459H104.734C111.079 160.647 116.358 161.775 121.399 164.388C125.135 166.348 128.456 168.902 131.303 171.158C134.861 173.95 137.945 176.206 141.385 177.81C144.409 179.176 148.086 180.185 151.704 181.136L152.949 181.492C159.888 183.333 167.005 185.233 172.046 189.866L172.342 190.163L172.579 190.46C173.943 192.122 175.307 193.073 176.612 193.191C177.442 193.251 178.51 192.954 179.696 192.598L180.408 192.419C180.408 192.419 180.704 192.36 180.763 192.301C180.941 192.301 181.119 192.182 181.357 192.122C188.651 189.984 196.835 191.35 203.893 195.864C210.891 200.318 215.813 207.385 217.296 215.284C218.126 220.035 217.948 224.845 217.77 229.537V230.665C217.355 239.098 216.94 246.997 221.862 252.164C223.701 254.124 226.903 255.311 228.682 253.946C230.106 252.877 230.521 250.739 230.995 247.294V246.938C230.995 246.938 231.114 246.403 231.173 246.166V245.512C231.648 242.305 233.249 239.098 235.384 237.257L235.562 237.139C237.104 235.951 238.883 235.476 240.721 235.892C242.975 236.307 244.932 237.97 246.474 240.821L246.593 240.999C249.736 247.353 249.202 254.836 248.431 261.31L248.313 261.963C247.601 268.08 246.889 273.781 248.846 278.948C249.914 281.739 252.227 284.233 254.895 285.421L254.777 285.481Z" fill="white"/>
<path d="M195.293 44.8385C199.385 25.4185 189.244 17.2824 180.941 11.5217C172.638 5.76106 161.133 5.46412 152.474 10.8091C145.358 15.085 140.317 22.8055 132.844 26.3687C116.713 34.2674 94.4733 21.4989 81.2482 33.8516C76.8003 38.0682 74.4874 44.3633 69.7429 48.4017C61.796 55.172 49.9348 52.7965 40.0308 55.7065C34.1595 57.4287 31.0757 61.1702 26.3905 64.6741C22.3577 67.7623 18.4436 69.1876 14.055 72.157C-7.65089 87.004 25.3823 113.966 37.7179 120.202C45.4869 124.24 53.849 127.15 60.7878 132.555C70.336 139.978 76.6224 151.678 87.2381 157.379C97.3793 162.783 109.952 161.774 120.153 167C127.329 170.682 133.022 177.274 140.376 180.659C149.746 184.935 163.327 185.529 170.978 192.655" fill="#F1A043"/>
<path d="M141.918 69.4838C137.707 75.5414 128.574 74.8881 118.967 74.1755C108.885 73.4628 97.4387 72.6314 90.1441 79.1047C87.7126 81.302 86.4672 84.6872 85.1624 88.2505C83.5019 92.6452 81.8413 97.2181 77.8086 99.9499C74.5467 102.028 70.2768 101.969 66.0661 101.85C59.2459 101.672 54.9166 101.85 53.7305 107.314C52.6037 112.54 52.9595 116.638 54.9759 119.845C59.068 126.437 69.9802 128.634 79.5284 130.535C86.8823 132.019 93.8211 133.385 97.9132 136.652C100.997 139.146 103.606 142.234 106.157 145.144C108.588 147.995 110.96 150.727 113.688 153.043C121.932 159.694 132.785 162.307 143.282 164.861H143.341C156.922 168.068 168.368 186.181 168.902 187.013V187.132C170.859 190.695 172.994 193.902 175.9 194.199C177.027 194.318 178.332 193.902 179.755 193.486C180.111 193.367 180.467 193.308 180.822 193.13C188.117 191.051 196.242 192.298 203.24 196.812C210.238 201.325 215.16 208.274 216.584 215.935C217.473 220.864 217.295 226.09 216.999 231.198C216.643 239.69 216.228 247.767 221.269 253.052C223.285 255.131 226.725 256.438 228.741 254.894C230.52 253.528 230.936 250.796 231.291 247.767C231.351 247.232 231.469 246.698 231.529 246.045C231.944 243.372 233.308 239.928 235.799 237.968C237.222 236.958 238.883 236.483 240.543 236.899C242.737 237.374 244.754 238.978 246.177 241.828C249.32 248.064 248.787 255.19 248.016 261.961V262.495C247.245 268.434 246.414 274.67 248.431 279.896C249.558 282.806 252.048 285.478 254.836 286.666C256.259 287.201 258.275 287.735 260.351 286.785C265.155 284.588 265.985 277.283 265.096 271.225C264.325 266.118 263.02 260.951 261.597 255.962C259.521 248.183 257.327 240.106 257.504 231.792C257.564 224.665 259.284 217.776 260.944 211.184C262.19 206.136 263.494 200.91 264.028 195.802C265.689 179.768 259.639 163.02 248.431 152.033C245.703 149.361 242.559 146.926 239.594 144.61C233.13 139.562 226.428 134.336 222.751 126.556C219.49 119.786 219.074 112.362 218.659 105.057C218.303 98.8215 217.948 92.8827 215.931 87.4784C213.678 81.2427 209.17 75.6602 204.9 70.3746C199.8 64.1389 194.581 57.5468 192.624 49.5294C170.74 47.9853 156.329 48.698 141.977 69.4838H141.918Z" fill="#F9EEDB"/>
<path d="M193.335 161.358C192.802 131.367 165.224 107.434 131.717 108.087C132.132 138.197 159.768 162.012 193.335 161.358Z" fill="#77C66F"/>
<path d="M202.884 125.666C213.203 112.007 230.046 111.235 230.935 111.948C231.884 112.66 234.375 128.992 223.997 142.592C213.678 156.251 194.463 162.071 193.573 161.359C192.683 160.527 192.505 139.326 202.884 125.666Z" fill="#77C66F"/>
<path d="M103.903 125.192C112.943 125.192 120.272 117.534 120.272 108.088C120.272 98.642 112.943 90.9844 103.903 90.9844C94.8635 90.9844 87.5352 98.642 87.5352 108.088C87.5352 117.534 94.8635 125.192 103.903 125.192Z" fill="#E15949"/>
<path d="M184.558 108.977C193.598 108.977 200.926 101.319 200.926 91.8733C200.926 82.4272 193.598 74.7695 184.558 74.7695C175.518 74.7695 168.189 82.4272 168.189 91.8733C168.189 101.319 175.518 108.977 184.558 108.977Z" fill="#E15949"/>
<path d="M230.402 199.84C239.442 199.84 246.77 192.183 246.77 182.737C246.77 173.29 239.442 165.633 230.402 165.633C221.362 165.633 214.033 173.29 214.033 182.737C214.033 192.183 221.362 199.84 230.402 199.84Z" fill="#E15949"/>
<path d="M266.342 253.766C264.266 246.105 262.309 238.741 262.428 231.258C262.487 224.844 264.029 218.608 265.69 211.957C266.994 206.731 268.299 201.445 268.833 195.863C270.612 178.284 264.088 159.874 251.753 147.699C248.847 144.848 245.644 142.295 242.56 139.919C238.884 137.068 235.444 134.337 232.597 131.13C234.376 125.903 235.384 120.321 235.384 114.56V108.443C235.325 107.909 235.029 107.374 234.614 106.959C234.198 106.543 233.665 106.424 233.012 106.484L231.945 106.602C229.335 106.959 226.667 107.493 224.176 108.265C224.116 106.959 223.998 105.712 223.938 104.524C223.583 98.2286 223.168 91.6365 220.973 85.4008C218.423 78.2742 213.679 72.3948 209.171 66.7529C203.834 60.1014 198.734 53.7469 197.666 46.0859V45.7295C201.936 23.7559 189.007 14.9071 182.009 10.0373C172.698 3.80151 160.126 3.44518 150.577 9.32461C147.078 11.4032 144.172 14.2538 141.266 16.9263C138.005 19.9551 134.98 22.8651 131.362 24.5874C124.898 27.6755 116.833 27.141 108.945 26.4878C98.5072 25.6563 87.6543 24.8249 79.5294 32.5454C77.1572 34.8615 75.4373 37.4746 73.6581 40.0283C71.9976 42.582 70.3963 45.0763 68.3206 46.7985C64.0506 50.4806 58.1794 51.0151 51.8337 51.5496C47.9195 51.9059 43.8867 52.2622 40.0319 53.45C35.2281 54.9347 32.1442 57.3696 29.001 60.1014C27.9335 60.9923 26.8067 61.9425 25.5613 62.8333C23.6635 64.318 21.6471 65.3276 19.5121 66.5154C17.6144 67.525 15.598 68.594 13.463 70.0787C7.53242 74.1764 4.62644 79.5214 4.98228 85.9353C5.2195 90.4488 8.06617 102.505 28.1708 117.53V117.649L29.0603 118.302C29.0603 118.302 29.2976 118.48 29.4755 118.599C32.2628 120.618 35.1688 122.459 37.1852 123.469C39.4388 124.538 41.7517 125.666 44.124 126.735C49.758 129.289 54.9769 131.783 59.5434 135.346C63.339 138.256 66.6601 141.998 69.8626 145.68C74.6663 151.084 79.5887 156.667 86.1716 160.111C91.687 163.021 97.7362 164.209 103.607 165.337C109.064 166.347 114.223 167.356 118.849 169.732C121.992 171.276 124.78 173.592 127.863 175.849C131.303 178.521 134.861 181.313 139.072 183.154C142.749 184.817 146.96 186.004 151.052 187.014C157.516 188.736 164.218 190.518 168.251 194.259C170.504 197.169 173.232 198.832 176.138 199.01C178.332 199.188 180.23 198.535 181.891 198.001C182.247 197.882 182.484 197.823 182.84 197.704C188.592 195.981 195.175 197.169 200.987 200.792C206.74 204.474 210.595 210.116 211.781 216.233C212.552 220.509 212.315 225.497 212.137 230.13C211.722 239.394 211.247 248.956 217.889 256.023C221.388 259.705 227.497 261.784 232.004 258.398C235.622 255.726 236.096 251.45 236.63 247.59C236.689 247.055 236.808 246.521 236.808 246.046C237.045 244.205 238.053 242.304 239.002 241.532C239.358 241.235 239.536 241.235 239.714 241.354C240.129 241.473 240.841 242.007 241.552 243.433C243.984 248.184 243.509 254.419 242.798 260.299V260.833C241.908 267.425 241.137 274.314 243.569 280.847C245.229 285.123 248.728 288.924 252.761 290.527C254.422 291.24 256.082 291.537 257.683 291.537C259.285 291.537 260.827 291.181 262.309 290.527C269.782 287.023 271.146 277.284 270.019 269.266C269.248 264.04 267.825 258.755 266.401 253.588L266.342 253.766ZM248.847 261.902V261.368C249.736 254.419 250.27 247.174 247.008 240.701C245.407 237.613 243.213 235.653 240.722 235.237C238.765 234.881 236.867 235.356 235.266 236.603C232.478 238.682 230.996 242.482 230.521 245.392C230.462 245.927 230.344 246.461 230.284 247.115C229.928 249.847 229.573 252.4 228.208 253.529C226.726 254.598 223.82 253.529 222.278 251.806C217.533 246.877 218.008 239.097 218.364 230.842C218.601 225.735 218.898 220.39 217.949 215.401C216.466 207.443 211.484 200.198 204.308 195.566C197.132 190.874 188.652 189.508 181.179 191.706C180.823 191.824 180.467 191.884 180.112 192.062H180.052C178.807 192.418 177.68 192.775 176.731 192.715C174.3 192.537 172.461 189.508 170.682 186.242V186.064C170.089 185.232 158.524 166.822 144.469 163.437C134.209 160.942 123.534 158.508 115.587 151.915C112.978 149.718 110.606 147.046 108.233 144.254C105.683 141.344 103.074 138.197 99.9305 135.643C95.7198 132.139 88.7218 130.773 81.2493 129.348C71.9383 127.507 61.5598 125.428 57.7049 119.193C55.8665 116.283 55.5106 112.422 56.6374 107.553C57.5863 103.455 60.1365 102.802 67.8462 102.98C72.1162 103.098 76.6234 103.158 80.0038 100.901C84.3925 97.9911 86.053 93.24 87.7136 88.6077C88.959 85.1039 90.1451 81.9563 92.3394 79.9371C99.1595 73.7013 110.309 74.5328 120.094 75.2454C129.88 75.9581 139.309 76.6114 143.757 70.138C157.694 49.8867 171.453 49.2928 192.269 50.7181C194.345 58.6167 199.564 64.9713 204.427 71.207C208.638 76.4332 213.026 81.8969 215.102 87.9545C217 93.24 217.356 99.0007 217.652 105.177V105.296C217.711 107.137 217.889 109.037 218.067 110.997C205.613 117.055 196.183 128.873 192.744 142.829C189.482 133.98 183.789 125.903 176.257 119.371C163.981 108.74 147.79 103.098 130.769 103.455C129.998 103.455 129.109 103.811 128.575 104.464C127.982 105.118 127.686 105.949 127.686 106.84C127.923 122.4 134.98 136.95 147.375 147.64C159.295 157.914 174.893 163.556 191.439 163.556C191.854 163.556 193.693 163.437 194.048 163.377C209.705 161.477 222.812 151.559 229.81 137.84C232.597 140.572 235.74 143.067 238.824 145.442C241.789 147.818 244.873 150.193 247.483 152.747C258.454 163.437 264.207 179.828 262.665 195.388C262.131 200.436 260.886 205.543 259.581 210.591C257.921 217.242 256.26 224.25 256.141 231.377C256.082 239.81 258.217 247.946 260.352 255.785C261.657 260.715 263.08 265.881 263.792 270.87C264.563 276.452 263.97 283.223 259.759 285.123C257.98 285.954 256.26 285.479 255.133 285.004C252.583 283.935 250.507 281.619 249.44 278.947C247.424 273.721 248.194 267.782 248.847 261.902ZM79.7666 135.643C86.4088 137.009 92.7545 138.197 95.7791 140.751C98.5072 142.948 100.761 145.68 103.252 148.53C105.683 151.44 108.352 154.469 111.376 157.023C120.51 164.446 131.896 167.178 142.927 169.732C149.51 171.276 155.915 177.631 160.363 182.975C157.635 182.085 154.847 181.313 152.475 180.659L152.06 180.541C148.205 179.531 144.528 178.521 141.444 177.155C137.945 175.611 134.802 173.117 131.481 170.563C128.397 168.188 125.195 165.634 121.518 163.793C116.062 161.061 110.309 159.933 104.616 158.864C98.9816 157.795 93.6441 156.785 88.959 154.291C83.325 151.262 78.9956 146.392 74.3105 141.107C71.5824 138.019 68.7951 134.812 65.6519 132.02C70.2184 133.565 75.1408 134.574 79.8259 135.524L79.7666 135.643ZM49.6987 116.045C50.0545 118.539 50.9441 120.737 52.0709 122.637C52.3081 122.993 52.6047 123.469 52.8419 123.825C50.7662 122.756 48.5719 121.746 46.4369 120.737C45.3694 120.262 44.3612 119.727 43.2937 119.252C45.7252 118.421 47.9195 117.352 49.6987 116.045ZM151.704 128.576C151.467 129.467 151.882 130.298 152.653 130.773C153.602 131.248 154.492 131.664 155.441 132.139C157.457 133.03 159.355 133.98 161.193 134.99C168.31 138.553 174.774 143.482 181.594 150.668C183.196 152.331 184.856 154.172 186.22 155.716L187.11 156.726C173.647 155.894 160.897 150.787 151.171 142.473C141.385 134.04 135.514 123.172 134.091 111.175C134.091 110.878 134.15 110.522 134.328 110.344C134.506 110.166 134.743 110.047 135.039 110.047H135.099C148.917 110.7 162.083 115.808 172.046 124.419C180.467 131.664 186.161 141.166 188.414 151.322C180.349 138.137 167.717 129.526 153.483 127.507C152.594 127.151 151.823 127.685 151.526 128.576H151.704ZM200.038 155.301C201.284 153.638 202.47 152.034 203.715 150.371C207.807 144.908 212.018 139.088 216.94 133.98C217.534 133.327 217.652 132.317 217.118 131.605C216.703 130.892 215.695 130.595 214.924 130.892C208.341 133.743 202.055 140.216 197.844 148.471C199.86 133.446 209.349 121.034 222.99 115.511C225.065 114.679 227.2 114.026 229.276 113.491C230.047 132.971 217.771 150.312 200.038 155.301ZM133.853 30.4668C138.301 28.2694 141.8 25.0031 145.359 21.6773C148.087 19.1236 150.696 16.6293 153.602 14.9071C161.134 10.3342 171.097 10.6311 178.51 15.5604C186.754 21.2616 194.523 28.0319 191.676 43.9479C170.563 42.582 154.373 43.4134 138.657 66.0997C136.226 69.6629 128.931 69.1284 120.51 68.594C109.479 67.7625 97.0245 66.8717 88.188 74.8891C84.7483 77.9179 83.2656 82.1344 81.783 86.2322C80.3597 89.9737 79.0549 93.537 76.5048 95.3186C74.6663 96.5064 71.1673 96.5064 67.8462 96.3876C64.2286 96.2688 59.8993 96.2094 56.3409 97.9317C55.4513 92.7055 52.8419 87.4794 48.4533 82.9065C46.0217 80.4122 37.7783 72.3948 26.0358 70.2568C27.1626 69.5442 28.1115 68.8909 29.1196 68.2376C30.543 67.228 31.7291 66.2184 32.7966 65.3276C35.584 62.9521 38.0748 60.9329 41.6331 59.8639C44.9542 58.8543 48.6312 58.498 52.3081 58.201C59.2469 57.5478 66.4229 56.8945 72.1162 51.9653C74.9036 49.5898 76.8606 46.6797 78.6991 43.8291C80.3004 41.4536 81.6644 39.2562 83.5029 37.534C89.73 31.7733 98.7444 32.4266 108.293 33.1392C117.07 33.7925 125.966 34.4458 133.853 30.4668ZM46.1404 110.641C42.9972 113.135 36.2363 115.332 32.3221 112.838C28.7045 110.166 25.2055 107.256 22.2402 104.346C17.3178 99.4758 11.4466 92.2898 11.0314 85.6977C10.8535 82.3126 12.1583 79.462 15.0642 77.0271C26.4509 74.3546 37.6597 81.0655 43.8274 87.5388C46.259 90.2112 49.3428 94.4278 50.0545 99.5352C50.6476 103.93 49.1649 108.325 46.1997 110.7L46.1404 110.641Z" fill="#4543A2"/>
<path d="M230.402 162.07C219.549 162.07 210.594 171.335 210.594 182.737C210.594 194.14 219.43 203.404 230.402 203.404C241.373 203.404 250.21 194.14 250.21 182.737C250.21 171.335 241.255 162.07 230.402 162.07ZM243.864 182.737C243.864 190.517 237.815 196.812 230.402 196.812C222.989 196.812 216.939 190.517 216.939 182.737C216.939 174.958 222.989 168.662 230.402 168.662C237.815 168.662 243.864 174.958 243.864 182.737Z" fill="#4543A2"/>
<path d="M184.558 112.483C195.411 112.483 204.366 103.218 204.366 91.8155C204.366 80.413 195.53 71.1484 184.558 71.1484C173.587 71.1484 164.75 80.413 164.75 91.8155C164.75 103.218 173.587 112.483 184.558 112.483ZM171.096 91.8749C171.096 84.0951 177.145 77.7999 184.558 77.7999C191.971 77.7999 198.02 84.0951 198.02 91.8749C198.02 99.6547 191.971 105.95 184.558 105.95C177.145 105.95 171.096 99.536 171.096 91.8749Z" fill="#4543A2"/>
<path d="M103.904 88.0117C93.0508 88.0117 84.0957 97.2763 84.0957 108.679C84.0957 120.081 92.9322 129.346 103.904 129.346C114.875 129.346 123.712 120.081 123.712 108.679C123.712 97.2763 114.875 88.0117 103.904 88.0117ZM117.366 108.619C117.366 116.399 111.317 122.694 103.904 122.694C96.4906 122.694 90.4414 116.399 90.4414 108.619C90.4414 100.84 96.4906 94.5444 103.904 94.5444C111.317 94.5444 117.366 100.84 117.366 108.619Z" fill="#4543A2"/>
</g>
<defs>
<clipPath id="clip0_1814_888">
<rect width="275" height="297" fill="white"/>
</clipPath>
</defs>
</svg>
