<svg width="566" height="412" viewBox="0 0 566 412" fill="none" xmlns="http://www.w3.org/2000/svg">
<g filter="url(#filter0_d_2194_234)">
<path d="M4.92188 47.5421C4.92188 21.5615 22.4174 0.5 43.9992 0.5H522.845C544.426 0.5 561.922 7.77642 561.922 47.5421V356.458C561.922 395.664 544.426 403.5 522.845 403.5H43.9992C22.4174 403.5 4.92188 382.438 4.92188 356.458V47.5421Z" fill="#8B88C3"/>
<path d="M43.9992 1H522.845C533.597 1 543.201 2.81656 550.13 9.46958C557.058 16.1218 561.422 27.7167 561.422 47.5421V356.458C561.422 376.001 557.06 387.599 550.128 394.322C543.197 401.046 533.59 403 522.845 403H43.9992C22.7763 403 5.42188 382.253 5.42188 356.458V47.5421C5.42188 21.7468 22.7763 1 43.9992 1Z" stroke="#3E389F"/>
</g>
<defs>
<filter id="filter0_d_2194_234" x="0.921875" y="0.5" width="565" height="411" filterUnits="userSpaceOnUse" color-interpolation-filters="sRGB">
<feFlood flood-opacity="0" result="BackgroundImageFix"/>
<feColorMatrix in="SourceAlpha" type="matrix" values="0 0 0 0 0 0 0 0 0 0 0 0 0 0 0 0 0 0 127 0" result="hardAlpha"/>
<feOffset dy="4"/>
<feGaussianBlur stdDeviation="2"/>
<feComposite in2="hardAlpha" operator="out"/>
<feColorMatrix type="matrix" values="0 0 0 0 0 0 0 0 0 0 0 0 0 0 0 0 0 0 0.25 0"/>
<feBlend mode="normal" in2="BackgroundImageFix" result="effect1_dropShadow_2194_234"/>
<feBlend mode="normal" in="SourceGraphic" in2="effect1_dropShadow_2194_234" result="shape"/>
</filter>
</defs>
</svg>
