<svg width="269" height="174" viewBox="0 0 269 174" fill="none" xmlns="http://www.w3.org/2000/svg">
<path d="M248.232 172.768C249.209 173.744 250.791 173.744 251.768 172.768L267.678 156.858C268.654 155.882 268.654 154.299 267.678 153.322C266.701 152.346 265.118 152.346 264.142 153.322L250 167.464L235.858 153.322C234.882 152.346 233.299 152.346 232.322 153.322C231.346 154.299 231.346 155.882 232.322 156.858L248.232 172.768ZM1.90207 17.1018C55.9944 -3.8262 117.439 4.69973 165.383 33.5258C213.304 62.3382 247.5 111.272 247.5 171H252.5C252.5 109.2 217.09 58.7803 167.959 29.2407C118.851 -0.285404 55.7952 -9.11032 0.0979254 12.4386L1.90207 17.1018Z" fill="#8B88C3"/>
</svg>
