<svg width="919" height="455" viewBox="0 0 919 455" fill="none" xmlns="http://www.w3.org/2000/svg">
<mask id="path-1-inside-1_2194_229" fill="white">
<path d="M455.91 1.99662L916.82 454.818L918.97 452.822L458.07 0L455.92 1.99662H455.91ZM357.14 1.99662L818.05 454.818L820.2 452.822L359.3 0L357.15 1.99662H357.14ZM422.98 1.99662L883.89 454.818L886.04 452.822L425.15 0L423 1.99662H422.98ZM390.06 1.99662L850.97 454.818L853.12 452.822L392.22 0L390.07 1.99662H390.06ZM324.22 1.99662L785.13 454.818L787.28 452.822L326.38 0L324.23 1.99662H324.22ZM225.45 1.99662L686.36 454.818L688.51 452.822L227.61 0L225.46 1.99662H225.45ZM291.29 1.99662L752.2 454.818L754.35 452.822L293.46 0L291.31 1.99662H291.29ZM258.37 1.99662L719.28 454.818L721.43 452.822L260.54 0L258.39 1.99662H258.37ZM192.53 1.99662L653.44 454.818L655.59 452.822L194.69 0L192.54 1.99662H192.53ZM93.7599 1.99662L554.67 454.818L556.82 452.822L95.93 0L93.78 1.99662H93.7599ZM159.6 1.99662L620.51 454.818L622.66 452.822L161.77 0L159.62 1.99662H159.6ZM126.68 1.99662L587.59 454.818L589.74 452.822L128.85 0L126.7 1.99662H126.68ZM60.84 1.99662L521.75 454.818L523.9 452.822L63 0L60.85 1.99662H60.84ZM-37.93 1.99662L422.98 454.818L425.13 452.822L-35.76 0L-37.91 1.99662H-37.93ZM27.91 1.99662L488.82 454.818L490.97 452.822L30.08 0L27.93 1.99662H27.91ZM-5.00998 1.99662L455.9 454.818L458.05 452.822L-2.84 0L-4.98999 1.99662H-5.00998ZM-70.85 1.99662L390.06 454.818L392.21 452.822L-68.68 0L-70.83 1.99662H-70.85ZM-169.62 1.99662L291.29 454.818L293.44 452.822L-167.45 0L-169.6 1.99662H-169.62ZM-103.78 1.99662L357.13 454.818L359.28 452.822L-101.61 0L-103.76 1.99662H-103.78ZM-136.7 1.99662L324.21 454.818L326.36 452.822L-134.53 0L-136.68 1.99662H-136.7ZM-202.54 1.99662L258.37 454.818L260.52 452.822L-200.37 0L-202.52 1.99662H-202.54ZM-301.31 1.99662L159.6 454.818L161.75 452.822L-299.14 0L-301.29 1.99662H-301.31ZM-235.47 1.99662L225.44 454.818L227.59 452.822L-233.29 0L-235.44 1.99662H-235.47ZM-268.39 1.99662L192.52 454.818L194.67 452.822L-266.22 0L-268.37 1.99662H-268.39ZM-334.23 1.99662L126.68 454.818L128.83 452.822L-332.06 0L-334.21 1.99662H-334.23ZM-433 1.99662L27.91 454.818L30.06 452.822L-430.83 0L-432.98 1.99662H-433ZM-367.16 1.99662L93.75 454.818L95.9 452.822L-364.98 0L-367.13 1.99662H-367.16ZM-400.08 1.99662L60.83 454.818L62.98 452.822L-397.91 0L-400.06 1.99662H-400.08Z"/>
</mask>
<path d="M455.91 1.99662L916.82 454.818L918.97 452.822L458.07 0L455.92 1.99662H455.91ZM357.14 1.99662L818.05 454.818L820.2 452.822L359.3 0L357.15 1.99662H357.14ZM422.98 1.99662L883.89 454.818L886.04 452.822L425.15 0L423 1.99662H422.98ZM390.06 1.99662L850.97 454.818L853.12 452.822L392.22 0L390.07 1.99662H390.06ZM324.22 1.99662L785.13 454.818L787.28 452.822L326.38 0L324.23 1.99662H324.22ZM225.45 1.99662L686.36 454.818L688.51 452.822L227.61 0L225.46 1.99662H225.45ZM291.29 1.99662L752.2 454.818L754.35 452.822L293.46 0L291.31 1.99662H291.29ZM258.37 1.99662L719.28 454.818L721.43 452.822L260.54 0L258.39 1.99662H258.37ZM192.53 1.99662L653.44 454.818L655.59 452.822L194.69 0L192.54 1.99662H192.53ZM93.7599 1.99662L554.67 454.818L556.82 452.822L95.93 0L93.78 1.99662H93.7599ZM159.6 1.99662L620.51 454.818L622.66 452.822L161.77 0L159.62 1.99662H159.6ZM126.68 1.99662L587.59 454.818L589.74 452.822L128.85 0L126.7 1.99662H126.68ZM60.84 1.99662L521.75 454.818L523.9 452.822L63 0L60.85 1.99662H60.84ZM-37.93 1.99662L422.98 454.818L425.13 452.822L-35.76 0L-37.91 1.99662H-37.93ZM27.91 1.99662L488.82 454.818L490.97 452.822L30.08 0L27.93 1.99662H27.91ZM-5.00998 1.99662L455.9 454.818L458.05 452.822L-2.84 0L-4.98999 1.99662H-5.00998ZM-70.85 1.99662L390.06 454.818L392.21 452.822L-68.68 0L-70.83 1.99662H-70.85ZM-169.62 1.99662L291.29 454.818L293.44 452.822L-167.45 0L-169.6 1.99662H-169.62ZM-103.78 1.99662L357.13 454.818L359.28 452.822L-101.61 0L-103.76 1.99662H-103.78ZM-136.7 1.99662L324.21 454.818L326.36 452.822L-134.53 0L-136.68 1.99662H-136.7ZM-202.54 1.99662L258.37 454.818L260.52 452.822L-200.37 0L-202.52 1.99662H-202.54ZM-301.31 1.99662L159.6 454.818L161.75 452.822L-299.14 0L-301.29 1.99662H-301.31ZM-235.47 1.99662L225.44 454.818L227.59 452.822L-233.29 0L-235.44 1.99662H-235.47ZM-268.39 1.99662L192.52 454.818L194.67 452.822L-266.22 0L-268.37 1.99662H-268.39ZM-334.23 1.99662L126.68 454.818L128.83 452.822L-332.06 0L-334.21 1.99662H-334.23ZM-433 1.99662L27.91 454.818L30.06 452.822L-430.83 0L-432.98 1.99662H-433ZM-367.16 1.99662L93.75 454.818L95.9 452.822L-364.98 0L-367.13 1.99662H-367.16ZM-400.08 1.99662L60.83 454.818L62.98 452.822L-397.91 0L-400.06 1.99662H-400.08Z" fill="#8B88C3"/>
<path d="M488.84 1.49662H488.83V2.49662H488.84V1.49662ZM-4.64975 455.185L-2.49976 453.188L-3.18024 452.455L-5.33023 454.452L-4.64975 455.185ZM455.91 1.99662V0.996618H453.465L455.209 2.70996L455.91 1.99662ZM916.82 454.818L916.119 455.531L916.801 456.201L917.5 455.551L916.82 454.818ZM918.97 452.822L919.651 453.554L920.418 452.842L919.671 452.108L918.97 452.822ZM458.07 0L458.771 -0.713331L458.089 -1.38277L457.389 -0.732756L458.07 0ZM455.92 1.99662V2.99662H456.313L456.6 2.72937L455.92 1.99662ZM357.14 1.99662V0.996618H354.695L356.439 2.70996L357.14 1.99662ZM818.05 454.818L817.349 455.531L818.031 456.201L818.73 455.551L818.05 454.818ZM820.2 452.822L820.88 453.554L821.648 452.842L820.901 452.108L820.2 452.822ZM359.3 0L360.001 -0.713331L359.319 -1.38276L358.62 -0.732765L359.3 0ZM357.15 1.99662V2.99662H357.543L357.83 2.72938L357.15 1.99662ZM422.98 1.99662V0.996618H420.535L422.279 2.70996L422.98 1.99662ZM883.89 454.818L883.189 455.531L883.871 456.201L884.571 455.551L883.89 454.818ZM886.04 452.822L886.72 453.554L887.488 452.842L886.741 452.108L886.04 452.822ZM425.15 0L425.851 -0.713323L425.169 -1.38278L424.469 -0.732756L425.15 0ZM423 1.99662V2.99662H423.393L423.68 2.72937L423 1.99662ZM390.06 1.99662V0.996618H387.615L389.359 2.70996L390.06 1.99662ZM850.97 454.818L850.269 455.531L850.951 456.201L851.651 455.551L850.97 454.818ZM853.12 452.822L853.801 453.554L854.568 452.842L853.821 452.108L853.12 452.822ZM392.22 0L392.921 -0.713331L392.239 -1.38276L391.539 -0.732765L392.22 0ZM390.07 1.99662V2.99662H390.463L390.75 2.72938L390.07 1.99662ZM324.22 1.99662V0.996618H321.775L323.519 2.70996L324.22 1.99662ZM785.13 454.818L784.429 455.531L785.111 456.201L785.811 455.551L785.13 454.818ZM787.28 452.822L787.961 453.554L788.728 452.842L787.981 452.108L787.28 452.822ZM326.38 0L327.081 -0.713331L326.399 -1.38276L325.7 -0.732765L326.38 0ZM324.23 1.99662V2.99662H324.623L324.91 2.72938L324.23 1.99662ZM225.45 1.99662V0.996618H223.005L224.749 2.70996L225.45 1.99662ZM686.36 454.818L685.659 455.531L686.341 456.201L687.041 455.551L686.36 454.818ZM688.51 452.822L689.191 453.554L689.958 452.842L689.211 452.108L688.51 452.822ZM227.61 0L228.311 -0.713331L227.629 -1.38276L226.93 -0.732765L227.61 0ZM225.46 1.99662V2.99662H225.853L226.14 2.72938L225.46 1.99662ZM291.29 1.99662V0.996618H288.845L290.589 2.70996L291.29 1.99662ZM752.2 454.818L751.499 455.531L752.181 456.201L752.88 455.551L752.2 454.818ZM754.35 452.822L755.031 453.554L755.798 452.842L755.051 452.108L754.35 452.822ZM293.46 0L294.161 -0.713323L293.479 -1.38278L292.779 -0.732756L293.46 0ZM291.31 1.99662V2.99662H291.703L291.99 2.72937L291.31 1.99662ZM258.37 1.99662V0.996618H255.925L257.669 2.70996L258.37 1.99662ZM719.28 454.818L718.579 455.531L719.261 456.201L719.961 455.551L719.28 454.818ZM721.43 452.822L722.11 453.554L722.878 452.842L722.131 452.108L721.43 452.822ZM260.54 0L261.241 -0.713323L260.559 -1.38277L259.859 -0.732765L260.54 0ZM258.39 1.99662V2.99662H258.783L259.07 2.72938L258.39 1.99662ZM192.53 1.99662V0.996618H190.085L191.829 2.70996L192.53 1.99662ZM653.44 454.818L652.739 455.531L653.421 456.201L654.12 455.551L653.44 454.818ZM655.59 452.822L656.271 453.554L657.038 452.842L656.291 452.108L655.59 452.822ZM194.69 0L195.391 -0.713331L194.709 -1.38276L194.01 -0.732765L194.69 0ZM192.54 1.99662V2.99662H192.933L193.22 2.72938L192.54 1.99662ZM93.7599 1.99662V0.996618H91.3152L93.0591 2.70996L93.7599 1.99662ZM554.67 454.818L553.969 455.531L554.651 456.201L555.35 455.551L554.67 454.818ZM556.82 452.822L557.5 453.554L558.268 452.842L557.521 452.108L556.82 452.822ZM95.93 0L96.6308 -0.713323L95.9495 -1.38277L95.2495 -0.732765L95.93 0ZM93.78 1.99662V2.99662H94.1727L94.4604 2.72938L93.78 1.99662ZM159.6 1.99662V0.996618H157.155L158.899 2.70996L159.6 1.99662ZM620.51 454.818L619.809 455.531L620.491 456.201L621.191 455.551L620.51 454.818ZM622.66 452.822L623.341 453.554L624.108 452.842L623.361 452.108L622.66 452.822ZM161.77 0L162.471 -0.713323L161.789 -1.38278L161.089 -0.732756L161.77 0ZM159.62 1.99662V2.99662H160.013L160.3 2.72937L159.62 1.99662ZM126.68 1.99662V0.996618H124.235L125.979 2.70996L126.68 1.99662ZM587.59 454.818L586.889 455.531L587.57 456.201L588.27 455.551L587.59 454.818ZM589.74 452.822L590.42 453.554L591.188 452.842L590.441 452.108L589.74 452.822ZM128.85 0L129.551 -0.713323L128.869 -1.38277L128.169 -0.732765L128.85 0ZM126.7 1.99662V2.99662H127.093L127.38 2.72938L126.7 1.99662ZM60.84 1.99662V0.996618H58.3952L60.1392 2.70996L60.84 1.99662ZM521.75 454.818L521.049 455.531L521.731 456.201L522.43 455.551L521.75 454.818ZM523.9 452.822L524.58 453.554L525.348 452.842L524.601 452.108L523.9 452.822ZM63 0L63.7009 -0.713331L63.0195 -1.38276L62.3195 -0.732765L63 0ZM60.85 1.99662V2.99662H61.2427L61.5305 2.72938L60.85 1.99662ZM-37.93 1.99662V0.996618H-40.3748L-38.6308 2.70996L-37.93 1.99662ZM422.98 454.818L422.279 455.531L422.961 456.201L423.66 455.551L422.98 454.818ZM425.13 452.822L425.81 453.554L426.578 452.842L425.831 452.108L425.13 452.822ZM-35.76 0L-35.0591 -0.713323L-35.7405 -1.38277L-36.4405 -0.732765L-35.76 0ZM-37.91 1.99662V2.99662H-37.5173L-37.2295 2.72938L-37.91 1.99662ZM27.91 1.99662V0.996618H25.4652L27.2092 2.70996L27.91 1.99662ZM488.82 454.818L488.119 455.531L488.8 456.201L489.5 455.551L488.82 454.818ZM490.97 452.822L491.65 453.554L492.418 452.842L491.671 452.108L490.97 452.822ZM30.08 0L30.7809 -0.713323L30.0995 -1.38277L29.3995 -0.732765L30.08 0ZM27.93 1.99662V2.99662H28.3227L28.6105 2.72938L27.93 1.99662ZM-5.00998 1.99662V0.996618H-7.45474L-5.71078 2.70996L-5.00998 1.99662ZM455.9 454.818L455.199 455.531L455.88 456.201L456.58 455.551L455.9 454.818ZM458.05 452.822L458.73 453.554L459.498 452.842L458.751 452.108L458.05 452.822ZM-2.84 0L-2.13916 -0.713323L-2.82053 -1.38277L-3.52048 -0.73276L-2.84 0ZM-4.98999 1.99662V2.99662H-4.59726L-4.30951 2.72938L-4.98999 1.99662ZM-70.85 1.99662V0.996618H-73.2948L-71.5508 2.70996L-70.85 1.99662ZM390.06 454.818L389.359 455.531L390.041 456.201L390.74 455.551L390.06 454.818ZM392.21 452.822L392.89 453.554L393.658 452.842L392.911 452.108L392.21 452.822ZM-68.68 0L-67.9792 -0.713323L-68.6605 -1.38277L-69.3605 -0.73276L-68.68 0ZM-70.83 1.99662V2.99662H-70.4373L-70.1495 2.72938L-70.83 1.99662ZM-169.62 1.99662V0.996618H-172.065L-170.321 2.70996L-169.62 1.99662ZM291.29 454.818L290.589 455.531L291.271 456.201L291.97 455.551L291.29 454.818ZM293.44 452.822L294.12 453.554L294.888 452.842L294.141 452.108L293.44 452.822ZM-167.45 0L-166.749 -0.713323L-167.431 -1.38277L-168.13 -0.732765L-167.45 0ZM-169.6 1.99662V2.99662H-169.207L-168.92 2.72938L-169.6 1.99662ZM-103.78 1.99662V0.996618H-106.225L-104.481 2.70996L-103.78 1.99662ZM357.13 454.818L356.429 455.531L357.111 456.201L357.81 455.551L357.13 454.818ZM359.28 452.822L359.96 453.554L360.728 452.842L359.981 452.108L359.28 452.822ZM-101.61 0L-100.909 -0.713323L-101.591 -1.38277L-102.29 -0.73276L-101.61 0ZM-103.76 1.99662V2.99662H-103.367L-103.079 2.72938L-103.76 1.99662ZM-136.7 1.99662V0.996618H-139.145L-137.401 2.70996L-136.7 1.99662ZM324.21 454.818L323.509 455.531L324.19 456.201L324.89 455.551L324.21 454.818ZM326.36 452.822L327.04 453.554L327.808 452.842L327.061 452.108L326.36 452.822ZM-134.53 0L-133.829 -0.713323L-134.511 -1.38277L-135.21 -0.73276L-134.53 0ZM-136.68 1.99662V2.99662H-136.287L-136 2.72938L-136.68 1.99662ZM-202.54 1.99662V0.996618H-204.985L-203.241 2.70996L-202.54 1.99662ZM258.37 454.818L257.669 455.531L258.351 456.201L259.05 455.551L258.37 454.818ZM260.52 452.822L261.2 453.554L261.968 452.842L261.221 452.108L260.52 452.822ZM-200.37 0L-199.669 -0.713323L-200.351 -1.38277L-201.05 -0.73276L-200.37 0ZM-202.52 1.99662V2.99662H-202.127L-201.84 2.72938L-202.52 1.99662ZM-301.31 1.99662V0.996618H-303.755L-302.011 2.70996L-301.31 1.99662ZM159.6 454.818L158.899 455.531L159.581 456.201L160.28 455.551L159.6 454.818ZM161.75 452.822L162.43 453.554L163.198 452.842L162.451 452.108L161.75 452.822ZM-299.14 0L-298.439 -0.713323L-299.121 -1.38277L-299.82 -0.73276L-299.14 0ZM-301.29 1.99662V2.99662H-300.897L-300.61 2.72938L-301.29 1.99662ZM-235.47 1.99662V0.996618H-237.915L-236.171 2.70996L-235.47 1.99662ZM225.44 454.818L224.739 455.531L225.421 456.201L226.12 455.551L225.44 454.818ZM227.59 452.822L228.27 453.554L229.038 452.842L228.291 452.108L227.59 452.822ZM-233.29 0L-232.589 -0.713315L-233.271 -1.38278L-233.97 -0.73276L-233.29 0ZM-235.44 1.99662V2.99662H-235.047L-234.76 2.72938L-235.44 1.99662ZM-268.39 1.99662V0.996618H-270.835L-269.091 2.70996L-268.39 1.99662ZM192.52 454.818L191.819 455.531L192.5 456.201L193.2 455.551L192.52 454.818ZM194.67 452.822L195.35 453.554L196.118 452.842L195.371 452.108L194.67 452.822ZM-266.22 0L-265.519 -0.713323L-266.201 -1.38277L-266.9 -0.73276L-266.22 0ZM-268.37 1.99662V2.99662H-267.977L-267.69 2.72938L-268.37 1.99662ZM-334.23 1.99662V0.996618H-336.675L-334.931 2.70996L-334.23 1.99662ZM126.68 454.818L125.979 455.531L126.661 456.201L127.36 455.551L126.68 454.818ZM128.83 452.822L129.51 453.554L130.278 452.842L129.531 452.108L128.83 452.822ZM-332.06 0L-331.359 -0.713323L-332.041 -1.38277L-332.74 -0.73276L-332.06 0ZM-334.21 1.99662V2.99662H-333.817L-333.53 2.72938L-334.21 1.99662ZM-433 1.99662V0.996618H-435.445L-433.701 2.70996L-433 1.99662ZM27.91 454.818L27.2092 455.531L27.8906 456.201L28.5905 455.551L27.91 454.818ZM30.06 452.822L30.7405 453.554L31.5076 452.842L30.7608 452.108L30.06 452.822ZM-430.83 0L-430.129 -0.713323L-430.811 -1.38277L-431.51 -0.732762L-430.83 0ZM-432.98 1.99662V2.99662H-432.587L-432.3 2.72938L-432.98 1.99662ZM-367.16 1.99662V0.996618H-369.605L-367.861 2.70996L-367.16 1.99662ZM93.75 454.818L93.0492 455.531L93.7306 456.201L94.4305 455.551L93.75 454.818ZM95.9 452.822L96.5804 453.554L97.3475 452.842L96.6008 452.108L95.9 452.822ZM-364.98 0L-364.279 -0.713315L-364.961 -1.38278L-365.66 -0.732762L-364.98 0ZM-367.13 1.99662V2.99662H-366.737L-366.45 2.72938L-367.13 1.99662ZM-400.08 1.99662V0.996618H-402.525L-400.781 2.70996L-400.08 1.99662ZM60.83 454.818L60.1292 455.531L60.8105 456.201L61.5105 455.551L60.83 454.818ZM62.98 452.822L63.6605 453.554L64.4276 452.842L63.6808 452.108L62.98 452.822ZM-397.91 0L-397.209 -0.713323L-397.891 -1.38277L-398.59 -0.732762L-397.91 0ZM-400.06 1.99662V2.99662H-399.667L-399.38 2.72938L-400.06 1.99662ZM455.209 2.70996L916.119 455.531L917.521 454.105L456.611 1.28328L455.209 2.70996ZM917.5 455.551L919.651 453.554L918.289 452.089L916.139 454.085L917.5 455.551ZM919.671 452.108L458.771 -0.713331L457.369 0.713331L918.269 453.535L919.671 452.108ZM457.389 -0.732756L455.24 1.26386L456.6 2.72937L458.75 0.732756L457.389 -0.732756ZM455.92 0.996618H455.91V2.99662H455.92V0.996618ZM356.439 2.70996L817.349 455.531L818.751 454.105L357.841 1.28328L356.439 2.70996ZM818.73 455.551L820.88 453.554L819.519 452.089L817.369 454.085L818.73 455.551ZM820.901 452.108L360.001 -0.713331L358.599 0.713331L819.499 453.535L820.901 452.108ZM358.62 -0.732765L356.469 1.26385L357.83 2.72938L359.98 0.732765L358.62 -0.732765ZM357.15 0.996618H357.14V2.99662H357.15V0.996618ZM422.279 2.70996L883.189 455.531L884.591 454.105L423.681 1.28328L422.279 2.70996ZM884.571 455.551L886.72 453.554L885.359 452.089L883.209 454.085L884.571 455.551ZM886.741 452.108L425.851 -0.713323L424.449 0.713323L885.339 453.535L886.741 452.108ZM424.469 -0.732756L422.32 1.26386L423.68 2.72937L425.83 0.732756L424.469 -0.732756ZM423 0.996618H422.98V2.99662H423V0.996618ZM389.359 2.70996L850.269 455.531L851.671 454.105L390.761 1.28328L389.359 2.70996ZM851.651 455.551L853.801 453.554L852.439 452.089L850.289 454.085L851.651 455.551ZM853.821 452.108L392.921 -0.713331L391.519 0.713331L852.419 453.535L853.821 452.108ZM391.539 -0.732765L389.389 1.26385L390.75 2.72938L392.9 0.732765L391.539 -0.732765ZM390.07 0.996618H390.06V2.99662H390.07V0.996618ZM323.519 2.70996L784.429 455.531L785.831 454.105L324.921 1.28328L323.519 2.70996ZM785.811 455.551L787.961 453.554L786.599 452.089L784.449 454.085L785.811 455.551ZM787.981 452.108L327.081 -0.713331L325.679 0.713331L786.579 453.535L787.981 452.108ZM325.7 -0.732765L323.549 1.26385L324.91 2.72938L327.06 0.732765L325.7 -0.732765ZM324.23 0.996618H324.22V2.99662H324.23V0.996618ZM224.749 2.70996L685.659 455.531L687.061 454.105L226.151 1.28328L224.749 2.70996ZM687.041 455.551L689.191 453.554L687.829 452.089L685.679 454.085L687.041 455.551ZM689.211 452.108L228.311 -0.713331L226.909 0.713331L687.809 453.535L689.211 452.108ZM226.93 -0.732765L224.779 1.26385L226.14 2.72938L228.29 0.732765L226.93 -0.732765ZM225.46 0.996618H225.45V2.99662H225.46V0.996618ZM290.589 2.70996L751.499 455.531L752.901 454.105L291.991 1.28328L290.589 2.70996ZM752.88 455.551L755.031 453.554L753.669 452.089L751.519 454.085L752.88 455.551ZM755.051 452.108L294.161 -0.713323L292.759 0.713323L753.649 453.535L755.051 452.108ZM292.779 -0.732756L290.63 1.26386L291.99 2.72937L294.14 0.732756L292.779 -0.732756ZM291.31 0.996618H291.29V2.99662H291.31V0.996618ZM257.669 2.70996L718.579 455.531L719.981 454.105L259.071 1.28328L257.669 2.70996ZM719.961 455.551L722.11 453.554L720.749 452.089L718.599 454.085L719.961 455.551ZM722.131 452.108L261.241 -0.713323L259.839 0.713323L720.729 453.535L722.131 452.108ZM259.859 -0.732765L257.709 1.26385L259.07 2.72938L261.22 0.732765L259.859 -0.732765ZM258.39 0.996618H258.37V2.99662H258.39V0.996618ZM191.829 2.70996L652.739 455.531L654.141 454.105L193.231 1.28328L191.829 2.70996ZM654.12 455.551L656.271 453.554L654.909 452.089L652.759 454.085L654.12 455.551ZM656.291 452.108L195.391 -0.713331L193.989 0.713331L654.889 453.535L656.291 452.108ZM194.01 -0.732765L191.859 1.26385L193.22 2.72938L195.37 0.732765L194.01 -0.732765ZM192.54 0.996618H192.53V2.99662H192.54V0.996618ZM93.0591 2.70996L553.969 455.531L555.371 454.105L94.4608 1.28328L93.0591 2.70996ZM555.35 455.551L557.5 453.554L556.139 452.089L553.99 454.085L555.35 455.551ZM557.521 452.108L96.6308 -0.713323L95.2292 0.713323L556.119 453.535L557.521 452.108ZM95.2495 -0.732765L93.0995 1.26385L94.4604 2.72938L96.6105 0.732765L95.2495 -0.732765ZM93.78 0.996618H93.7599V2.99662H93.78V0.996618ZM158.899 2.70996L619.809 455.531L621.211 454.105L160.301 1.28328L158.899 2.70996ZM621.191 455.551L623.341 453.554L621.979 452.089L619.829 454.085L621.191 455.551ZM623.361 452.108L162.471 -0.713323L161.069 0.713323L621.959 453.535L623.361 452.108ZM161.089 -0.732756L158.94 1.26386L160.3 2.72937L162.45 0.732756L161.089 -0.732756ZM159.62 0.996618H159.6V2.99662H159.62V0.996618ZM125.979 2.70996L586.889 455.531L588.291 454.105L127.381 1.28328L125.979 2.70996ZM588.27 455.551L590.42 453.554L589.06 452.089L586.909 454.085L588.27 455.551ZM590.441 452.108L129.551 -0.713323L128.149 0.713323L589.039 453.535L590.441 452.108ZM128.169 -0.732765L126.019 1.26385L127.38 2.72938L129.53 0.732765L128.169 -0.732765ZM126.7 0.996618H126.68V2.99662H126.7V0.996618ZM60.1392 2.70996L521.049 455.531L522.451 454.105L61.5408 1.28328L60.1392 2.70996ZM522.43 455.551L524.58 453.554L523.219 452.089L521.07 454.085L522.43 455.551ZM524.601 452.108L63.7009 -0.713331L62.2992 0.713331L523.199 453.535L524.601 452.108ZM62.3195 -0.732765L60.1695 1.26385L61.5305 2.72938L63.6805 0.732765L62.3195 -0.732765ZM60.85 0.996618H60.84V2.99662H60.85V0.996618ZM-38.6308 2.70996L422.279 455.531L423.681 454.105L-37.2292 1.28328L-38.6308 2.70996ZM423.66 455.551L425.81 453.554L424.45 452.089L422.299 454.085L423.66 455.551ZM425.831 452.108L-35.0591 -0.713323L-36.4608 0.713323L424.429 453.535L425.831 452.108ZM-36.4405 -0.732765L-38.5905 1.26385L-37.2295 2.72938L-35.0795 0.732765L-36.4405 -0.732765ZM-37.91 0.996618H-37.93V2.99662H-37.91V0.996618ZM27.2092 2.70996L488.119 455.531L489.521 454.105L28.6108 1.28328L27.2092 2.70996ZM489.5 455.551L491.65 453.554L490.289 452.089L488.139 454.085L489.5 455.551ZM491.671 452.108L30.7809 -0.713323L29.3792 0.713323L490.269 453.535L491.671 452.108ZM29.3995 -0.732765L27.2495 1.26385L28.6105 2.72938L30.7605 0.732765L29.3995 -0.732765ZM27.93 0.996618H27.91V2.99662H27.93V0.996618ZM-5.71078 2.70996L455.199 455.531L456.601 454.105L-4.30917 1.28328L-5.71078 2.70996ZM456.58 455.551L458.73 453.554L457.37 452.089L455.219 454.085L456.58 455.551ZM458.751 452.108L-2.13916 -0.713323L-3.54083 0.713323L457.349 453.535L458.751 452.108ZM-3.52048 -0.73276L-5.67047 1.26386L-4.30951 2.72938L-2.15952 0.73276L-3.52048 -0.73276ZM-4.98999 0.996618H-5.00998V2.99662H-4.98999V0.996618ZM-71.5508 2.70996L389.359 455.531L390.761 454.105L-70.1492 1.28328L-71.5508 2.70996ZM390.74 455.551L392.89 453.554L391.529 452.089L389.38 454.085L390.74 455.551ZM392.911 452.108L-67.9792 -0.713323L-69.3808 0.713323L391.509 453.535L392.911 452.108ZM-69.3605 -0.73276L-71.5105 1.26386L-70.1495 2.72938L-67.9995 0.73276L-69.3605 -0.73276ZM-70.83 0.996618H-70.85V2.99662H-70.83V0.996618ZM-170.321 2.70996L290.589 455.531L291.991 454.105L-168.919 1.28328L-170.321 2.70996ZM291.97 455.551L294.12 453.554L292.76 452.089L290.609 454.085L291.97 455.551ZM294.141 452.108L-166.749 -0.713323L-168.151 0.713323L292.739 453.535L294.141 452.108ZM-168.13 -0.732765L-170.28 1.26385L-168.92 2.72938L-166.77 0.732765L-168.13 -0.732765ZM-169.6 0.996618H-169.62V2.99662H-169.6V0.996618ZM-104.481 2.70996L356.429 455.531L357.831 454.105L-103.079 1.28328L-104.481 2.70996ZM357.81 455.551L359.96 453.554L358.599 452.089L356.45 454.085L357.81 455.551ZM359.981 452.108L-100.909 -0.713323L-102.311 0.713323L358.579 453.535L359.981 452.108ZM-102.29 -0.73276L-104.44 1.26386L-103.079 2.72938L-100.93 0.73276L-102.29 -0.73276ZM-103.76 0.996618H-103.78V2.99662H-103.76V0.996618ZM-137.401 2.70996L323.509 455.531L324.911 454.105L-135.999 1.28328L-137.401 2.70996ZM324.89 455.551L327.04 453.554L325.68 452.089L323.529 454.085L324.89 455.551ZM327.061 452.108L-133.829 -0.713323L-135.231 0.713323L325.659 453.535L327.061 452.108ZM-135.21 -0.73276L-137.36 1.26386L-136 2.72938L-133.85 0.73276L-135.21 -0.73276ZM-136.68 0.996618H-136.7V2.99662H-136.68V0.996618ZM-203.241 2.70996L257.669 455.531L259.071 454.105L-201.839 1.28328L-203.241 2.70996ZM259.05 455.551L261.2 453.554L259.839 452.089L257.69 454.085L259.05 455.551ZM261.221 452.108L-199.669 -0.713323L-201.071 0.713323L259.819 453.535L261.221 452.108ZM-201.05 -0.73276L-203.2 1.26386L-201.84 2.72938L-199.69 0.73276L-201.05 -0.73276ZM-202.52 0.996618H-202.54V2.99662H-202.52V0.996618ZM-302.011 2.70996L158.899 455.531L160.301 454.105L-300.609 1.28328L-302.011 2.70996ZM160.28 455.551L162.43 453.554L161.07 452.089L158.919 454.085L160.28 455.551ZM162.451 452.108L-298.439 -0.713323L-299.841 0.713323L161.049 453.535L162.451 452.108ZM-299.82 -0.73276L-301.97 1.26386L-300.61 2.72938L-298.46 0.73276L-299.82 -0.73276ZM-301.29 0.996618H-301.31V2.99662H-301.29V0.996618ZM-236.171 2.70996L224.739 455.531L226.141 454.105L-234.769 1.28328L-236.171 2.70996ZM226.12 455.551L228.27 453.554L226.909 452.089L224.76 454.085L226.12 455.551ZM228.291 452.108L-232.589 -0.713315L-233.991 0.713315L226.889 453.535L228.291 452.108ZM-233.97 -0.73276L-236.12 1.26386L-234.76 2.72938L-232.61 0.73276L-233.97 -0.73276ZM-235.44 0.996618H-235.47V2.99662H-235.44V0.996618ZM-269.091 2.70996L191.819 455.531L193.221 454.105L-267.689 1.28328L-269.091 2.70996ZM193.2 455.551L195.35 453.554L193.99 452.089L191.839 454.085L193.2 455.551ZM195.371 452.108L-265.519 -0.713323L-266.921 0.713323L193.969 453.535L195.371 452.108ZM-266.9 -0.73276L-269.05 1.26386L-267.69 2.72938L-265.54 0.73276L-266.9 -0.73276ZM-268.37 0.996618H-268.39V2.99662H-268.37V0.996618ZM-334.931 2.70996L125.979 455.531L127.381 454.105L-333.529 1.28328L-334.931 2.70996ZM127.36 455.551L129.51 453.554L128.149 452.089L126 454.085L127.36 455.551ZM129.531 452.108L-331.359 -0.713323L-332.761 0.713323L128.129 453.535L129.531 452.108ZM-332.74 -0.73276L-334.89 1.26386L-333.53 2.72938L-331.38 0.73276L-332.74 -0.73276ZM-334.21 0.996618H-334.23V2.99662H-334.21V0.996618ZM-433.701 2.70996L27.2092 455.531L28.6108 454.105L-432.299 1.28328L-433.701 2.70996ZM28.5905 455.551L30.7405 453.554L29.3795 452.089L27.2295 454.085L28.5905 455.551ZM30.7608 452.108L-430.129 -0.713323L-431.531 0.713323L29.3592 453.535L30.7608 452.108ZM-431.51 -0.732762L-433.66 1.26386L-432.3 2.72938L-430.15 0.732762L-431.51 -0.732762ZM-432.98 0.996618H-433V2.99662H-432.98V0.996618ZM-367.861 2.70996L93.0492 455.531L94.4508 454.105L-366.459 1.28328L-367.861 2.70996ZM94.4305 455.551L96.5804 453.554L95.2195 452.089L93.0695 454.085L94.4305 455.551ZM96.6008 452.108L-364.279 -0.713315L-365.681 0.713315L95.1991 453.535L96.6008 452.108ZM-365.66 -0.732762L-367.81 1.26386L-366.45 2.72938L-364.3 0.732762L-365.66 -0.732762ZM-367.13 0.996618H-367.16V2.99662H-367.13V0.996618ZM-400.781 2.70996L60.1292 455.531L61.5308 454.105L-399.379 1.28328L-400.781 2.70996ZM61.5105 455.551L63.6605 453.554L62.2995 452.089L60.1495 454.085L61.5105 455.551ZM63.6808 452.108L-397.209 -0.713323L-398.611 0.713323L62.2792 453.535L63.6808 452.108ZM-398.59 -0.732762L-400.74 1.26386L-399.38 2.72938L-397.23 0.732762L-398.59 -0.732762ZM-400.06 0.996618H-400.08V2.99662H-400.06V0.996618Z" fill="#3E389F" mask="url(#path-1-inside-1_2194_229)"/>
</svg>
