<svg width="271" height="174" viewBox="0 0 271 174" fill="none" xmlns="http://www.w3.org/2000/svg">
<path d="M2.09793 12.4386C0.81023 12.9368 0.170219 14.3846 0.668421 15.6723C1.16662 16.96 2.61438 17.6 3.90207 17.1018L2.09793 12.4386ZM250.232 172.768C251.209 173.744 252.791 173.744 253.768 172.768L269.678 156.858C270.654 155.882 270.654 154.299 269.678 153.322C268.701 152.346 267.118 152.346 266.142 153.322L252 167.464L237.858 153.322C236.882 152.346 235.299 152.346 234.322 153.322C233.346 154.299 233.346 155.882 234.322 156.858L250.232 172.768ZM3.90207 17.1018C57.9944 -3.8262 119.439 4.69973 167.383 33.5258C215.304 62.3382 249.5 111.272 249.5 171H254.5C254.5 109.2 219.09 58.7803 169.959 29.2407C120.851 -0.285404 57.7952 -9.11032 2.09793 12.4386L3.90207 17.1018Z" fill="#8B88C3"/>
</svg>
