<svg width="271" height="174" viewBox="0 0 271 174" fill="none" xmlns="http://www.w3.org/2000/svg">
<path d="M268.902 12.4386C270.19 12.9368 270.83 14.3846 270.332 15.6723C269.833 16.96 268.386 17.6 267.098 17.1018L268.902 12.4386ZM20.7678 172.768C19.7915 173.744 18.2085 173.744 17.2322 172.768L1.32233 156.858C0.346008 155.882 0.346008 154.299 1.32233 153.322C2.29865 152.346 3.88156 152.346 4.85788 153.322L19 167.464L33.1421 153.322C34.1185 152.346 35.7014 152.346 36.6777 153.322C37.654 154.299 37.654 155.882 36.6777 156.858L20.7678 172.768ZM267.098 17.1018C213.006 -3.8262 151.561 4.69973 103.617 33.5258C55.6956 62.3382 21.5 111.272 21.5 171H16.5C16.5 109.2 51.9096 58.7803 101.041 29.2407C150.149 -0.285403 213.205 -9.11032 268.902 12.4386L267.098 17.1018Z" fill="#8B88C3"/>
</svg>
