<svg width="1440" height="529" viewBox="0 0 1440 529" fill="none" xmlns="http://www.w3.org/2000/svg">
<mask id="path-1-inside-1_2531_391" fill="white">
<path d="M967.373 2.32072L1498.52 528.647L1501 526.326L969.862 0L967.385 2.32072H967.373ZM853.551 2.32072L1384.7 528.647L1387.18 526.326L856.04 0L853.563 2.32072H853.551ZM929.425 2.32072L1460.57 528.647L1463.05 526.326L931.925 0L929.448 2.32072H929.425ZM891.488 2.32072L1422.64 528.647L1425.11 526.326L893.977 0L891.5 2.32072H891.488ZM815.615 2.32072L1346.76 528.647L1349.24 526.326L818.104 0L815.626 2.32072H815.615ZM701.793 2.32072L1232.94 528.647L1235.42 526.326L704.282 0L701.804 2.32072H701.793ZM777.666 2.32072L1308.82 528.647L1311.29 526.326L780.167 0L777.689 2.32072H777.666ZM739.729 2.32072L1270.88 528.647L1273.36 526.326L742.23 0L739.753 2.32072H739.729ZM663.856 2.32072L1195.01 528.647L1197.48 526.326L666.345 0L663.867 2.32072H663.856ZM550.034 2.32072L1081.18 528.647L1083.66 526.326L552.535 0L550.057 2.32072H550.034ZM625.908 2.32072L1157.06 528.647L1159.53 526.326L628.408 0L625.931 2.32072H625.908ZM587.971 2.32072L1119.12 528.647L1121.6 526.326L590.472 0L587.994 2.32072H587.971ZM512.097 2.32072L1043.25 528.647L1045.72 526.326L514.587 0L512.109 2.32072H512.097ZM398.276 2.32072L929.425 528.647L931.902 526.326L400.776 0L398.299 2.32072H398.276ZM474.149 2.32072L1005.3 528.647L1007.78 526.326L476.65 0L474.172 2.32072H474.149ZM436.212 2.32072L967.362 528.647L969.839 526.326L438.713 0L436.235 2.32072H436.212ZM360.339 2.32072L891.488 528.647L893.966 526.326L362.84 0L360.362 2.32072H360.339ZM246.517 2.32072L777.666 528.647L780.144 526.326L249.018 0L246.54 2.32072H246.517ZM322.391 2.32072L853.54 528.647L856.017 526.326L324.891 0L322.414 2.32072H322.391ZM284.454 2.32072L815.603 528.647L818.081 526.326L286.955 0L284.477 2.32072H284.454ZM208.58 2.32072L739.729 528.647L742.207 526.326L211.081 0L208.603 2.32072H208.58ZM94.7586 2.32072L625.908 528.647L628.385 526.326L97.2592 0L94.7816 2.32072H94.7586ZM170.632 2.32072L701.781 528.647L704.259 526.326L173.144 0L170.667 2.32072H170.632ZM132.695 2.32072L663.844 528.647L666.322 526.326L135.196 0L132.718 2.32072H132.695ZM56.8218 2.32072L587.971 528.647L590.449 526.326L59.3225 0L56.8448 2.32072H56.8218ZM-57 2.32072L474.149 528.647L476.627 526.326L-54.4993 0L-56.977 2.32072H-57ZM18.8735 2.32072L550.023 528.647L552.5 526.326L21.3857 0L18.9081 2.32072H18.8735ZM-19.0632 2.32072L512.086 528.647L514.564 526.326L-16.5626 0L-19.0402 2.32072H-19.0632Z"/>
</mask>
<path d="M967.373 2.32072L1498.52 528.647L1501 526.326L969.862 0L967.385 2.32072H967.373ZM853.551 2.32072L1384.7 528.647L1387.18 526.326L856.04 0L853.563 2.32072H853.551ZM929.425 2.32072L1460.57 528.647L1463.05 526.326L931.925 0L929.448 2.32072H929.425ZM891.488 2.32072L1422.64 528.647L1425.11 526.326L893.977 0L891.5 2.32072H891.488ZM815.615 2.32072L1346.76 528.647L1349.24 526.326L818.104 0L815.626 2.32072H815.615ZM701.793 2.32072L1232.94 528.647L1235.42 526.326L704.282 0L701.804 2.32072H701.793ZM777.666 2.32072L1308.82 528.647L1311.29 526.326L780.167 0L777.689 2.32072H777.666ZM739.729 2.32072L1270.88 528.647L1273.36 526.326L742.23 0L739.753 2.32072H739.729ZM663.856 2.32072L1195.01 528.647L1197.48 526.326L666.345 0L663.867 2.32072H663.856ZM550.034 2.32072L1081.18 528.647L1083.66 526.326L552.535 0L550.057 2.32072H550.034ZM625.908 2.32072L1157.06 528.647L1159.53 526.326L628.408 0L625.931 2.32072H625.908ZM587.971 2.32072L1119.12 528.647L1121.6 526.326L590.472 0L587.994 2.32072H587.971ZM512.097 2.32072L1043.25 528.647L1045.72 526.326L514.587 0L512.109 2.32072H512.097ZM398.276 2.32072L929.425 528.647L931.902 526.326L400.776 0L398.299 2.32072H398.276ZM474.149 2.32072L1005.3 528.647L1007.78 526.326L476.65 0L474.172 2.32072H474.149ZM436.212 2.32072L967.362 528.647L969.839 526.326L438.713 0L436.235 2.32072H436.212ZM360.339 2.32072L891.488 528.647L893.966 526.326L362.84 0L360.362 2.32072H360.339ZM246.517 2.32072L777.666 528.647L780.144 526.326L249.018 0L246.54 2.32072H246.517ZM322.391 2.32072L853.54 528.647L856.017 526.326L324.891 0L322.414 2.32072H322.391ZM284.454 2.32072L815.603 528.647L818.081 526.326L286.955 0L284.477 2.32072H284.454ZM208.58 2.32072L739.729 528.647L742.207 526.326L211.081 0L208.603 2.32072H208.58ZM94.7586 2.32072L625.908 528.647L628.385 526.326L97.2592 0L94.7816 2.32072H94.7586ZM170.632 2.32072L701.781 528.647L704.259 526.326L173.144 0L170.667 2.32072H170.632ZM132.695 2.32072L663.844 528.647L666.322 526.326L135.196 0L132.718 2.32072H132.695ZM56.8218 2.32072L587.971 528.647L590.449 526.326L59.3225 0L56.8448 2.32072H56.8218ZM-57 2.32072L474.149 528.647L476.627 526.326L-54.4993 0L-56.977 2.32072H-57ZM18.8735 2.32072L550.023 528.647L552.5 526.326L21.3857 0L18.9081 2.32072H18.8735ZM-19.0632 2.32072L512.086 528.647L514.564 526.326L-16.5626 0L-19.0402 2.32072H-19.0632Z" fill="#8B88C3"/>
<path d="M1005.32 1.82072H1005.31V2.82072H1005.32V1.82072ZM436.577 529.012L439.055 526.691L438.371 525.961L435.894 528.282L436.577 529.012ZM967.373 2.32072V1.32072H964.943L966.669 3.03105L967.373 2.32072ZM1498.52 528.647L1497.82 529.357L1498.5 530.035L1499.21 529.377L1498.52 528.647ZM1501 526.326L1501.68 527.056L1502.44 526.347L1501.7 525.616L1501 526.326ZM969.862 0L970.566 -0.710317L969.882 -1.38847L969.179 -0.729836L969.862 0ZM967.385 2.32072V3.32072H967.78L968.068 3.05056L967.385 2.32072ZM853.551 2.32072V1.32072H851.121L852.847 3.03105L853.551 2.32072ZM1384.7 528.647L1384 529.357L1384.68 530.035L1385.38 529.377L1384.7 528.647ZM1387.18 526.326L1387.86 527.056L1388.62 526.347L1387.88 525.616L1387.18 526.326ZM856.04 0L856.744 -0.710317L856.06 -1.38846L855.357 -0.729845L856.04 0ZM853.563 2.32072V3.32072H853.958L854.246 3.05057L853.563 2.32072ZM929.425 2.32072V1.32072H926.995L928.721 3.03105L929.425 2.32072ZM1460.57 528.647L1459.87 529.357L1460.55 530.035L1461.26 529.377L1460.57 528.647ZM1463.05 526.326L1463.74 527.056L1464.49 526.347L1463.76 525.616L1463.05 526.326ZM931.925 0L932.629 -0.710309L931.945 -1.38847L931.242 -0.729836L931.925 0ZM929.448 2.32072V3.32072H929.843L930.132 3.05056L929.448 2.32072ZM891.488 2.32072V1.32072H889.058L890.784 3.03105L891.488 2.32072ZM1422.64 528.647L1421.93 529.357L1422.62 530.035L1423.32 529.377L1422.64 528.647ZM1425.11 526.326L1425.8 527.056L1426.56 526.347L1425.82 525.616L1425.11 526.326ZM893.977 0L894.681 -0.710317L893.997 -1.38846L893.294 -0.729845L893.977 0ZM891.5 2.32072V3.32072H891.895L892.183 3.05057L891.5 2.32072ZM815.615 2.32072V1.32072H813.185L814.911 3.03105L815.615 2.32072ZM1346.76 528.647L1346.06 529.357L1346.74 530.035L1347.45 529.377L1346.76 528.647ZM1349.24 526.326L1349.93 527.056L1350.68 526.347L1349.95 525.616L1349.24 526.326ZM818.104 0L818.808 -0.710317L818.123 -1.38846L817.42 -0.729845L818.104 0ZM815.626 2.32072V3.32072H816.021L816.31 3.05057L815.626 2.32072ZM701.793 2.32072V1.32072H699.363L701.089 3.03105L701.793 2.32072ZM1232.94 528.647L1232.24 529.357L1232.92 530.035L1233.63 529.377L1232.94 528.647ZM1235.42 526.326L1236.1 527.056L1236.86 526.347L1236.12 525.616L1235.42 526.326ZM704.282 0L704.986 -0.710317L704.301 -1.38846L703.598 -0.729845L704.282 0ZM701.804 2.32072V3.32072H702.199L702.488 3.05057L701.804 2.32072ZM777.666 2.32072V1.32072H775.236L776.962 3.03105L777.666 2.32072ZM1308.82 528.647L1308.11 529.357L1308.8 530.035L1309.5 529.377L1308.82 528.647ZM1311.29 526.326L1311.98 527.056L1312.73 526.347L1312 525.616L1311.29 526.326ZM780.167 0L780.871 -0.710309L780.186 -1.38847L779.483 -0.729836L780.167 0ZM777.689 2.32072V3.32072H778.085L778.373 3.05056L777.689 2.32072ZM739.729 2.32072V1.32072H737.3L739.026 3.03105L739.729 2.32072ZM1270.88 528.647L1270.17 529.357L1270.86 530.035L1271.56 529.377L1270.88 528.647ZM1273.36 526.326L1274.04 527.056L1274.8 526.347L1274.06 525.616L1273.36 526.326ZM742.23 0L742.934 -0.710309L742.25 -1.38846L741.547 -0.729845L742.23 0ZM739.753 2.32072V3.32072H740.148L740.436 3.05057L739.753 2.32072ZM663.856 2.32072V1.32072H661.426L663.152 3.03105L663.856 2.32072ZM1195.01 528.647L1194.3 529.357L1194.99 530.035L1195.69 529.377L1195.01 528.647ZM1197.48 526.326L1198.17 527.056L1198.92 526.347L1198.19 525.616L1197.48 526.326ZM666.345 0L667.049 -0.710317L666.365 -1.38846L665.662 -0.729845L666.345 0ZM663.867 2.32072V3.32072H664.263L664.551 3.05057L663.867 2.32072ZM550.034 2.32072V1.32072H547.604L549.33 3.03105L550.034 2.32072ZM1081.18 528.647L1080.48 529.357L1081.16 530.035L1081.87 529.377L1081.18 528.647ZM1083.66 526.326L1084.34 527.056L1085.1 526.347L1084.36 525.616L1083.66 526.326ZM552.535 0L553.239 -0.710309L552.554 -1.38846L551.851 -0.729845L552.535 0ZM550.057 2.32072V3.32072H550.452L550.741 3.05057L550.057 2.32072ZM625.908 2.32072V1.32072H623.478L625.204 3.03105L625.908 2.32072ZM1157.06 528.647L1156.35 529.357L1157.04 530.035L1157.74 529.377L1157.06 528.647ZM1159.53 526.326L1160.22 527.056L1160.98 526.347L1160.24 525.616L1159.53 526.326ZM628.408 0L629.112 -0.710309L628.428 -1.38847L627.725 -0.729836L628.408 0ZM625.931 2.32072V3.32072H626.326L626.614 3.05056L625.931 2.32072ZM587.971 2.32072V1.32072H585.541L587.267 3.03105L587.971 2.32072ZM1119.12 528.647L1118.42 529.357L1119.1 530.035L1119.8 529.377L1119.12 528.647ZM1121.6 526.326L1122.28 527.056L1123.04 526.347L1122.3 525.616L1121.6 526.326ZM590.472 0L591.176 -0.710309L590.491 -1.38846L589.788 -0.729845L590.472 0ZM587.994 2.32072V3.32072H588.389L588.678 3.05057L587.994 2.32072ZM512.097 2.32072V1.32072H509.668L511.394 3.03105L512.097 2.32072ZM1043.25 528.647L1042.54 529.357L1043.23 530.035L1043.93 529.377L1043.25 528.647ZM1045.72 526.326L1046.41 527.056L1047.17 526.347L1046.43 525.616L1045.72 526.326ZM514.587 0L515.291 -0.710317L514.606 -1.38846L513.903 -0.729845L514.587 0ZM512.109 2.32072V3.32072H512.504L512.793 3.05057L512.109 2.32072ZM398.276 2.32072V1.32072H395.846L397.572 3.03105L398.276 2.32072ZM929.425 528.647L928.721 529.357L929.405 530.035L930.108 529.377L929.425 528.647ZM931.902 526.326L932.586 527.056L933.344 526.347L932.606 525.616L931.902 526.326ZM400.776 0L401.48 -0.710309L400.796 -1.38846L400.093 -0.729845L400.776 0ZM398.299 2.32072V3.32072H398.694L398.982 3.05057L398.299 2.32072ZM474.149 2.32072V1.32072H471.719L473.445 3.03105L474.149 2.32072ZM1005.3 528.647L1004.59 529.357L1005.28 530.035L1005.98 529.377L1005.3 528.647ZM1007.78 526.326L1008.46 527.056L1009.22 526.347L1008.48 525.616L1007.78 526.326ZM476.65 0L477.354 -0.710309L476.669 -1.38846L475.966 -0.729845L476.65 0ZM474.172 2.32072V3.32072H474.567L474.856 3.05057L474.172 2.32072ZM436.212 2.32072V1.32072H433.783L435.509 3.03105L436.212 2.32072ZM967.362 528.647L966.658 529.357L967.342 530.035L968.045 529.377L967.362 528.647ZM969.839 526.326L970.523 527.056L971.28 526.347L970.543 525.616L969.839 526.326ZM438.713 0L439.417 -0.710309L438.733 -1.38847L438.03 -0.72984L438.713 0ZM436.235 2.32072V3.32072H436.631L436.919 3.05056L436.235 2.32072ZM360.339 2.32072V1.32072H357.909L359.635 3.03105L360.339 2.32072ZM891.488 528.647L890.784 529.357L891.469 530.035L892.172 529.377L891.488 528.647ZM893.966 526.326L894.649 527.056L895.407 526.347L894.67 525.616L893.966 526.326ZM362.84 0L363.543 -0.710309L362.859 -1.38847L362.156 -0.72984L362.84 0ZM360.362 2.32072V3.32072H360.757L361.046 3.05056L360.362 2.32072ZM246.517 2.32072V1.32072H244.087L245.813 3.03105L246.517 2.32072ZM777.666 528.647L776.962 529.357L777.647 530.035L778.35 529.377L777.666 528.647ZM780.144 526.326L780.828 527.056L781.585 526.347L780.848 525.616L780.144 526.326ZM249.018 0L249.722 -0.710309L249.037 -1.38846L248.334 -0.729845L249.018 0ZM246.54 2.32072V3.32072H246.935L247.224 3.05057L246.54 2.32072ZM322.391 2.32072V1.32072H319.961L321.687 3.03105L322.391 2.32072ZM853.54 528.647L852.836 529.357L853.52 530.035L854.223 529.377L853.54 528.647ZM856.017 526.326L856.701 527.056L857.459 526.347L856.721 525.616L856.017 526.326ZM324.891 0L325.595 -0.710309L324.911 -1.38847L324.208 -0.72984L324.891 0ZM322.414 2.32072V3.32072H322.809L323.097 3.05056L322.414 2.32072ZM284.454 2.32072V1.32072H282.024L283.75 3.03105L284.454 2.32072ZM815.603 528.647L814.899 529.357L815.583 530.035L816.287 529.377L815.603 528.647ZM818.081 526.326L818.764 527.056L819.522 526.347L818.785 525.616L818.081 526.326ZM286.955 0L287.658 -0.710309L286.974 -1.38847L286.271 -0.72984L286.955 0ZM284.477 2.32072V3.32072H284.872L285.161 3.05056L284.477 2.32072ZM208.58 2.32072V1.32072H206.15L207.876 3.03105L208.58 2.32072ZM739.729 528.647L739.026 529.357L739.71 530.035L740.413 529.377L739.729 528.647ZM742.207 526.326L742.891 527.056L743.648 526.347L742.911 525.616L742.207 526.326ZM211.081 0L211.785 -0.710309L211.101 -1.38847L210.397 -0.72984L211.081 0ZM208.603 2.32072V3.32072H208.999L209.287 3.05056L208.603 2.32072ZM94.7586 2.32072V1.32072H92.3287L94.0547 3.03105L94.7586 2.32072ZM625.908 528.647L625.204 529.357L625.888 530.035L626.591 529.377L625.908 528.647ZM628.385 526.326L629.069 527.056L629.827 526.347L629.089 525.616L628.385 526.326ZM97.2592 0L97.9631 -0.710309L97.2788 -1.38847L96.5756 -0.72984L97.2592 0ZM94.7816 2.32072V3.32072H95.1768L95.4652 3.05056L94.7816 2.32072ZM170.632 2.32072V1.32072H168.202L169.928 3.03105L170.632 2.32072ZM701.781 528.647L701.077 529.357L701.762 530.035L702.465 529.377L701.781 528.647ZM704.259 526.326L704.942 527.056L705.7 526.347L704.963 525.616L704.259 526.326ZM173.144 0L173.848 -0.710301L173.164 -1.38848L172.461 -0.72984L173.144 0ZM170.667 2.32072V3.32072H171.062L171.35 3.05056L170.667 2.32072ZM132.695 2.32072V1.32072H130.265L131.991 3.03105L132.695 2.32072ZM663.844 528.647L663.141 529.357L663.825 530.035L664.528 529.377L663.844 528.647ZM666.322 526.326L667.006 527.056L667.763 526.347L667.026 525.616L666.322 526.326ZM135.196 0L135.9 -0.710309L135.216 -1.38847L134.512 -0.72984L135.196 0ZM132.718 2.32072V3.32072H133.114L133.402 3.05056L132.718 2.32072ZM56.8218 2.32072V1.32072H54.3919L56.1179 3.03105L56.8218 2.32072ZM587.971 528.647L587.267 529.357L587.951 530.035L588.655 529.377L587.971 528.647ZM590.449 526.326L591.132 527.056L591.89 526.347L591.152 525.616L590.449 526.326ZM59.3225 0L60.0264 -0.710309L59.342 -1.38847L58.6389 -0.72984L59.3225 0ZM56.8448 2.32072V3.32072H57.24L57.5285 3.05056L56.8448 2.32072ZM-57 2.32072V1.32072H-59.4299L-57.7039 3.03105L-57 2.32072ZM474.149 528.647L473.445 529.357L474.13 530.035L474.833 529.377L474.149 528.647ZM476.627 526.326L477.31 527.056L478.068 526.347L477.331 525.616L476.627 526.326ZM-54.4993 0L-53.7954 -0.710309L-54.4798 -1.38847L-55.1829 -0.729842L-54.4993 0ZM-56.977 2.32072V3.32072H-56.5818L-56.2933 3.05056L-56.977 2.32072ZM18.8735 2.32072V1.32072H16.4436L18.1696 3.03105L18.8735 2.32072ZM550.023 528.647L549.319 529.357L550.003 530.035L550.706 529.377L550.023 528.647ZM552.5 526.326L553.184 527.056L553.941 526.347L553.204 525.616L552.5 526.326ZM21.3857 0L22.0896 -0.710301L21.4053 -1.38848L20.7021 -0.729842L21.3857 0ZM18.9081 2.32072V3.32072H19.3033L19.5917 3.05056L18.9081 2.32072ZM-19.0632 2.32072V1.32072H-21.4931L-19.7671 3.03105L-19.0632 2.32072ZM512.086 528.647L511.382 529.357L512.066 530.035L512.77 529.377L512.086 528.647ZM514.564 526.326L515.247 527.056L516.005 526.347L515.267 525.616L514.564 526.326ZM-16.5626 0L-15.8587 -0.710309L-16.543 -1.38847L-17.2462 -0.729842L-16.5626 0ZM-19.0402 2.32072V3.32072H-18.645L-18.3566 3.05056L-19.0402 2.32072ZM966.669 3.03105L1497.82 529.357L1499.23 527.937L968.077 1.6104L966.669 3.03105ZM1499.21 529.377L1501.68 527.056L1500.32 525.596L1497.84 527.917L1499.21 529.377ZM1501.7 525.616L970.566 -0.710317L969.158 0.710317L1500.3 527.037L1501.7 525.616ZM969.179 -0.729836L966.701 1.59089L968.068 3.05056L970.546 0.729836L969.179 -0.729836ZM967.385 1.32072H967.373V3.32072H967.385V1.32072ZM852.847 3.03105L1384 529.357L1385.4 527.937L854.255 1.6104L852.847 3.03105ZM1385.38 529.377L1387.86 527.056L1386.49 525.596L1384.02 527.917L1385.38 529.377ZM1387.88 525.616L856.744 -0.710317L855.337 0.710317L1386.47 527.037L1387.88 525.616ZM855.357 -0.729845L852.879 1.59088L854.246 3.05057L856.724 0.729845L855.357 -0.729845ZM853.563 1.32072H853.551V3.32072H853.563V1.32072ZM928.721 3.03105L1459.87 529.357L1461.28 527.937L930.129 1.6104L928.721 3.03105ZM1461.26 529.377L1463.74 527.056L1462.37 525.596L1459.89 527.917L1461.26 529.377ZM1463.76 525.616L932.629 -0.710309L931.222 0.710309L1462.35 527.037L1463.76 525.616ZM931.242 -0.729836L928.764 1.59089L930.132 3.05056L932.609 0.729836L931.242 -0.729836ZM929.448 1.32072H929.425V3.32072H929.448V1.32072ZM890.784 3.03105L1421.93 529.357L1423.34 527.937L892.192 1.6104L890.784 3.03105ZM1423.32 529.377L1425.8 527.056L1424.43 525.596L1421.95 527.917L1423.32 529.377ZM1425.82 525.616L894.681 -0.710317L893.273 0.710317L1424.41 527.037L1425.82 525.616ZM893.294 -0.729845L890.816 1.59088L892.183 3.05057L894.661 0.729845L893.294 -0.729845ZM891.5 1.32072H891.488V3.32072H891.5V1.32072ZM814.911 3.03105L1346.06 529.357L1347.47 527.937L816.318 1.6104L814.911 3.03105ZM1347.45 529.377L1349.93 527.056L1348.56 525.596L1346.08 527.917L1347.45 529.377ZM1349.95 525.616L818.808 -0.710317L817.4 0.710317L1348.54 527.037L1349.95 525.616ZM817.42 -0.729845L814.942 1.59088L816.31 3.05057L818.787 0.729845L817.42 -0.729845ZM815.626 1.32072H815.615V3.32072H815.626V1.32072ZM701.089 3.03105L1232.24 529.357L1233.65 527.937L702.497 1.6104L701.089 3.03105ZM1233.63 529.377L1236.1 527.056L1234.74 525.596L1232.26 527.917L1233.63 529.377ZM1236.12 525.616L704.986 -0.710317L703.578 0.710317L1234.72 527.037L1236.12 525.616ZM703.598 -0.729845L701.121 1.59088L702.488 3.05057L704.966 0.729845L703.598 -0.729845ZM701.804 1.32072H701.793V3.32072H701.804V1.32072ZM776.962 3.03105L1308.11 529.357L1309.52 527.937L778.37 1.6104L776.962 3.03105ZM1309.5 529.377L1311.98 527.056L1310.61 525.596L1308.13 527.917L1309.5 529.377ZM1312 525.616L780.871 -0.710309L779.463 0.710309L1310.59 527.037L1312 525.616ZM779.483 -0.729836L777.006 1.59089L778.373 3.05056L780.851 0.729836L779.483 -0.729836ZM777.689 1.32072H777.666V3.32072H777.689V1.32072ZM739.026 3.03105L1270.17 529.357L1271.58 527.937L740.433 1.6104L739.026 3.03105ZM1271.56 529.377L1274.04 527.056L1272.67 525.596L1270.2 527.917L1271.56 529.377ZM1274.06 525.616L742.934 -0.710309L741.526 0.710309L1272.65 527.037L1274.06 525.616ZM741.547 -0.729845L739.069 1.59088L740.436 3.05057L742.914 0.729845L741.547 -0.729845ZM739.753 1.32072H739.729V3.32072H739.753V1.32072ZM663.152 3.03105L1194.3 529.357L1195.71 527.937L664.56 1.6104L663.152 3.03105ZM1195.69 529.377L1198.17 527.056L1196.8 525.596L1194.32 527.917L1195.69 529.377ZM1198.19 525.616L667.049 -0.710317L665.641 0.710317L1196.78 527.037L1198.19 525.616ZM665.662 -0.729845L663.184 1.59088L664.551 3.05057L667.029 0.729845L665.662 -0.729845ZM663.867 1.32072H663.856V3.32072H663.867V1.32072ZM549.33 3.03105L1080.48 529.357L1081.89 527.937L550.738 1.6104L549.33 3.03105ZM1081.87 529.377L1084.34 527.056L1082.98 525.596L1080.5 527.917L1081.87 529.377ZM1084.36 525.616L553.239 -0.710309L551.831 0.710309L1082.96 527.037L1084.36 525.616ZM551.851 -0.729845L549.374 1.59088L550.741 3.05057L553.219 0.729845L551.851 -0.729845ZM550.057 1.32072H550.034V3.32072H550.057V1.32072ZM625.204 3.03105L1156.35 529.357L1157.76 527.937L626.612 1.6104L625.204 3.03105ZM1157.74 529.377L1160.22 527.056L1158.85 525.596L1156.37 527.917L1157.74 529.377ZM1160.24 525.616L629.112 -0.710309L627.704 0.710309L1158.83 527.037L1160.24 525.616ZM627.725 -0.729836L625.247 1.59089L626.614 3.05056L629.092 0.729836L627.725 -0.729836ZM625.931 1.32072H625.908V3.32072H625.931V1.32072ZM587.267 3.03105L1118.42 529.357L1119.82 527.937L588.675 1.6104L587.267 3.03105ZM1119.8 529.377L1122.28 527.056L1120.91 525.596L1118.44 527.917L1119.8 529.377ZM1122.3 525.616L591.176 -0.710309L589.768 0.710309L1120.89 527.037L1122.3 525.616ZM589.788 -0.729845L587.31 1.59088L588.678 3.05057L591.155 0.729845L589.788 -0.729845ZM587.994 1.32072H587.971V3.32072H587.994V1.32072ZM511.394 3.03105L1042.54 529.357L1043.95 527.937L512.801 1.6104L511.394 3.03105ZM1043.93 529.377L1046.41 527.056L1045.04 525.596L1042.56 527.917L1043.93 529.377ZM1046.43 525.616L515.291 -0.710317L513.883 0.710317L1045.02 527.037L1046.43 525.616ZM513.903 -0.729845L511.425 1.59088L512.793 3.05057L515.27 0.729845L513.903 -0.729845ZM512.109 1.32072H512.097V3.32072H512.109V1.32072ZM397.572 3.03105L928.721 529.357L930.129 527.937L398.98 1.6104L397.572 3.03105ZM930.108 529.377L932.586 527.056L931.219 525.596L928.741 527.917L930.108 529.377ZM932.606 525.616L401.48 -0.710309L400.072 0.710309L931.199 527.037L932.606 525.616ZM400.093 -0.729845L397.615 1.59088L398.982 3.05057L401.46 0.729845L400.093 -0.729845ZM398.299 1.32072H398.276V3.32072H398.299V1.32072ZM473.445 3.03105L1004.59 529.357L1006 527.937L474.853 1.6104L473.445 3.03105ZM1005.98 529.377L1008.46 527.056L1007.09 525.596L1004.61 527.917L1005.98 529.377ZM1008.48 525.616L477.354 -0.710309L475.946 0.710309L1007.07 527.037L1008.48 525.616ZM475.966 -0.729845L473.489 1.59088L474.856 3.05057L477.333 0.729845L475.966 -0.729845ZM474.172 1.32072H474.149V3.32072H474.172V1.32072ZM435.509 3.03105L966.658 529.357L968.065 527.937L436.916 1.6104L435.509 3.03105ZM968.045 529.377L970.523 527.056L969.156 525.596L966.678 527.917L968.045 529.377ZM970.543 525.616L439.417 -0.710309L438.009 0.710309L969.135 527.037L970.543 525.616ZM438.03 -0.72984L435.552 1.59088L436.919 3.05056L439.397 0.72984L438.03 -0.72984ZM436.235 1.32072H436.212V3.32072H436.235V1.32072ZM359.635 3.03105L890.784 529.357L892.192 527.937L361.043 1.6104L359.635 3.03105ZM892.172 529.377L894.649 527.056L893.282 525.596L890.804 527.917L892.172 529.377ZM894.67 525.616L363.543 -0.710309L362.136 0.710309L893.262 527.037L894.67 525.616ZM362.156 -0.72984L359.678 1.59088L361.046 3.05056L363.523 0.72984L362.156 -0.72984ZM360.362 1.32072H360.339V3.32072H360.362V1.32072ZM245.813 3.03105L776.962 529.357L778.37 527.937L247.221 1.6104L245.813 3.03105ZM778.35 529.377L780.828 527.056L779.46 525.596L776.983 527.917L778.35 529.377ZM780.848 525.616L249.722 -0.710309L248.314 0.710309L779.44 527.037L780.848 525.616ZM248.334 -0.729845L245.857 1.59088L247.224 3.05057L249.701 0.729845L248.334 -0.729845ZM246.54 1.32072H246.517V3.32072H246.54V1.32072ZM321.687 3.03105L852.836 529.357L854.244 527.937L323.095 1.6104L321.687 3.03105ZM854.223 529.377L856.701 527.056L855.334 525.596L852.856 527.917L854.223 529.377ZM856.721 525.616L325.595 -0.710309L324.187 0.710309L855.314 527.037L856.721 525.616ZM324.208 -0.72984L321.73 1.59088L323.097 3.05056L325.575 0.72984L324.208 -0.72984ZM322.414 1.32072H322.391V3.32072H322.414V1.32072ZM283.75 3.03105L814.899 529.357L816.307 527.937L285.158 1.6104L283.75 3.03105ZM816.287 529.377L818.764 527.056L817.397 525.596L814.919 527.917L816.287 529.377ZM818.785 525.616L287.658 -0.710309L286.251 0.710309L817.377 527.037L818.785 525.616ZM286.271 -0.72984L283.793 1.59088L285.161 3.05056L287.638 0.72984L286.271 -0.72984ZM284.477 1.32072H284.454V3.32072H284.477V1.32072ZM207.876 3.03105L739.026 529.357L740.433 527.937L209.284 1.6104L207.876 3.03105ZM740.413 529.377L742.891 527.056L741.523 525.596L739.046 527.917L740.413 529.377ZM742.911 525.616L211.785 -0.710309L210.377 0.710309L741.503 527.037L742.911 525.616ZM210.397 -0.72984L207.92 1.59088L209.287 3.05056L211.765 0.72984L210.397 -0.72984ZM208.603 1.32072H208.58V3.32072H208.603V1.32072ZM94.0547 3.03105L625.204 529.357L626.612 527.937L95.4624 1.6104L94.0547 3.03105ZM626.591 529.377L629.069 527.056L627.702 525.596L625.224 527.917L626.591 529.377ZM629.089 525.616L97.9631 -0.710309L96.5553 0.710309L627.681 527.037L629.089 525.616ZM96.5756 -0.72984L94.098 1.59088L95.4652 3.05056L97.9428 0.72984L96.5756 -0.72984ZM94.7816 1.32072H94.7586V3.32072H94.7816V1.32072ZM169.928 3.03105L701.077 529.357L702.485 527.937L171.336 1.6104L169.928 3.03105ZM702.465 529.377L704.942 527.056L703.575 525.596L701.098 527.917L702.465 529.377ZM704.963 525.616L173.848 -0.710301L172.44 0.710301L703.555 527.037L704.963 525.616ZM172.461 -0.72984L169.983 1.59088L171.35 3.05056L173.828 0.72984L172.461 -0.72984ZM170.667 1.32072H170.632V3.32072H170.667V1.32072ZM131.991 3.03105L663.141 529.357L664.548 527.937L133.399 1.6104L131.991 3.03105ZM664.528 529.377L667.006 527.056L665.638 525.596L663.161 527.917L664.528 529.377ZM667.026 525.616L135.9 -0.710309L134.492 0.710309L665.618 527.037L667.026 525.616ZM134.512 -0.72984L132.035 1.59088L133.402 3.05056L135.88 0.72984L134.512 -0.72984ZM132.718 1.32072H132.695V3.32072H132.718V1.32072ZM56.1179 3.03105L587.267 529.357L588.675 527.937L57.5257 1.6104L56.1179 3.03105ZM588.655 529.377L591.132 527.056L589.765 525.596L587.287 527.917L588.655 529.377ZM591.152 525.616L60.0264 -0.710309L58.6186 0.710309L589.745 527.037L591.152 525.616ZM58.6389 -0.72984L56.1612 1.59088L57.5285 3.05056L60.0061 0.72984L58.6389 -0.72984ZM56.8448 1.32072H56.8218V3.32072H56.8448V1.32072ZM-57.7039 3.03105L473.445 529.357L474.853 527.937L-56.2961 1.6104L-57.7039 3.03105ZM474.833 529.377L477.31 527.056L475.943 525.596L473.466 527.917L474.833 529.377ZM477.331 525.616L-53.7954 -0.710309L-55.2032 0.710309L475.923 527.037L477.331 525.616ZM-55.1829 -0.729842L-57.6606 1.59088L-56.2933 3.05056L-53.8157 0.729842L-55.1829 -0.729842ZM-56.977 1.32072H-57V3.32072H-56.977V1.32072ZM18.1696 3.03105L549.319 529.357L550.727 527.937L19.5774 1.6104L18.1696 3.03105ZM550.706 529.377L553.184 527.056L551.817 525.596L549.339 527.917L550.706 529.377ZM553.204 525.616L22.0896 -0.710301L20.6818 0.710301L551.796 527.037L553.204 525.616ZM20.7021 -0.729842L18.2245 1.59088L19.5917 3.05056L22.0693 0.729842L20.7021 -0.729842ZM18.9081 1.32072H18.8735V3.32072H18.9081V1.32072ZM-19.7671 3.03105L511.382 529.357L512.79 527.937L-18.3594 1.6104L-19.7671 3.03105ZM512.77 529.377L515.247 527.056L513.88 525.596L511.402 527.917L512.77 529.377ZM515.267 525.616L-15.8587 -0.710309L-17.2664 0.710309L513.86 527.037L515.267 525.616ZM-17.2462 -0.729842L-19.7238 1.59088L-18.3566 3.05056L-15.8789 0.729842L-17.2462 -0.729842ZM-19.0402 1.32072H-19.0632V3.32072H-19.0402V1.32072Z" fill="#3E389F" mask="url(#path-1-inside-1_2531_391)"/>
</svg>
