<?xml version="1.0" encoding="UTF-8"?><svg id="Layer_2" xmlns="http://www.w3.org/2000/svg" viewBox="0 0 1458.71 313.39"><defs><style>.cls-1{fill:#fff;}</style></defs><g id="Layer_1-2"><path class="cls-1" d="M298.5,271.72c-2.35-8.44-4.57-16.4-4.48-24.62,.08-7,1.84-13.83,3.71-21.06,1.46-5.68,2.98-11.55,3.62-17.58,2.05-19.2-5.42-39.34-19.51-52.55-3.29-3.08-6.94-5.85-10.48-8.53-4.17-3.16-8.12-6.15-11.46-9.58,2.05-5.68,3.18-11.78,3.18-18.12v-6.72c-.08-.64-.41-1.21-.91-1.62-.51-.4-1.14-.58-1.78-.5l-1.16,.14c-3.03,.36-6.01,.99-8.91,1.86-.1-1.37-.19-2.76-.27-4.14-.42-6.93-.85-14.09-3.39-20.86-2.92-7.77-8.27-14.18-13.46-20.37-6.12-7.32-11.9-14.24-13.15-22.62v-.4c4.94-23.97-9.95-33.73-17.95-38.97-10.58-6.93-25.02-7.3-35.94-.92-3.98,2.32-7.33,5.36-10.59,8.3-3.69,3.34-7.17,6.49-11.28,8.4-7.36,3.43-16.58,2.77-25.56,2.12-11.94-.87-24.3-1.76-33.62,6.62-2.73,2.45-4.73,5.38-6.67,8.21-1.93,2.81-3.75,5.47-6.1,7.39-4.87,3.96-11.61,4.56-18.77,5.2-4.46,.4-9.07,.81-13.49,2.07-5.48,1.56-8.95,4.34-12.7,7.33-1.21,.97-2.47,1.97-3.8,2.91-2.23,1.58-4.47,2.74-6.85,3.97-2.21,1.14-4.49,2.33-6.95,3.94C2.88,75.53-.4,81.35,.04,88.33c.41,6.53,4.2,13.7,11.27,21.32,5.54,5.97,11.75,10.74,15.19,13.2l-.05,.09,1.05,.67c.14,.09,.29,.18,.52,.3,3.25,2.24,6.46,4.18,8.81,5.33,2.58,1.26,5.27,2.46,7.89,3.62,6.35,2.83,12.36,5.49,17.59,9.41,4.26,3.19,8.1,7.33,11.81,11.34,5.46,5.9,11.11,11.99,18.62,15.84,6.33,3.24,13.22,4.48,19.88,5.68,6.23,1.12,12.12,2.18,17.4,4.76,3.57,1.74,6.81,4.16,10.26,6.72,3.94,2.93,8.01,5.97,12.77,8.04,4.2,1.83,9.04,3.05,13.72,4.23,7.36,1.86,14.97,3.78,19.61,7.86,2.65,3.2,5.67,4.97,8.98,5.24,2.46,.19,4.66-.47,6.59-1.06,.36-.11,.72-.22,1.08-.32,6.6-1.88,14.14-.65,20.68,3.38,6.54,4.03,11.03,10.2,12.32,16.95,.9,4.69,.64,10.05,.39,15.24-.49,10.13-1,20.61,6.57,28.28,3.99,4.04,10.99,6.34,16.12,2.65,4.08-2.94,4.73-7.64,5.31-11.82,.08-.58,.16-1.14,.25-1.7,.32-2.01,1.37-4.1,2.45-4.86,.36-.26,.6-.28,.83-.24,.49,.09,1.31,.73,2.12,2.26,2.76,5.25,2.21,11.97,1.41,18.41l-.07,.59c-.9,7.23-1.83,14.71,1.02,21.87,1.87,4.69,5.88,8.76,10.47,10.63,1.87,.76,3.75,1.14,5.6,1.14s3.63-.38,5.31-1.13c8.46-3.78,10.07-14.46,8.76-23.2-.89-5.92-2.51-11.72-4.07-17.34Zm-19.97,8.9l.07-.58c.94-7.57,1.54-15.55-2.18-22.63-1.78-3.39-4.27-5.46-7.19-5.98-2.19-.4-4.36,.11-6.25,1.45-3.2,2.27-4.88,6.44-5.38,9.58-.1,.62-.19,1.24-.27,1.88-.41,2.99-.8,5.81-2.39,6.95-1.72,1.24-4.98,0-6.84-1.87-5.36-5.42-4.94-13.91-4.51-22.89,.27-5.6,.55-11.4-.51-16.93-1.67-8.71-7.36-16.62-15.6-21.7-8.25-5.08-17.87-6.6-26.4-4.17-.4,.12-.8,.24-1.23,.37l-.1,.03c-1.4,.43-2.72,.83-3.79,.74-2.75-.23-4.93-3.54-6.9-7.1l-.11-.18c-.56-.86-13.82-21.02-29.81-24.66-11.74-2.67-23.88-5.43-32.98-12.57-3.04-2.38-5.64-5.3-8.41-8.41-2.88-3.24-5.87-6.59-9.47-9.39-4.83-3.76-12.83-5.3-21.32-6.93-10.56-2.03-22.53-4.33-26.91-11.11-2.07-3.19-2.46-7.35-1.2-12.7,1.07-4.53,3.98-5.19,12.78-5,4.92,.1,10,.21,13.94-2.33,4.96-3.19,6.93-8.36,8.85-13.36,1.44-3.77,2.81-7.33,5.31-9.5,7.82-6.78,20.49-5.9,31.68-5.12,11.25,.78,21.87,1.52,27.02-5.63,15.9-22.09,31.54-22.8,55.35-21.21,2.43,8.64,8.28,15.63,13.95,22.41,4.79,5.73,9.75,11.66,12.23,18.28,2.17,5.76,2.55,12.09,2.95,18.79,.12,2.06,.27,4.18,.46,6.32-14.2,6.59-25.03,19.54-28.92,34.76-3.71-9.69-10.17-18.53-18.76-25.64-14.04-11.61-32.48-17.8-51.87-17.42-.95,0-1.85,.38-2.51,1.06-.68,.69-1.04,1.61-1.03,2.59,.31,17.03,8.29,32.87,22.47,44.6,13.59,11.24,31.45,17.44,50.3,17.44,.5,0,2.84-.16,2.96-.17,17.87-2.11,32.8-12.92,40.8-27.88,3.23,3.01,6.79,5.71,10.26,8.33,3.37,2.55,6.86,5.19,9.89,8.03,12.48,11.71,19.1,29.55,17.29,46.56-.59,5.52-2.04,11.14-3.44,16.57-1.89,7.31-3.84,14.86-3.93,22.75-.11,9.24,2.36,18.1,4.75,26.66,1.5,5.39,3.06,10.97,3.88,16.46,.92,6.13,.2,13.45-4.59,15.59-1.98,.88-3.96,.43-5.29-.11-2.85-1.16-5.34-3.7-6.51-6.64-2.17-5.45-1.35-12.01-.56-18.35ZM85.61,142.65c7.6,1.46,14.78,2.84,18.27,5.55,3.08,2.4,5.73,5.37,8.53,8.51,2.84,3.19,5.78,6.49,9.32,9.27,10.37,8.13,23.37,11.09,35.95,13.95,7.54,1.71,14.78,8.56,19.85,14.5-3.14-1-6.34-1.81-9-2.48l-.48-.12c-4.42-1.12-8.59-2.19-12.13-3.73-3.99-1.73-7.57-4.39-11.38-7.23-3.54-2.63-7.2-5.36-11.37-7.39-6.17-3.01-12.83-4.21-19.28-5.37-6.43-1.16-12.51-2.26-17.88-5.01-6.38-3.27-11.37-8.64-16.64-14.34-3.13-3.38-6.36-6.86-9.97-9.95,5.16,1.72,10.76,2.8,16.21,3.85Zm-34.31-21.49c.44,2.68,1.36,5.12,2.73,7.24,.28,.43,.58,.86,.9,1.27-2.42-1.17-4.88-2.26-7.32-3.35-1.16-.51-2.36-1.05-3.57-1.61,2.73-.87,5.26-2.11,7.25-3.56Zm116.39,13.75c-.28,.98,.17,1.95,1.08,2.37,.97,.44,1.94,.88,2.9,1.31l.28,.13c2.21,.99,4.49,2.01,6.71,3.1,8.11,3.85,15.52,9.29,23.34,17.11,1.77,1.76,3.55,3.64,5.26,5.45l.07,.08c.33,.35,.66,.7,1,1.05-15.39-.93-29.92-6.46-41.02-15.64-11.18-9.25-17.93-21.09-19.52-34.24-.04-.33,.07-.66,.29-.91,.21-.22,.46-.34,.75-.34h.05c15.83,.7,30.83,6.28,42.23,15.71,9.57,7.92,16.13,18.27,18.66,29.39-9.19-14.35-23.59-23.76-39.92-25.99-1.01-.15-1.89,.44-2.17,1.42Zm55.24,29.19c1.39-1.75,2.75-3.52,4.11-5.27l.08-.1c4.68-6.04,9.52-12.3,15.09-17.87,.69-.69,.79-1.75,.25-2.57-.38-.57-1.02-.92-1.69-.92-.27,0-.53,.05-.78,.16-7.53,3.1-14.69,10.2-19.52,19.24,2.27-16.39,13.07-30.03,28.7-36.01,2.35-.9,4.8-1.61,7.22-2.17,.8,21.11-13.2,40.01-33.46,45.5ZM147.32,27.75c5.08-2.37,9.14-6.04,13.07-9.6,3.11-2.81,6.05-5.47,9.38-7.42,8.63-5.04,20.04-4.74,28.4,.73,9.42,6.17,18.33,13.65,14.96,30.97-24.13-1.55-42.63-.61-60.53,24.25-2.82,3.91-11.11,3.33-20.7,2.67-12.56-.88-26.8-1.87-36.87,6.86-3.87,3.35-5.62,7.93-7.32,12.37-1.57,4.1-3.05,7.97-6.03,9.89-2.1,1.35-6.07,1.27-9.93,1.18-4.08-.08-9.09-.19-13.13,1.71-.97-5.73-4.05-11.39-8.95-16.41-2.64-2.7-12.06-11.43-25.46-13.76,1.3-.75,2.43-1.47,3.5-2.22,1.57-1.11,2.98-2.24,4.22-3.23,3.22-2.58,6.01-4.8,10.1-5.97,3.77-1.07,8.03-1.45,12.18-1.83,7.9-.71,16.06-1.44,22.63-6.78,3.15-2.56,5.36-5.78,7.5-8.91,1.77-2.59,3.45-5.03,5.54-6.92,7.06-6.35,17.39-5.6,28.33-4.8h0c9.85,.72,20.03,1.46,29.08-2.77ZM47.21,115.26c-3.61,2.72-11.3,5.13-15.75,2.37-4.12-2.87-8.1-6.1-11.51-9.35-5.57-5.31-12.3-13.16-12.75-20.41-.23-3.66,1.27-6.75,4.58-9.47,13.04-2.9,25.79,4.39,32.77,11.53,2.81,2.88,6.32,7.49,7.09,13.1,.67,4.88-1.07,9.68-4.43,12.22ZM118.28,30.02h0Z"/><path class="cls-1" d="M257.49,171.54c-12.44,0-22.57,10.12-22.57,22.57s10.12,22.57,22.57,22.57,22.57-10.12,22.57-22.57-10.12-22.57-22.57-22.57Zm0,37.97c-8.49,0-15.4-6.91-15.4-15.4s6.91-15.4,15.4-15.4,15.4,6.91,15.4,15.4-6.91,15.4-15.4,15.4Z"/><path class="cls-1" d="M205.18,117.33c12.44,0,22.57-10.12,22.57-22.57s-10.12-22.57-22.57-22.57-22.57,10.12-22.57,22.57,10.12,22.57,22.57,22.57Zm-15.4-22.57c0-8.49,6.91-15.4,15.4-15.4s15.4,6.91,15.4,15.4-6.91,15.4-15.4,15.4-15.4-6.91-15.4-15.4Z"/><path class="cls-1" d="M113.11,90.56c-12.44,0-22.57,10.12-22.57,22.57s10.12,22.57,22.57,22.57,22.57-10.12,22.57-22.57-10.12-22.57-22.57-22.57Zm15.4,22.57c0,8.49-6.91,15.4-15.4,15.4s-15.4-6.91-15.4-15.4,6.91-15.4,15.4-15.4,15.4,6.91,15.4,15.4Z"/><g><path class="cls-1" d="M1085.33,98.05c.26-.79,.39-1.49,.39-2.1,0-.89-.33-1.66-1.01-2.33-.68-.68-1.44-1.01-2.34-1.01h-4.14c-1.18,0-2.06,.3-2.66,.9-.87,.87-1.09,1.37-1.15,1.6l-27.72,93.77-29.52-92.62c-.15-.81-.61-1.58-1.41-2.45-.75-.81-1.9-1.2-3.51-1.2h-4.35c-1.57,0-2.7,.39-3.37,1.17-.78,.91-1.31,1.75-1.55,2.49l-29.52,92.6-27.71-93.72c-.07-.26-.29-.77-1.16-1.64-.61-.6-1.48-.9-2.66-.9h-4.14c-.89,0-1.65,.33-2.33,1.01-.68,.68-1.01,1.44-1.01,2.33,0,.62,.13,1.32,.38,2.08l30.71,101.05c.64,1.65,1.42,2.91,2.3,3.66,.82,.71,2.07,1.07,3.7,1.07h3.7c1.8,0,3.21-.37,4.19-1.11,.98-.73,1.74-1.95,2.25-3.63l28.4-88.8,28.39,88.79c.51,1.67,1.3,2.88,2.34,3.62,1.05,.74,2.43,1.12,4.1,1.12h3.7c1.77,0,3.09-.36,3.92-1.07,.86-.74,1.57-1.97,2.09-3.67l30.7-101.02Z"/><path class="cls-1" d="M1184.83,127.52c0-4.24-.65-8.61-1.92-13-1.26-4.34-3.43-8.36-6.44-11.93-3-3.56-7.27-6.5-12.68-8.75-5.45-2.26-12.46-3.41-20.84-3.41-7.09,0-13.19,1-18.13,2.98-4.94,1.98-9.01,4.44-12.1,7.31-3.09,2.88-5.4,5.82-6.86,8.75-1.45,2.89-2.18,5.3-2.18,7.17,0,1.09,.29,1.99,.88,2.76,.52,.68,1.5,1.02,2.9,1.02h3.48c1.58,0,2.59-.82,3.18-2.58,1.82-5,5.18-9.09,9.99-12.18,4.79-3.07,11.12-4.62,18.83-4.62,10.52,0,18.33,2.33,23.22,6.91,4.91,4.61,7.39,10.97,7.39,18.91v8.5l-35.27,4.91c-12.55,1.71-22.87,5.53-30.67,11.35-7.68,5.73-11.57,13.44-11.57,22.93,0,5.85,1.76,11.17,5.24,15.83,3.51,4.71,8.19,8.53,13.9,11.35,5.71,2.82,12.05,4.25,18.82,4.25,7.39,0,13.61-.9,18.49-2.66,4.88-1.77,8.92-3.95,12.01-6.48,3.1-2.54,5.53-5.11,7.2-7.62l1.85-2.77v13.56c0,1.18,.33,2.09,1.01,2.77,.68,.68,1.59,1.01,2.77,1.01h3.7c1.19,0,2.09-.33,2.77-1.01,.68-.68,1.01-1.58,1.01-2.77V127.52Zm-11.27,26.34c0,9.27-1.69,17.09-5.02,23.23-3.35,6.17-7.92,10.82-13.59,13.8-5.64,2.97-11.95,4.47-18.76,4.47-4.6,0-9.14-.79-13.51-2.35-4.42-1.57-8.11-3.97-10.97-7.13-2.92-3.22-4.4-7.41-4.4-12.43,0-6.29,3.23-11.56,9.61-15.66,6.19-3.98,15.41-6.81,27.41-8.42l29.23-4.08v8.56Z"/><path class="cls-1" d="M1224.48,55.01c0-1.18-.33-2.09-1.01-2.77-.68-.68-1.59-1.01-2.77-1.01h-3.7c-1.18,0-2.09,.33-2.77,1.01-.68,.68-1.01,1.59-1.01,2.77V200.02c0,1.19,.33,2.09,1.01,2.77,.68,.68,1.59,1.01,2.77,1.01h3.7c1.18,0,2.09-.33,2.77-1.01,.68-.68,1.01-1.58,1.01-2.77V55.01Z"/><path class="cls-1" d="M1264.69,55.01c0-1.18-.33-2.09-1.01-2.77-.68-.68-1.59-1.01-2.77-1.01h-3.7c-1.18,0-2.09,.33-2.77,1.01-.68,.68-1.01,1.59-1.01,2.77V200.02c0,1.19,.33,2.09,1.01,2.77,.68,.68,1.59,1.01,2.77,1.01h3.7c1.18,0,2.09-.33,2.77-1.01,.68-.68,1.01-1.58,1.01-2.77V55.01Z"/><path class="cls-1" d="M1382.55,145.59c0-11.41-1.91-21.38-5.68-29.63-3.75-8.2-9.15-14.57-16.06-18.94-6.92-4.38-15.45-6.6-25.37-6.6-9.2,0-17.27,2.08-23.97,6.17-6.7,4.1-12.04,9.9-15.85,17.24-3.84,7.4-6.15,16.06-6.86,25.74-.14,2.13-.21,5.04-.21,8.64s.07,6.51,.22,8.64c1.14,14.64,5.81,26.64,13.9,35.64,8.03,8.95,19.06,13.49,32.78,13.49,6.67,0,12.79-.94,18.18-2.78,5.39-1.84,10.02-4.21,13.76-7.04,3.75-2.83,6.68-5.72,8.71-8.6,1.99-2.81,3.06-5.17,3.19-7,.11-1.01-.16-1.73-.84-2.32-.76-.64-1.66-.96-2.72-.96h-3.48c-1.78,0-2.63,.24-3.03,.44-.32,.16-1.09,.77-2.67,3.05-.76,1.22-2.39,2.96-4.94,5.29-2.54,2.32-5.96,4.46-10.17,6.38-4.25,1.94-9.63,2.92-15.99,2.92-7.15,0-13.43-1.93-18.67-5.75-5.2-3.79-9.26-8.75-12.08-14.76-2.8-5.97-4.37-12.36-4.67-19v-3.23h78.52c1.2,0,2.15-.34,2.91-1.04,.73-.68,1.09-1.58,1.09-2.74v-3.27Zm-11.27-3.13h-71.26v-1.88c0-7.37,1.39-14.11,4.12-20.02,2.75-5.95,6.83-10.74,12.12-14.24,5.3-3.5,11.75-5.28,19.17-5.28s13.91,1.78,19.28,5.28c5.36,3.5,9.51,8.29,12.34,14.24,2.81,5.92,4.23,12.66,4.23,20.03v1.88Z"/><path class="cls-1" d="M1458.71,196.98c0-1.18-.33-2.09-1.01-2.77-.68-.68-1.59-1.01-2.77-1.01h-11.76c-6.89,0-11.76-2.37-14.48-7.03-2.62-4.49-3.95-10.74-3.95-18.58V103.21h28.01c1.18,0,2.09-.33,2.77-1.01,.68-.68,1.01-1.59,1.01-2.77v-3.05c0-1.19-.33-2.09-1.01-2.77-.68-.68-1.59-1.01-2.77-1.01h-28.01V55.01c0-1.18-.33-2.09-1.01-2.77-.68-.68-1.59-1.01-2.77-1.01h-3.7c-1.18,0-2.09,.33-2.77,1.01-.68,.68-1.01,1.59-1.01,2.77v37.59h-17.99c-1.18,0-2.09,.33-2.77,1.01-.68,.68-1.01,1.58-1.01,2.77v3.05c0,1.19,.33,2.09,1.01,2.77s1.59,1.01,2.77,1.01h17.99v65.24c0,6.69,.86,12.81,2.57,18.2,1.67,5.28,4.62,9.51,8.78,12.55,4.16,3.05,9.96,4.6,17.26,4.6h12.85c1.18,0,2.09-.33,2.77-1.01,.68-.68,1.01-1.58,1.01-2.77v-3.05Z"/></g><g><path class="cls-1" d="M476.1,59.2c-8.73-3.62-19-5.43-30.78-5.43h-59.65c-1.56,0-2.84,.5-3.83,1.49-1,1-1.49,2.27-1.49,3.83v127.77s0,.05,0,.08v10.41h.01s-.01,.07-.01,.11c0,3.65,2.96,6.61,6.6,6.61s6.6-2.96,6.6-6.61c0-.04-.01-.07-.01-.11h.02s-.01,.07-.01,.11c0,3.65,2.96,6.61,6.6,6.61s6.6-2.96,6.6-6.61c0-.04-.01-.07-.01-.11h.02s-.01,.07-.01,.11c0,3.65,2.96,6.61,6.6,6.61s6.6-2.96,6.6-6.61c0-.04-.01-.07-.01-.11h.01v-23.33h0v-23.12h25.35c11.79,0,22.05-1.7,30.78-5.11s15.55-8.66,20.45-15.76c4.9-7.1,7.35-16.12,7.35-27.05s-2.45-20.24-7.35-27.48c-4.9-7.24-11.72-12.68-20.45-16.3Zm-17.25,57.62c-3.62,3.13-8.49,4.69-14.59,4.69h-24.92v-38.13h24.92c7.1,0,12.21,1.85,15.34,5.54,3.12,3.69,4.69,8.24,4.69,13.63,0,6.39-1.81,11.15-5.43,14.27Z"/><path class="cls-1" d="M545.75,46.64h-25.07c-1.55,0-2.81,.53-3.79,1.58-.98,1.05-1.47,2.35-1.47,3.9v18.75c0,.06,.01,.11,.01,.16v5.2h.01s-.01,.07-.01,.1c0,3.3,2.67,5.97,5.96,5.97s5.96-2.67,5.96-5.97c0-.03,0-.07-.01-.1h.02s-.01,.07-.01,.1c0,3.3,2.67,5.97,5.96,5.97s5.96-2.67,5.96-5.97c0-.03,0-.07-.01-.1h.02s-.01,.07-.01,.1c0,3.3,2.67,5.97,5.96,5.97s5.96-2.67,5.96-5.97c0-.03,0-.07-.01-.1h.01v-5.21c0-.05,.01-.1,.01-.15v-18.75c0-1.54-.53-2.84-1.58-3.9-1.05-1.05-2.35-1.58-3.9-1.58Z"/><path class="cls-1" d="M896.33,177.24h-.05v-45.38c0-6.25-1-11.96-2.98-17.15-1.99-5.18-5.01-9.69-9.05-13.53-4.05-3.83-9.34-6.82-15.87-8.95-6.53-2.13-14.42-3.19-23.65-3.19s-16.33,1.07-22.58,3.19c-6.25,2.13-11.36,4.83-15.34,8.1-3.98,3.27-6.89,6.59-8.84,9.91-3.08,5.23-2.92,10.51-2.92,13.51s2.47,5.53,5.52,5.53,5.51-2.47,5.52-5.51h0c0,3.05,2.48,5.51,5.52,5.51s5.51-2.47,5.52-5.51h0c0,3.05,2.48,5.51,5.52,5.51s4.94-2.52,5.52-5.51c1.22-6.26,3.58-11.75,16.32-11.5,5.68,.11,9.59,1.35,11.72,4.05,2.13,2.7,3.2,6.6,3.2,11.72v2.98l-26.63,4.05c-13.63,2.13-24.57,6.14-32.8,12.04-8.24,5.9-12.36,13.88-12.36,23.97,0,6.25,1.77,11.86,5.33,16.83,3.55,4.97,8.34,8.91,14.38,11.82,6.03,2.91,12.89,4.37,20.56,4.37,5.54,0,10.4-.68,14.59-2.02,4.19-1.35,7.85-3.16,10.97-5.43,3.12-2.27,5.61-4.76,7.46-7.46v1.36c0,.1,.02,.2,.02,.3v7.26h.01s-.01,.07-.01,.1c0,3.26,2.64,5.9,5.9,5.9s5.9-2.64,5.9-5.9c0-.03,0-.07-.01-.1h.02s-.01,.07-.01,.1c0,3.26,2.64,5.9,5.9,5.9s5.9-2.64,5.9-5.9c0-.03,0-.07-.01-.1h.02s-.01,.07-.01,.1c0,3.26,2.64,5.9,5.9,5.9s5.9-2.64,5.9-5.9c0-.03,0-.07-.01-.1h.01v-20.83Zm-36.48-22.59c0,5.68-.96,10.41-2.88,14.17-1.92,3.76-4.55,6.53-7.88,8.31-3.34,1.78-7.07,2.66-11.18,2.66-2.84,0-5.4-.46-7.67-1.39-2.27-.92-4.12-2.24-5.54-3.94-1.42-1.7-2.13-3.76-2.13-6.18,0-3.12,1.52-5.86,4.58-8.2,3.05-2.34,7.91-4.08,14.59-5.22l18.11-3.19v2.98Z"/><path class="cls-1" d="M545.25,92.12c-3.29,0-5.96,2.67-5.96,5.97,0,.03,0,.07,.01,.1h-.02s.01-.07,.01-.1c0-3.3-2.67-5.97-5.96-5.97s-5.96,2.67-5.96,5.97c0,.03,0,.07,.01,.1h-.02s.01-.07,.01-.1c0-3.3-2.67-5.97-5.96-5.97s-5.96,2.67-5.96,5.97c0,.03,0,.07,.01,.1h-.01v99.82h.01s-.01,.07-.01,.1c0,3.3,2.67,5.97,5.96,5.97s5.96-2.67,5.96-5.97c0-.03,0-.07-.01-.1h.02s-.01,.07-.01,.1c0,3.3,2.67,5.97,5.96,5.97s5.96-2.67,5.96-5.97c0-.03,0-.07-.01-.1h.02s-.01,.07-.01,.1c0,3.3,2.67,5.97,5.96,5.97s5.96-2.67,5.96-5.97c0-.03,0-.07-.01-.1h.01V98.19h-.01s.01-.07,.01-.1c0-3.3-2.67-5.97-5.96-5.97Z"/><path class="cls-1" d="M669.11,181.18c0-2.53-2.05-4.58-4.58-4.58-.03,0-.05,0-.08,0h-11.46s-.06-.02-.09-.02h-42.6l48.57-53.47c.85-.99,1.56-1.99,2.13-2.98,.57-.99,.85-2.13,.85-3.41v-18.11c0-1.56-.53-2.84-1.6-3.83-1.07-.99-2.31-1.49-3.73-1.49h-87.5s-.05,0-.08,0c-2.53,0-4.58,2.05-4.58,4.58s2.05,4.58,4.58,4.58c.03,0,.05,0,.08,0v.02s-.05,0-.08,0c-2.53,0-4.58,2.05-4.58,4.58s2.05,4.58,4.58,4.58c.03,0,.05,0,.08,0v.02s-.05,0-.08,0c-2.53,0-4.58,2.05-4.58,4.58s2.05,4.58,4.58,4.58c.03,0,.05,0,.08,0h9.19s.06,.02,.1,.02h38.6l-49.85,54.11c-1,1-1.81,2.06-2.45,3.19-.64,1.14-.96,2.49-.96,4.05v16.62c0,1.57,.53,2.84,1.6,3.83,1.06,1,2.31,1.49,3.73,1.49h95.47s.05,0,.08,0c2.53,0,4.58-2.05,4.58-4.58s-2.05-4.58-4.58-4.58c-.03,0-.05,0-.08,0v-.02s.05,0,.08,0c2.53,0,4.58-2.05,4.58-4.58s-2.05-4.58-4.58-4.58c-.03,0-.05,0-.08,0v-.02s.05,0,.08,0c2.53,0,4.58-2.05,4.58-4.58Z"/><path class="cls-1" d="M783.35,181.18c0-2.53-2.05-4.58-4.58-4.58-.03,0-.05,0-.08,0h-11.46s-.06-.02-.09-.02h-42.6l48.57-53.47c.85-.99,1.56-1.99,2.13-2.98,.57-.99,.85-2.13,.85-3.41v-18.11c0-1.56-.53-2.84-1.6-3.83-1.07-.99-2.31-1.49-3.73-1.49h-87.5s-.05,0-.08,0c-2.53,0-4.58,2.05-4.58,4.58s2.05,4.58,4.58,4.58c.03,0,.05,0,.08,0v.02s-.05,0-.08,0c-2.53,0-4.58,2.05-4.58,4.58s2.05,4.58,4.58,4.58c.03,0,.05,0,.08,0v.02s-.05,0-.08,0c-2.53,0-4.58,2.05-4.58,4.58s2.05,4.58,4.58,4.58c.03,0,.05,0,.08,0h9.19s.06,.02,.1,.02h38.6l-49.85,54.11c-1,1-1.81,2.06-2.45,3.19-.64,1.14-.96,2.49-.96,4.05v16.62c0,1.57,.53,2.84,1.6,3.83,1.06,1,2.31,1.49,3.73,1.49h95.47s.05,0,.08,0c2.53,0,4.58-2.05,4.58-4.58s-2.05-4.58-4.58-4.58c-.03,0-.05,0-.08,0v-.02s.05,0,.08,0c2.53,0,4.58-2.05,4.58-4.58s-2.05-4.58-4.58-4.58c-.03,0-.05,0-.08,0v-.02s.05,0,.08,0c2.53,0,4.58-2.05,4.58-4.58Z"/></g></g></svg>